  0
SECTION
  2
HEADER
  9
$ACADVER
  1
AC1015
  9
$ACADMAINTVER
 70
     6
  9
$DWGCODEPAGE
  3
ANSI_1252
  9
$INSBASE
 10
0.0
 20
0.0
 30
0.0
  9
$EXTMIN
 10
0.0
 20
0.0
 30
0.0
  9
$EXTMAX
 10
12.0
 20
14.0
 30
0.0
  9
$LIMMIN
 10
0.0
 20
0.0
  9
$LIMMAX
 10
12.0
 20
14.0
  9
$ORTHOMODE
 70
     0
  9
$REGENMODE
 70
     1
  9
$FILLMODE
 70
     1
  9
$QTEXTMODE
 70
     0
  9
$MIRRTEXT
 70
     1
  9
$LTSCALE
 40
1.0
  9
$ATTMODE
 70
     1
  9
$TEXTSIZE
 40
0.125
  9
$TRACEWID
 40
0.05
  9
$TEXTSTYLE
  7
Standard
  9
$CLAYER
  8
0
  9
$CELTYPE
  6
ByLayer
  9
$CECOLOR
 62
   256
  9
$CELTSCALE
 40
1.0
  9
$DISPSILH
 70
     0
  9
$DIMSCALE
 40
1.0
  9
$DIMASZ
 40
0.13
  9
$DIMEXO
 40
0.05
  9
$DIMDLI
 40
0.38
  9
$DIMRND
 40
0.0
  9
$DIMDLE
 40
0.0
  9
$DIMEXE
 40
0.125
  9
$DIMTP
 40
0.0
  9
$DIMTM
 40
0.0
  9
$DIMTXT
 40
0.125
  9
$DIMCEN
 40
0.09
  9
$DIMTSZ
 40
0.0
  9
$DIMTOL
 70
     0
  9
$DIMLIM
 70
     0
  9
$DIMTIH
 70
     1
  9
$DIMTOH
 70
     1
  9
$DIMSE1
 70
     0
  9
$DIMSE2
 70
     0
  9
$DIMTAD
 70
     0
  9
$DIMZIN
 70
     0
  9
$DIMBLK
  1

  9
$DIMASO
 70
     1
  9
$DIMSHO
 70
     1
  9
$DIMPOST
  1

  9
$DIMAPOST
  1

  9
$DIMALT
 70
     0
  9
$DIMALTD
 70
     2
  9
$DIMALTF
 40
25.4
  9
$DIMLFAC
 40
1.0
  9
$DIMTOFL
 70
     0
  9
$DIMTVP
 40
0.0
  9
$DIMTIX
 70
     0
  9
$DIMSOXD
 70
     0
  9
$DIMSAH
 70
     0
  9
$DIMBLK1
  1

  9
$DIMBLK2
  1

  9
$DIMSTYLE
  2
Standard
  9
$DIMCLRD
 70
     0
  9
$DIMCLRE
 70
     0
  9
$DIMCLRT
 70
     0
  9
$DIMTFAC
 40
1.0
  9
$DIMGAP
 40
0.06
  9
$DIMJUST
 70
     0
  9
$DIMSD1
 70
     0
  9
$DIMSD2
 70
     0
  9
$DIMTOLJ
 70
     1
  9
$DIMTZIN
 70
     0
  9
$DIMALTZ
 70
     0
  9
$DIMALTTZ
 70
     0
  9
$DIMUPT
 70
     0
  9
$DIMDEC
 70
     3
  9
$DIMTDEC
 70
     3
  9
$DIMALTU
 70
     2
  9
$DIMALTTD
 70
     2
  9
$DIMTXSTY
  7
Standard
  9
$DIMAUNIT
 70
     0
  9
$DIMADEC
 70
     2
  9
$DIMALTRND
 40
0.0
  9
$DIMAZIN
 70
     0
  9
$DIMDSEP
 70
    46
  9
$DIMATFIT
 70
     3
  9
$DIMFRAC
 70
     0
  9
$DIMLDRBLK
  1

  9
$DIMLUNIT
 70
     2
  9
$DIMLWD
 70
    -2
  9
$DIMLWE
 70
    -2
  9
$DIMTMOVE
 70
     0
  9
$LUNITS
 70
     2
  9
$LUPREC
 70
     2
  9
$SKETCHINC
 40
0.1
  9
$FILLETRAD
 40
0.5
  9
$AUNITS
 70
     0
  9
$AUPREC
 70
     2
  9
$MENU
  1
.
  9
$ELEVATION
 40
0.0
  9
$PELEVATION
 40
0.0
  9
$THICKNESS
 40
0.0
  9
$LIMCHECK
 70
     0
  9
$CHAMFERA
 40
0.5
  9
$CHAMFERB
 40
0.5
  9
$CHAMFERC
 40
1.0
  9
$CHAMFERD
 40
0.0
  9
$SKPOLY
 70
     0
  9
$TDCREATE
 40
2455771.98018537
  9
$TDUCREATE
 40
2455772.188518704
  9
$TDUPDATE
 40
2455771.980185382
  9
$TDUUPDATE
 40
2455772.188518715
  9
$TDINDWG
 40
0.0000000116
  9
$TDUSRTIMER
 40
0.0000000116
  9
$USRTIMER
 70
     1
  9
$ANGBASE
 50
0.0
  9
$ANGDIR
 70
     0
  9
$PDMODE
 70
     0
  9
$PDSIZE
 40
-1.0
  9
$PLINEWID
 40
0.0
  9
$SPLFRAME
 70
     0
  9
$SPLINETYPE
 70
     6
  9
$SPLINESEGS
 70
     8
  9
$HANDSEED
  5
1B9
  9
$SURFTAB1
 70
     6
  9
$SURFTAB2
 70
     6
  9
$SURFTYPE
 70
     6
  9
$SURFU
 70
     6
  9
$SURFV
 70
     6
  9
$UCSBASE
  2

  9
$UCSNAME
  2

  9
$UCSORG
 10
0.0
 20
0.0
 30
0.0
  9
$UCSXDIR
 10
1.0
 20
0.0
 30
0.0
  9
$UCSYDIR
 10
0.0
 20
1.0
 30
0.0
  9
$UCSORTHOREF
  2

  9
$UCSORTHOVIEW
 70
     0
  9
$UCSORGTOP
 10
0.0
 20
0.0
 30
0.0
  9
$UCSORGBOTTOM
 10
0.0
 20
0.0
 30
0.0
  9
$UCSORGLEFT
 10
0.0
 20
0.0
 30
0.0
  9
$UCSORGRIGHT
 10
0.0
 20
0.0
 30
0.0
  9
$UCSORGFRONT
 10
0.0
 20
0.0
 30
0.0
  9
$UCSORGBACK
 10
0.0
 20
0.0
 30
0.0
  9
$PUCSBASE
  2

  9
$PUCSNAME
  2

  9
$PUCSORG
 10
0.0
 20
0.0
 30
0.0
  9
$PUCSXDIR
 10
1.0
 20
0.0
 30
0.0
  9
$PUCSYDIR
 10
0.0
 20
1.0
 30
0.0
  9
$PUCSORTHOREF
  2

  9
$PUCSORTHOVIEW
 70
     0
  9
$PUCSORGTOP
 10
0.0
 20
0.0
 30
0.0
  9
$PUCSORGBOTTOM
 10
0.0
 20
0.0
 30
0.0
  9
$PUCSORGLEFT
 10
0.0
 20
0.0
 30
0.0
  9
$PUCSORGRIGHT
 10
0.0
 20
0.0
 30
0.0
  9
$PUCSORGFRONT
 10
0.0
 20
0.0
 30
0.0
  9
$PUCSORGBACK
 10
0.0
 20
0.0
 30
0.0
  9
$USERI1
 70
     0
  9
$USERI2
 70
     0
  9
$USERI3
 70
     0
  9
$USERI4
 70
     0
  9
$USERI5
 70
     0
  9
$USERR1
 40
0.0
  9
$USERR2
 40
0.0
  9
$USERR3
 40
0.0
  9
$USERR4
 40
0.0
  9
$USERR5
 40
0.0
  9
$WORLDVIEW
 70
     1
  9
$SHADEDGE
 70
     3
  9
$SHADEDIF
 70
    70
  9
$TILEMODE
 70
     1
  9
$MAXACTVP
 70
    64
  9
$PINSBASE
 10
0.0
 20
0.0
 30
0.0
  9
$PLIMCHECK
 70
     0
  9
$PEXTMIN
 10
1.0000000000E+20
 20
1.0000000000E+20
 30
1.0000000000E+20
  9
$PEXTMAX
 10
-1.0000000000E+20
 20
-1.0000000000E+20
 30
-1.0000000000E+20
  9
$PLIMMIN
 10
0.0
 20
0.0
  9
$PLIMMAX
 10
12.0
 20
9.0
  9
$UNITMODE
 70
     0
  9
$VISRETAIN
 70
     1
  9
$PLINEGEN
 70
     0
  9
$PSLTSCALE
 70
     1
  9
$TREEDEPTH
 70
  3020
  9
$CMLSTYLE
  2
Standard
  9
$CMLJUST
 70
     0
  9
$CMLSCALE
 40
1.0
  9
$PROXYGRAPHICS
 70
     1
  9
$MEASUREMENT
 70
     0
  9
$CELWEIGHT
370
    -1
  9
$ENDCAPS
280
     0
  9
$JOINSTYLE
280
     0
  9
$LWDISPLAY
290
     1
  9
$INSUNITS
 70
     1
  9
$HYPERLINKBASE
  1

  9
$STYLESHEET
  1

  9
$XEDIT
290
     1
  9
$CEPSNTYPE
380
     0
  9
$PSTYLEMODE
290
     1
  9
$FINGERPRINTGUID
  2
{AAC8947D-E909-43AF-8671-ECF162080026}
  9
$VERSIONGUID
  2
{FAEB1C32-E019-11D5-929B-00C0DF256EC4}
  9
$EXTNAMES
290
     1
  9
$PSVPSCALE
 40
0.0
  9
$OLESTARTUP
290
     0
  0
ENDSEC
  0
SECTION
  2
CLASSES
  0
CLASS
  1
ACDBDICTIONARYWDFLT
  2
AcDbDictionaryWithDefault
  3
ObjectDBX Classes
 90
        0
280
     0
281
     0
  0
CLASS
  1
VISUALSTYLE
  2
AcDbVisualStyle
  3
ObjectDBX Classes
 90
     4095
280
     0
281
     0
  0
CLASS
  1
MATERIAL
  2
AcDbMaterial
  3
ObjectDBX Classes
 90
     1153
280
     0
281
     0
  0
CLASS
  1
ACDBPLACEHOLDER
  2
AcDbPlaceHolder
  3
ObjectDBX Classes
 90
        0
280
     0
281
     0
  0
CLASS
  1
LAYOUT
  2
AcDbLayout
  3
ObjectDBX Classes
 90
        0
280
     0
281
     0
  0
ENDSEC
  0
SECTION
  2
TABLES
  0
TABLE
  2
VPORT
  5
8
330
0
100
AcDbSymbolTable
 70
     1
  0
VPORT
  5
29
330
8
100
AcDbSymbolTableRecord
100
AcDbViewportTableRecord
  2
*Active
 70
     0
 10
0.0
 20
0.0
 11
1.0
 21
1.0
 12
6.0
 22
7.0
 13
0.0
 23
0.0
 14
0.5
 24
0.5
 15
0.5
 25
0.5
 16
0.0
 26
0.0
 36
1.0
 17
0.0
 27
0.0
 37
0.0
 40
14.0
 41
0.8571428571
 42
50.0
 43
0.0
 44
0.0
 50
0.0
 51
0.0
 71
     0
 72
  2000
 73
     1
 74
     3
 75
     0
 76
     0
 77
     0
 78
     0
281
     0
 65
     1
110
0.0
120
0.0
130
0.0
111
1.0
121
0.0
131
0.0
112
0.0
122
1.0
132
0.0
 79
     0
146
0.0
  0
ENDTAB
  0
TABLE
  2
LTYPE
  5
5
330
0
100
AcDbSymbolTable
 70
     6
  0
LTYPE
  5
14
330
5
100
AcDbSymbolTableRecord
100
AcDbLinetypeTableRecord
  2
ByBlock
 70
     0
  3

 72
    65
 73
     0
 40
0.0
  0
LTYPE
  5
15
330
5
100
AcDbSymbolTableRecord
100
AcDbLinetypeTableRecord
  2
ByLayer
 70
     0
  3

 72
    65
 73
     0
 40
0.0
  0
LTYPE
  5
16
330
5
100
AcDbSymbolTableRecord
100
AcDbLinetypeTableRecord
  2
Continuous
 70
     0
  3
Solid line
 72
    65
 73
     0
 40
0.0
  0
LTYPE
  5
3F
330
5
100
AcDbSymbolTableRecord
100
AcDbLinetypeTableRecord
  2
HIDDEN
 70
     0
  3
Hidden __ __ __ __ __ __ __ __ __ __ __ __ __ __
 72
    65
 73
     2
 40
0.075
 49
0.05
 74
     0
 49
-0.025
 74
     0
  0
LTYPE
  5
40
330
5
100
AcDbSymbolTableRecord
100
AcDbLinetypeTableRecord
  2
PHANTOM
 70
     0
  3
Phantom ______  __  __  ______  __  __  ______
 72
    65
 73
     6
 40
0.5
 49
0.25
 74
     0
 49
-0.05
 74
     0
 49
0.05
 74
     0
 49
-0.05
 74
     0
 49
0.05
 74
     0
 49
-0.05
 74
     0
  0
LTYPE
  5
41
330
5
100
AcDbSymbolTableRecord
100
AcDbLinetypeTableRecord
  2
CENTER
 70
     0
  3
Center ____ _ ____ _ ____ _ ____ _ ____ _ ____
 72
    65
 73
     4
 40
0.4
 49
0.25
 74
     0
 49
-0.05
 74
     0
 49
0.05
 74
     0
 49
-0.05
 74
     0
  0
LTYPE
  5
42
330
5
100
AcDbSymbolTableRecord
100
AcDbLinetypeTableRecord
  2
CENTERX2
 70
     0
  3
Center (2x) ________  __  ________  __  _____
 72
    65
 73
     4
 40
0.8
 49
0.5
 74
     0
 49
-0.1
 74
     0
 49
0.1
 74
     0
 49
-0.1
 74
     0
  0
LTYPE
  5
43
330
5
100
AcDbSymbolTableRecord
100
AcDbLinetypeTableRecord
  2
DOT2
 70
     0
  3
Dot (.5x) ........................................
 72
    65
 73
     2
 40
0.025
 49
0.0
 74
     0
 49
-0.025
 74
     0
  0
ENDTAB
  0
TABLE
  2
LAYER
  5
2
330
0
100
AcDbSymbolTable
 70
     1
  0
LAYER
  5
10
330
2
100
AcDbSymbolTableRecord
100
AcDbLayerTableRecord
  2
0
 70
     0
 62
     7
  6
Continuous
370
    -3
390
F
  0
ENDTAB
  0
TABLE
  2
STYLE
  5
3
330
0
100
AcDbSymbolTable
 70
     1
  0
STYLE
  5
11
330
3
100
AcDbSymbolTableRecord
100
AcDbTextStyleTableRecord
  2
Standard
 70
     0
 40
0.0
 41
1.0
 50
0.0
 71
     0
 42
0.2
  3
txt
  4

  0
ENDTAB
  0
TABLE
  2
VIEW
  5
6
330
0
100
AcDbSymbolTable
 70
     0
  0
ENDTAB
  0
TABLE
  2
UCS
  5
7
330
0
100
AcDbSymbolTable
 70
     0
  0
ENDTAB
  0
TABLE
  2
APPID
  5
9
330
0
100
AcDbSymbolTable
 70
     1
  0
APPID
  5
12
330
9
100
AcDbSymbolTableRecord
100
AcDbRegAppTableRecord
  2
ACAD
 70
     0
  0
ENDTAB
  0
TABLE
  2
DIMSTYLE
  5
A
330
0
100
AcDbSymbolTable
 70
     1
100
AcDbDimStyleTable
  0
DIMSTYLE
105
27
330
A
100
AcDbSymbolTableRecord
100
AcDbDimStyleTableRecord
  2
Standard
 70
     0
340
11
  0
ENDTAB
  0
TABLE
  2
BLOCK_RECORD
  5
1
330
0
100
AcDbSymbolTable
 70
     1
  0
BLOCK_RECORD
  5
1F
330
1
100
AcDbSymbolTableRecord
100
AcDbBlockTableRecord
  2
*Model_Space
340
22
  0
BLOCK_RECORD
  5
1B
330
1
100
AcDbSymbolTableRecord
100
AcDbBlockTableRecord
  2
*Paper_Space
340
1E
  0
BLOCK_RECORD
  5
23
330
1
100
AcDbSymbolTableRecord
100
AcDbBlockTableRecord
  2
*Paper_Space0
340
26
  0
ENDTAB
  0
ENDSEC
  0
SECTION
  2
BLOCKS
  0
BLOCK
  5
20
330
1F
100
AcDbEntity
  8
0
100
AcDbBlockBegin
  2
*Model_Space
 70
     0
 10
0.0
 20
0.0
 30
0.0
  3
*Model_Space
  1

  0
ENDBLK
  5
21
330
1F
100
AcDbEntity
  8
0
100
AcDbBlockEnd
  0
BLOCK
  5
1C
330
1B
100
AcDbEntity
 67
     1
  8
0
100
AcDbBlockBegin
  2
*Paper_Space
 70
     0
 10
0.0
 20
0.0
 30
0.0
  3
*Paper_Space
  1

  0
ENDBLK
  5
1D
330
1B
100
AcDbEntity
 67
     1
  8
0
100
AcDbBlockEnd
  0
BLOCK
  5
24
330
23
100
AcDbEntity
  8
0
100
AcDbBlockBegin
  2
*Paper_Space0
 70
     0
 10
0.0
 20
0.0
 30
0.0
  3
*Paper_Space0
  1

  0
ENDBLK
  5
25
330
23
100
AcDbEntity
  8
0
100
AcDbBlockEnd
  0
ENDSEC
  0
SECTION
  2
ENTITIES
  0
CIRCLE
  5
44
330
1F
100
AcDbEntity
  8
0
  6
Continuous
 62
     7
370
    15
100
AcDbCircle
 10
5.3498538988
 20
4.5592328484
 30
0.0
 40
0.0624999999999988
  0
LINE
  5
45
330
1F
100
AcDbEntity
  8
0
  6
Continuous
 62
     7
370
    15
100
AcDbLine
 10
4.7657627777
 20
4.9595376709
 30
0.0
 11
4.6443451537
 21
4.9892487677
 31
0.0
  0
LINE
  5
46
330
1F
100
AcDbEntity
  8
0
  6
Continuous
 62
     7
370
    15
100
AcDbLine
 10
4.8938945042
 20
4.7994953864
 30
0.0
 11
4.7360516076
 21
4.8381199002
 31
0.0
  0
LINE
  5
47
330
1F
100
AcDbEntity
  8
0
  6
Continuous
 62
     7
370
    15
100
AcDbLine
 10
4.8594295557
 20
4.6586509601
 30
0.0
 11
4.8938945042
 21
4.7994953864
 31
0.0
  0
LINE
  5
48
330
1F
100
AcDbEntity
  8
0
  6
Continuous
 62
     7
370
    15
100
AcDbLine
 10
4.7962923384
 20
4.6741006483
 30
0.0
 11
4.8594295557
 21
4.6586509601
 31
0.0
  0
LINE
  5
49
330
1F
100
AcDbEntity
  8
0
  6
Continuous
 62
     7
370
    15
100
AcDbLine
 10
4.7701465204
 20
4.5672531626
 30
0.0
 11
4.7962923384
 21
4.6741006483
 31
0.0
  0
LINE
  5
4A
330
1F
100
AcDbEntity
  8
0
  6
Continuous
 62
     7
370
    15
100
AcDbLine
 10
5.0178385057
 20
4.5066423961
 30
0.0
 11
4.7701465204
 21
4.5672531626
 31
0.0
  0
LINE
  5
4B
330
1F
100
AcDbEntity
  8
0
  6
Continuous
 62
     7
370
    15
100
AcDbLine
 10
5.0439843604
 20
4.6134898818
 30
0.0
 11
5.0178385057
 21
4.5066423961
 31
0.0
  0
LINE
  5
4C
330
1F
100
AcDbEntity
  8
0
  6
Continuous
 62
     7
370
    15
100
AcDbLine
 10
4.9808471797
 20
4.62893957
 30
0.0
 11
5.0439843604
 21
4.6134898818
 31
0.0
  0
LINE
  5
4D
330
1F
100
AcDbEntity
  8
0
  6
Continuous
 62
     7
370
    15
100
AcDbLine
 10
5.0153121649
 20
4.7697839963
 30
0.0
 11
4.9808471797
 21
4.62893957
 31
0.0
  0
LINE
  5
4E
330
1F
100
AcDbEntity
  8
0
  6
Continuous
 62
     7
370
    15
100
AcDbLine
 10
5.1974386377
 20
4.7252172045
 30
0.0
 11
5.0153121649
 21
4.7697839963
 31
0.0
  0
LINE
  5
4F
330
1F
100
AcDbEntity
  8
0
  6
Continuous
 62
     7
370
    15
100
AcDbLine
 10
5.2271498444
 20
4.8466349752
 30
0.0
 11
5.1974386377
 21
4.7252172045
 31
0.0
  0
LINE
  5
50
330
1F
100
AcDbEntity
  8
0
  6
Continuous
 62
     7
370
    15
100
AcDbLine
 10
5.5914027784
 20
4.7575013915
 30
0.0
 11
5.2271498444
 21
4.8466349752
 31
0.0
  0
LINE
  5
51
330
1F
100
AcDbEntity
  8
0
  6
Continuous
 62
     7
370
    15
100
AcDbLine
 10
5.4725579536
 20
4.2718308954
 30
0.0
 11
5.5914027784
 21
4.7575013915
 31
0.0
  0
LINE
  5
52
330
1F
100
AcDbEntity
  8
0
  6
Continuous
 62
     7
370
    15
100
AcDbLine
 10
4.5255003266
 20
4.5035782715
 30
0.0
 11
5.4725579536
 21
4.2718308954
 31
0.0
  0
LINE
  5
53
330
1F
100
AcDbEntity
  8
0
  6
Continuous
 62
     7
370
    15
100
AcDbLine
 10
4.7360516076
 20
4.8381199002
 30
0.0
 11
4.7657627777
 21
4.9595376709
 31
0.0
  0
LINE
  5
54
330
1F
100
AcDbEntity
  8
0
  6
Continuous
 62
     7
370
    15
100
AcDbLine
 10
4.6443451537
 20
4.9892487677
 30
0.0
 11
4.5255003266
 21
4.5035782715
 31
0.0
  0
LINE
  5
55
330
1F
100
AcDbEntity
  8
0
  6
Continuous
 62
     7
370
    15
100
AcDbLine
 10
8.3987366427
 20
3.9132719975
 30
0.0
 11
8.88315374
 21
4.0371267533
 31
0.0
  0
LINE
  5
56
330
1F
100
AcDbEntity
  8
0
  6
Continuous
 62
     7
370
    15
100
AcDbLine
 10
8.88315374
 20
4.0371267533
 30
0.0
 11
9.1246704699
 21
3.0925133989
 31
0.0
  0
LINE
  5
57
330
1F
100
AcDbEntity
  8
0
  6
Continuous
 62
     7
370
    15
100
AcDbLine
 10
8.5473622324
 20
3.331971246
 30
0.0
 11
8.6684664334
 21
3.362935155
 31
0.0
  0
LINE
  5
58
330
1F
100
AcDbEntity
  8
0
  6
Continuous
 62
     7
370
    15
100
AcDbLine
 10
8.6220211566
 20
3.5445914565
 30
0.0
 11
8.7625021471
 21
3.5805094149
 31
0.0
  0
LINE
  5
59
330
1F
100
AcDbEntity
  8
0
  6
Continuous
 62
     7
370
    15
100
AcDbLine
 10
8.7786030277
 20
3.517535289
 30
0.0
 11
8.8851747833
 21
3.5447832943
 31
0.0
  0
LINE
  5
5A
330
1F
100
AcDbEntity
  8
0
  6
Continuous
 62
     7
370
    15
100
AcDbLine
 10
8.7154370641
 20
3.7645880351
 30
0.0
 11
8.7315382381
 21
3.7016136159
 31
0.0
  0
LINE
  5
5B
330
1F
100
AcDbEntity
  8
0
  6
Continuous
 62
     7
370
    15
100
AcDbLine
 10
8.8851747833
 20
3.5447832943
 30
0.0
 11
8.822009113
 21
3.7918360403
 31
0.0
  0
LINE
  5
5C
330
1F
100
AcDbEntity
  8
0
  6
Continuous
 62
     7
370
    15
100
AcDbLine
 10
8.4297002583
 20
3.7921677965
 30
0.0
 11
8.3987366427
 21
3.9132719975
 31
0.0
  0
LINE
  5
5D
330
1F
100
AcDbEntity
  8
0
  6
Continuous
 62
     7
370
    15
100
AcDbLine
 10
8.5508044593
 20
3.8231314121
 30
0.0
 11
8.4297002583
 21
3.7921677965
 31
0.0
  0
LINE
  5
5E
330
1F
100
AcDbEntity
  8
0
  6
Continuous
 62
     7
370
    15
100
AcDbLine
 10
9.1246704699
 20
3.0925133989
 30
0.0
 11
8.6402533726
 21
2.9686583497
 31
0.0
  0
LINE
  5
5F
330
1F
100
AcDbEntity
  8
0
  6
Continuous
 62
     7
370
    15
100
AcDbLine
 10
8.6402533726
 20
2.9686583497
 30
0.0
 11
8.5473622324
 21
3.331971246
 31
0.0
  0
CIRCLE
  5
60
330
1F
100
AcDbEntity
  8
0
  6
Continuous
 62
     7
370
    15
100
AcDbCircle
 10
8.8360164111
 20
3.2122423188
 30
0.0
 40
0.0625000000000001
  0
LINE
  5
61
330
1F
100
AcDbEntity
  8
0
  6
Continuous
 62
     7
370
    15
100
AcDbLine
 10
8.7315382381
 20
3.7016136159
 30
0.0
 11
8.5910572476
 21
3.6656956575
 31
0.0
  0
LINE
  5
62
330
1F
100
AcDbEntity
  8
0
  6
Continuous
 62
     7
370
    15
100
AcDbLine
 10
8.7625021471
 20
3.5805094149
 30
0.0
 11
8.7786030277
 21
3.517535289
 31
0.0
  0
LINE
  5
63
330
1F
100
AcDbEntity
  8
0
  6
Continuous
 62
     7
370
    15
100
AcDbLine
 10
8.5910572476
 20
3.6656956575
 30
0.0
 11
8.5508044593
 21
3.8231314121
 31
0.0
  0
LINE
  5
64
330
1F
100
AcDbEntity
  8
0
  6
Continuous
 62
     7
370
    15
100
AcDbLine
 10
8.822009113
 20
3.7918360403
 30
0.0
 11
8.7154370641
 21
3.7645880351
 31
0.0
  0
LINE
  5
65
330
1F
100
AcDbEntity
  8
0
  6
Continuous
 62
     7
370
    15
100
AcDbLine
 10
8.6684664334
 20
3.362935155
 30
0.0
 11
8.6220211566
 21
3.5445914565
 31
0.0
  0
LINE
  5
66
330
1F
100
AcDbEntity
  8
0
  6
Continuous
 62
     7
370
    15
100
AcDbLine
 10
5.747665628
 20
4.2766382798
 30
0.0
 11
5.7043933196
 21
4.6491332834
 31
0.0
  0
LINE
  5
67
330
1F
100
AcDbEntity
  8
0
  6
Continuous
 62
     7
370
    15
100
AcDbLine
 10
5.7043933196
 20
4.6491332834
 30
0.0
 11
5.8285583086
 21
4.6635574901
 31
0.0
  0
LINE
  5
68
330
1F
100
AcDbEntity
  8
0
  6
Continuous
 62
     7
370
    15
100
AcDbLine
 10
5.8285583086
 20
4.6635574901
 30
0.0
 11
5.8069221452
 21
4.8498049919
 31
0.0
  0
LINE
  5
69
330
1F
100
AcDbEntity
  8
0
  6
Continuous
 62
     7
370
    15
100
AcDbLine
 10
5.8069221452
 20
4.8498049919
 30
0.0
 11
5.9509535463
 21
4.8665368253
 31
0.0
  0
LINE
  5
6A
330
1F
100
AcDbEntity
  8
0
  6
Continuous
 62
     7
370
    15
100
AcDbLine
 10
5.9509535463
 20
4.8665368253
 30
0.0
 11
5.9584540663
 21
4.8019710911
 31
0.0
  0
LINE
  5
6B
330
1F
100
AcDbEntity
  8
0
  6
Continuous
 62
     7
370
    15
100
AcDbLine
 10
5.9584540663
 20
4.8019710911
 30
0.0
 11
6.0677192874
 21
4.8146643578
 31
0.0
  0
LINE
  5
6C
330
1F
100
AcDbEntity
  8
0
  6
Continuous
 62
     7
370
    15
100
AcDbLine
 10
6.0677192874
 20
4.8146643578
 30
0.0
 11
6.038294114
 21
5.0679609251
 31
0.0
  0
LINE
  5
6D
330
1F
100
AcDbEntity
  8
0
  6
Continuous
 62
     7
370
    15
100
AcDbLine
 10
6.038294114
 20
5.0679609251
 30
0.0
 11
5.9290289113
 21
5.0552676584
 31
0.0
  0
LINE
  5
6E
330
1F
100
AcDbEntity
  8
0
  6
Continuous
 62
     7
370
    15
100
AcDbLine
 10
5.9290289113
 20
5.0552676584
 30
0.0
 11
5.9365294496
 21
4.9907019242
 31
0.0
  0
LINE
  5
6F
330
1F
100
AcDbEntity
  8
0
  6
Continuous
 62
     7
370
    15
100
AcDbLine
 10
5.9365294496
 20
4.9907019242
 30
0.0
 11
5.7924980485
 21
4.9739700909
 31
0.0
  0
LINE
  5
70
330
1F
100
AcDbEntity
  8
0
  6
Continuous
 62
     7
370
    15
100
AcDbLine
 10
5.7924980485
 20
4.9739700909
 30
0.0
 11
5.7737467209
 21
5.1353845728
 31
0.0
  0
LINE
  5
71
330
1F
100
AcDbEntity
  8
0
  6
Continuous
 62
     7
370
    15
100
AcDbLine
 10
5.7737467209
 20
5.1353845728
 30
0.0
 11
5.6495817251
 21
5.1209603661
 31
0.0
  0
LINE
  5
72
330
1F
100
AcDbEntity
  8
0
  6
Continuous
 62
     7
370
    15
100
AcDbLine
 10
5.6495817251
 20
5.1209603661
 30
0.0
 11
5.6351576215
 21
5.2451254651
 31
0.0
  0
LINE
  5
73
330
1F
100
AcDbEntity
  8
0
  6
Continuous
 62
     7
370
    15
100
AcDbLine
 10
5.6351576215
 20
5.2451254651
 30
0.0
 11
6.1318176003
 21
5.3028217053
 31
0.0
  0
CIRCLE
  5
74
330
1F
100
AcDbEntity
  8
0
  6
Continuous
 62
     7
370
    15
100
AcDbCircle
 10
5.9743594555
 20
4.4917340982
 30
0.0
 40
0.0625
  0
LINE
  5
75
330
1F
100
AcDbEntity
  8
0
  6
Continuous
 62
     7
370
    15
100
AcDbLine
 10
6.2443255839
 20
4.3343348133
 30
0.0
 11
5.747665628
 21
4.2766382798
 31
0.0
  0
LINE
  5
76
330
1F
100
AcDbEntity
  8
0
  6
Continuous
 62
     7
370
    15
100
AcDbLine
 10
6.1318176003
 20
5.3028217053
 30
0.0
 11
6.2443255839
 21
4.3343348133
 31
0.0
  0
CIRCLE
  5
77
330
1F
100
AcDbEntity
  8
0
  6
Continuous
 62
     7
370
    15
100
AcDbCircle
 10
5.3056928828
 20
5.1442470079
 30
0.0
 40
0.0625000000000009
  0
LINE
  5
78
330
1F
100
AcDbEntity
  8
0
  6
Continuous
 62
     7
370
    15
100
AcDbLine
 10
5.5556928849
 20
5.9317470665
 30
0.0
 11
5.0556928818
 21
5.9317470665
 31
0.0
  0
LINE
  5
79
330
1F
100
AcDbEntity
  8
0
  6
Continuous
 62
     7
370
    15
100
AcDbLine
 10
5.5556928849
 20
5.8067470039
 30
0.0
 11
5.5556928849
 21
5.9317470665
 31
0.0
  0
LINE
  5
7A
330
1F
100
AcDbEntity
  8
0
  6
Continuous
 62
     7
370
    15
100
AcDbLine
 10
5.4306928864
 20
5.8067470039
 30
0.0
 11
5.5556928849
 21
5.8067470039
 31
0.0
  0
LINE
  5
7B
330
1F
100
AcDbEntity
  8
0
  6
Continuous
 62
     7
370
    15
100
AcDbLine
 10
5.4306928864
 20
5.6442470544
 30
0.0
 11
5.4306928864
 21
5.8067470039
 31
0.0
  0
LINE
  5
7C
330
1F
100
AcDbEntity
  8
0
  6
Continuous
 62
     7
370
    15
100
AcDbLine
 10
5.2856928915
 20
5.6442470544
 30
0.0
 11
5.4306928864
 21
5.6442470544
 31
0.0
  0
LINE
  5
7D
330
1F
100
AcDbEntity
  8
0
  6
Continuous
 62
     7
370
    15
100
AcDbLine
 10
5.2856928915
 20
5.7092470635
 30
0.0
 11
5.2856928915
 21
5.6442470544
 31
0.0
  0
LINE
  5
7E
330
1F
100
AcDbEntity
  8
0
  6
Continuous
 62
     7
370
    15
100
AcDbLine
 10
5.1756928789
 20
5.7092470635
 30
0.0
 11
5.2856928915
 21
5.7092470635
 31
0.0
  0
LINE
  5
7F
330
1F
100
AcDbEntity
  8
0
  6
Continuous
 62
     7
370
    15
100
AcDbLine
 10
5.1756928789
 20
5.4542469827
 30
0.0
 11
5.1756928789
 21
5.7092470635
 31
0.0
  0
LINE
  5
80
330
1F
100
AcDbEntity
  8
0
  6
Continuous
 62
     7
370
    15
100
AcDbLine
 10
5.2856928915
 20
5.4542469827
 30
0.0
 11
5.1756928789
 21
5.4542469827
 31
0.0
  0
LINE
  5
81
330
1F
100
AcDbEntity
  8
0
  6
Continuous
 62
     7
370
    15
100
AcDbLine
 10
5.2856928915
 20
5.5192469918
 30
0.0
 11
5.2856928915
 21
5.4542469827
 31
0.0
  0
LINE
  5
82
330
1F
100
AcDbEntity
  8
0
  6
Continuous
 62
     7
370
    15
100
AcDbLine
 10
5.4306928864
 20
5.5192469918
 30
0.0
 11
5.2856928915
 21
5.5192469918
 31
0.0
  0
LINE
  5
83
330
1F
100
AcDbEntity
  8
0
  6
Continuous
 62
     7
370
    15
100
AcDbLine
 10
5.4306928864
 20
5.3317469711
 30
0.0
 11
5.4306928864
 21
5.5192469918
 31
0.0
  0
LINE
  5
84
330
1F
100
AcDbEntity
  8
0
  6
Continuous
 62
     7
370
    15
100
AcDbLine
 10
5.5556928849
 20
5.3317469711
 30
0.0
 11
5.4306928864
 21
5.3317469711
 31
0.0
  0
LINE
  5
85
330
1F
100
AcDbEntity
  8
0
  6
Continuous
 62
     7
370
    15
100
AcDbLine
 10
5.5556928849
 20
4.9567469298
 30
0.0
 11
5.5556928849
 21
5.3317469711
 31
0.0
  0
LINE
  5
86
330
1F
100
AcDbEntity
  8
0
  6
Continuous
 62
     7
370
    15
100
AcDbLine
 10
5.0556928818
 20
5.9317470665
 30
0.0
 11
5.0556928818
 21
4.9567469298
 31
0.0
  0
LINE
  5
87
330
1F
100
AcDbEntity
  8
0
  6
Continuous
 62
     7
370
    15
100
AcDbLine
 10
5.0556928818
 20
4.9567469298
 30
0.0
 11
5.5556928849
 21
4.9567469298
 31
0.0
  0
LINE
  5
88
330
1F
100
AcDbEntity
  8
0
  6
Continuous
 62
     7
370
    15
100
AcDbLine
 10
9.3707602138
 20
7.982348337
 30
0.0
 11
8.8707602565
 21
7.982348337
 31
0.0
  0
LINE
  5
89
330
1F
100
AcDbEntity
  8
0
  6
Continuous
 62
     7
370
    15
100
AcDbLine
 10
9.3707602138
 20
7.8573483385
 30
0.0
 11
9.3707602138
 21
7.982348337
 31
0.0
  0
LINE
  5
8A
330
1F
100
AcDbEntity
  8
0
  6
Continuous
 62
     7
370
    15
100
AcDbLine
 10
8.8707602565
 20
7.982348337
 30
0.0
 11
8.8707602565
 21
7.0073483744
 31
0.0
  0
LINE
  5
8B
330
1F
100
AcDbEntity
  8
0
  6
Continuous
 62
     7
370
    15
100
AcDbLine
 10
9.2457600044
 20
7.694848334
 30
0.0
 11
9.2457600044
 21
7.8573483385
 31
0.0
  0
LINE
  5
8C
330
1F
100
AcDbEntity
  8
0
  6
Continuous
 62
     7
370
    15
100
AcDbLine
 10
8.8707602565
 20
7.0073483744
 30
0.0
 11
9.3707602138
 21
7.0073483744
 31
0.0
  0
LINE
  5
8D
330
1F
100
AcDbEntity
  8
0
  6
Continuous
 62
     7
370
    15
100
AcDbLine
 10
9.3707602138
 20
7.0073483744
 30
0.0
 11
9.3707602138
 21
7.3823483424
 31
0.0
  0
LINE
  5
8E
330
1F
100
AcDbEntity
  8
0
  6
Continuous
 62
     7
370
    15
100
AcDbLine
 10
9.1007602661
 20
7.5698483264
 30
0.0
 11
9.1007602661
 21
7.5048483539
 31
0.0
  0
LINE
  5
8F
330
1F
100
AcDbEntity
  8
0
  6
Continuous
 62
     7
370
    15
100
AcDbLine
 10
9.1007602661
 20
7.5048483539
 30
0.0
 11
8.9907600702
 21
7.5048483539
 31
0.0
  0
LINE
  5
90
330
1F
100
AcDbEntity
  8
0
  6
Continuous
 62
     7
370
    15
100
AcDbLine
 10
8.9907600702
 20
7.5048483539
 30
0.0
 11
8.9907600702
 21
7.7598483431
 31
0.0
  0
CIRCLE
  5
91
330
1F
100
AcDbEntity
  8
0
  6
Continuous
 62
     7
370
    15
100
AcDbCircle
 10
9.1207601229
 20
7.1948483394
 30
0.0
 40
0.0625
  0
LINE
  5
92
330
1F
100
AcDbEntity
  8
0
  6
Continuous
 62
     7
370
    15
100
AcDbLine
 10
8.9907600702
 20
7.7598483431
 30
0.0
 11
9.1007602661
 21
7.7598483431
 31
0.0
  0
LINE
  5
93
330
1F
100
AcDbEntity
  8
0
  6
Continuous
 62
     7
370
    15
100
AcDbLine
 10
9.1007602661
 20
7.7598483431
 30
0.0
 11
9.1007602661
 21
7.694848334
 31
0.0
  0
LINE
  5
94
330
1F
100
AcDbEntity
  8
0
  6
Continuous
 62
     7
370
    15
100
AcDbLine
 10
9.2457600044
 20
7.8573483385
 30
0.0
 11
9.3707602138
 21
7.8573483385
 31
0.0
  0
LINE
  5
95
330
1F
100
AcDbEntity
  8
0
  6
Continuous
 62
     7
370
    15
100
AcDbLine
 10
9.3707602138
 20
7.3823483424
 30
0.0
 11
9.2457600044
 21
7.3823483424
 31
0.0
  0
LINE
  5
96
330
1F
100
AcDbEntity
  8
0
  6
Continuous
 62
     7
370
    15
100
AcDbLine
 10
9.2457600044
 20
7.3823483424
 30
0.0
 11
9.2457600044
 21
7.5698483264
 31
0.0
  0
LINE
  5
97
330
1F
100
AcDbEntity
  8
0
  6
Continuous
 62
     7
370
    15
100
AcDbLine
 10
9.2457600044
 20
7.5698483264
 30
0.0
 11
9.1007602661
 21
7.5698483264
 31
0.0
  0
LINE
  5
98
330
1F
100
AcDbEntity
  8
0
  6
Continuous
 62
     7
370
    15
100
AcDbLine
 10
9.1007602661
 20
7.694848334
 30
0.0
 11
9.2457600044
 21
7.694848334
 31
0.0
  0
LINE
  5
99
330
1F
100
AcDbEntity
  8
0
  6
Continuous
 62
     7
370
    15
100
AcDbLine
 10
8.0360388592
 20
4.1571315537
 30
0.0
 11
7.9862249814
 21
4.6546437797
 31
0.0
  0
LINE
  5
9A
330
1F
100
AcDbEntity
  8
0
  6
Continuous
 62
     7
370
    15
100
AcDbLine
 10
7.9862249814
 20
4.6546437797
 30
0.0
 11
8.3593594442
 21
4.6920040415
 31
0.0
  0
LINE
  5
9B
330
1F
100
AcDbEntity
  8
0
  6
Continuous
 62
     7
370
    15
100
AcDbLine
 10
8.3593594442
 20
4.6920040415
 30
0.0
 11
8.371812767
 21
4.567625985
 31
0.0
  0
LINE
  5
9C
330
1F
100
AcDbEntity
  8
0
  6
Continuous
 62
     7
370
    15
100
AcDbLine
 10
8.371812767
 20
4.567625985
 30
0.0
 11
8.5583799984
 21
4.5863061158
 31
0.0
  0
LINE
  5
9D
330
1F
100
AcDbEntity
  8
0
  6
Continuous
 62
     7
370
    15
100
AcDbLine
 10
8.5583799984
 20
4.5863061158
 30
0.0
 11
8.5728259116
 21
4.4420276759
 31
0.0
  0
LINE
  5
9E
330
1F
100
AcDbEntity
  8
0
  6
Continuous
 62
     7
370
    15
100
AcDbLine
 10
8.5728259116
 20
4.4420276759
 30
0.0
 11
8.5081492987
 21
4.4355518307
 31
0.0
  0
LINE
  5
9F
330
1F
100
AcDbEntity
  8
0
  6
Continuous
 62
     7
370
    15
100
AcDbLine
 10
8.5081492987
 20
4.4355518307
 30
0.0
 11
8.5191083988
 21
4.3260989884
 31
0.0
  0
LINE
  5
A0
330
1F
100
AcDbEntity
  8
0
  6
Continuous
 62
     7
370
    15
100
AcDbLine
 10
8.5191083988
 20
4.3260989884
 30
0.0
 11
8.772839681
 21
4.3515040016
 31
0.0
  0
LINE
  5
A1
330
1F
100
AcDbEntity
  8
0
  6
Continuous
 62
     7
370
    15
100
AcDbLine
 10
8.772839681
 20
4.3515040016
 30
0.0
 11
8.7618805809
 21
4.4609568439
 31
0.0
  0
LINE
  5
A2
330
1F
100
AcDbEntity
  8
0
  6
Continuous
 62
     7
370
    15
100
AcDbLine
 10
8.7618805809
 20
4.4609568439
 30
0.0
 11
8.6972039681
 21
4.4544809987
 31
0.0
  0
LINE
  5
A3
330
1F
100
AcDbEntity
  8
0
  6
Continuous
 62
     7
370
    15
100
AcDbLine
 10
8.6972039681
 20
4.4544809987
 30
0.0
 11
8.6827580549
 21
4.598759732
 31
0.0
  0
LINE
  5
A4
330
1F
100
AcDbEntity
  8
0
  6
Continuous
 62
     7
370
    15
100
AcDbLine
 10
8.6827580549
 20
4.598759732
 30
0.0
 11
8.8444494404
 21
4.6149491983
 31
0.0
  0
LINE
  5
A5
330
1F
100
AcDbEntity
  8
0
  6
Continuous
 62
     7
370
    15
100
AcDbLine
 10
8.8444494404
 20
4.6149491983
 30
0.0
 11
8.8319961176
 21
4.7393272548
 31
0.0
  0
LINE
  5
A6
330
1F
100
AcDbEntity
  8
0
  6
Continuous
 62
     7
370
    15
100
AcDbLine
 10
8.8319961176
 20
4.7393272548
 30
0.0
 11
8.9563741741
 21
4.7517805776
 31
0.0
  0
LINE
  5
A7
330
1F
100
AcDbEntity
  8
0
  6
Continuous
 62
     7
370
    15
100
AcDbLine
 10
8.9563741741
 20
4.7517805776
 30
0.0
 11
9.006188052
 21
4.2542683516
 31
0.0
  0
LINE
  5
A8
330
1F
100
AcDbEntity
  8
0
  6
Continuous
 62
     7
370
    15
100
AcDbLine
 10
9.006188052
 20
4.2542683516
 30
0.0
 11
8.0360388592
 21
4.1571315537
 31
0.0
  0
CIRCLE
  5
A9
330
1F
100
AcDbEntity
  8
0
  6
Continuous
 62
     7
370
    15
100
AcDbCircle
 10
8.1976990914
 20
4.424567785
 30
0.0
 40
0.0625
  0
CIRCLE
  5
AA
330
1F
100
AcDbEntity
  8
0
  6
Continuous
 62
     7
370
    15
100
AcDbCircle
 10
5.8282012942
 20
2.1951474898
 30
0.0
 40
0.0399999999999997
  0
CIRCLE
  5
AB
330
1F
100
AcDbEntity
  8
0
  6
Continuous
 62
     7
370
    15
100
AcDbCircle
 10
6.8280791745
 20
2.1795198086
 30
0.0
 40
0.0400000000000006
  0
CIRCLE
  5
AC
330
1F
100
AcDbEntity
  8
0
  6
Continuous
 62
     7
370
    15
100
AcDbCircle
 10
6.3281402344
 20
2.1873336492
 30
0.0
 40
0.1399999999999998
  0
LINE
  5
AD
330
1F
100
AcDbEntity
  8
0
  6
Continuous
 62
     7
370
    15
100
AcDbLine
 10
6.2272421213
 20
2.9305154837
 30
0.0
 11
3.7779964085
 21
2.597993725
 31
0.0
  0
ARC
  5
AE
330
1F
100
AcDbEntity
  8
0
  6
Continuous
 62
     7
370
    15
100
AcDbCircle
 10
6.3281402344
 20
2.1873336492
 30
0.0
 40
0.7500000000000009
100
AcDbArc
 50
260.4776368164
 51
97.7314899337
  0
LINE
  5
AF
330
1F
100
AcDbEntity
  8
0
  6
Continuous
 62
     7
370
    15
100
AcDbLine
 10
3.7664082624
 20
1.8565700233
 30
0.0
 11
6.204065829
 21
1.4476680803
 31
0.0
  0
ARC
  5
B0
330
1F
100
AcDbEntity
  8
0
  6
Continuous
 62
     7
370
    15
100
AcDbCircle
 10
3.8284455335
 20
2.2264028521
 30
0.0
 40
0.3750000000000004
100
AcDbArc
 50
97.7314899337
 51
260.4776368164
  0
CIRCLE
  5
B1
330
1F
100
AcDbEntity
  8
0
  6
Continuous
 62
     7
370
    15
100
AcDbCircle
 10
3.8284455335
 20
2.2264028521
 30
0.0
 40
0.0624999999999989
  0
CIRCLE
  5
B2
330
1F
100
AcDbEntity
  8
0
  6
Continuous
 62
     7
370
    15
100
AcDbCircle
 10
6.3359540749
 20
2.6872725894
 30
0.0
 40
0.0399999999999997
  0
CIRCLE
  5
B3
330
1F
100
AcDbEntity
  8
0
  6
Continuous
 62
     7
370
    15
100
AcDbCircle
 10
6.3203263938
 20
1.687394709
 30
0.0
 40
0.0399999999999995
  0
CIRCLE
  5
B4
330
1F
100
AcDbEntity
  8
0
  6
Continuous
 62
     7
370
    15
100
AcDbCircle
 10
4.1272147548
 20
3.5889820852
 30
0.0
 40
0.0399999999999997
  0
CIRCLE
  5
B5
330
1F
100
AcDbEntity
  8
0
  6
Continuous
 62
     7
370
    15
100
AcDbCircle
 10
3.1273405949
 20
3.6048460175
 30
0.0
 40
0.0399999999999998
  0
CIRCLE
  5
B6
330
1F
100
AcDbEntity
  8
0
  6
Continuous
 62
     7
370
    15
100
AcDbCircle
 10
3.6272776748
 20
3.5969140514
 30
0.0
 40
0.1400000000000002
  0
LINE
  5
B7
330
1F
100
AcDbEntity
  8
0
  6
Continuous
 62
     7
370
    15
100
AcDbLine
 10
3.7280002261
 20
2.853708211
 30
0.0
 11
6.1773243313
 21
3.1856512297
 31
0.0
  0
ARC
  5
B8
330
1F
100
AcDbEntity
  8
0
  6
Continuous
 62
     7
370
    15
100
AcDbCircle
 10
3.6272776748
 20
3.5969140514
 30
0.0
 40
0.7500000000000008
100
AcDbArc
 50
80.464098943
 51
277.7179520603
  0
ARC
  5
B9
330
1F
100
AcDbEntity
  8
0
  6
Continuous
 62
     7
370
    15
100
AcDbCircle
 10
6.1269630746
 20
3.5572542205
 30
0.0
 40
0.3750000000000006
100
AcDbArc
 50
277.7179520603
 51
80.464098943
  0
CIRCLE
  5
BA
330
1F
100
AcDbEntity
  8
0
  6
Continuous
 62
     7
370
    15
100
AcDbCircle
 10
3.6193457087
 20
3.0969769714
 30
0.0
 40
0.0399999999999998
  0
CIRCLE
  5
BB
330
1F
100
AcDbEntity
  8
0
  6
Continuous
 62
     7
370
    15
100
AcDbCircle
 10
3.635209641
 20
4.0968511313
 30
0.0
 40
0.0399999999999993
  0
LINE
  5
BC
330
1F
100
AcDbEntity
  8
0
  6
Continuous
 62
     7
370
    15
100
AcDbLine
 10
6.1890876687
 20
3.9270725847
 30
0.0
 11
3.7515269009
 21
4.3365506277
 31
0.0
  0
CIRCLE
  5
BD
330
1F
100
AcDbEntity
  8
0
  6
Continuous
 62
     7
370
    15
100
AcDbCircle
 10
6.1269630746
 20
3.5572542205
 30
0.0
 40
0.0624999999999994
  0
CIRCLE
  5
BE
330
1F
100
AcDbEntity
  8
0
  6
Continuous
 62
     7
370
    15
100
AcDbCircle
 10
4.0748819566
 20
0.9173679566
 30
0.0
 40
0.0399999999999996
  0
CIRCLE
  5
BF
330
1F
100
AcDbEntity
  8
0
  6
Continuous
 62
     7
370
    15
100
AcDbCircle
 10
3.5750224186
 20
0.9292187908
 30
0.0
 40
0.1400000000000003
  0
LINE
  5
C0
330
1F
100
AcDbEntity
  8
0
  6
Continuous
 62
     7
370
    15
100
AcDbLine
 10
3.6699156171
 20
0.1852463973
 30
0.0
 11
6.1217667231
 21
0.4979783579
 31
0.0
  0
ARC
  5
C1
330
1F
100
AcDbEntity
  8
0
  6
Continuous
 62
     7
370
    15
100
AcDbCircle
 10
3.5750224186
 20
0.9292187908
 30
0.0
 40
0.7500000000000003
100
AcDbArc
 50
80.014940692
 51
277.2687938094
  0
LINE
  5
C2
330
1F
100
AcDbEntity
  8
0
  6
Continuous
 62
     7
370
    15
100
AcDbLine
 10
6.13934188
 20
1.2392847276
 30
0.0
 11
3.705065931
 21
1.66785855
 31
0.0
  0
ARC
  5
C3
330
1F
100
AcDbEntity
  8
0
  6
Continuous
 62
     7
370
    15
100
AcDbCircle
 10
6.0743201086
 20
0.8699646197
 30
0.0
 40
0.3750000000000014
100
AcDbArc
 50
277.2687938094
 51
80.014940692
  0
CIRCLE
  5
C4
330
1F
100
AcDbEntity
  8
0
  6
Continuous
 62
     7
370
    15
100
AcDbCircle
 10
6.0743201086
 20
0.8699646197
 30
0.0
 40
0.0624999999999986
  0
CIRCLE
  5
C5
330
1F
100
AcDbEntity
  8
0
  6
Continuous
 62
     7
370
    15
100
AcDbCircle
 10
3.5631715843
 20
0.4293592528
 30
0.0
 40
0.0399999999999997
  0
CIRCLE
  5
C6
330
1F
100
AcDbEntity
  8
0
  6
Continuous
 62
     7
370
    15
100
AcDbCircle
 10
3.5868732528
 20
1.4290783288
 30
0.0
 40
0.0399999999999997
  0
CIRCLE
  5
C7
330
1F
100
AcDbEntity
  8
0
  6
Continuous
 62
     7
370
    15
100
AcDbCircle
 10
3.0751628806
 20
0.941069625
 30
0.0
 40
0.0400000000000008
  0
LINE
  5
C8
330
1F
100
AcDbEntity
  8
0
  6
Continuous
 62
     7
370
    15
100
AcDbLine
 10
7.6273676202
 20
10.7722806016
 30
0.0
 11
6.4741995351
 21
11.2546740156
 31
0.0
  0
LINE
  5
C9
330
1F
100
AcDbEntity
  8
0
  6
Continuous
 62
     7
370
    15
100
AcDbLine
 10
7.3861709132
 20
10.195696449
 30
0.0
 11
7.6273676202
 21
10.7722806016
 31
0.0
  0
LINE
  5
CA
330
1F
100
AcDbEntity
  8
0
  6
Continuous
 62
     7
370
    15
100
AcDbLine
 10
7.2131957115
 20
10.2680555198
 30
0.0
 11
7.3861709132
 21
10.195696449
 31
0.0
  0
LINE
  5
CB
330
1F
100
AcDbEntity
  8
0
  6
Continuous
 62
     7
370
    15
100
AcDbLine
 10
7.2614351409
 20
10.383372321
 30
0.0
 11
7.2131957115
 21
10.2680555198
 31
0.0
  0
LINE
  5
CC
330
1F
100
AcDbEntity
  8
0
  6
Continuous
 62
     7
370
    15
100
AcDbLine
 10
7.1461183397
 20
10.4316116037
 30
0.0
 11
7.2614351409
 21
10.383372321
 31
0.0
  0
LINE
  5
CD
330
1F
100
AcDbEntity
  8
0
  6
Continuous
 62
     7
370
    15
100
AcDbLine
 10
7.2020758666
 20
10.5653791518
 30
0.0
 11
7.1461183397
 21
10.4316116037
 31
0.0
  0
LINE
  5
CE
330
1F
100
AcDbEntity
  8
0
  6
Continuous
 62
     7
370
    15
100
AcDbLine
 10
7.2597342672
 20
10.5412595104
 30
0.0
 11
7.2020758666
 21
10.5653791518
 31
0.0
  0
LINE
  5
CF
330
1F
100
AcDbEntity
  8
0
  6
Continuous
 62
     7
370
    15
100
AcDbLine
 10
7.3021849768
 20
10.6427381781
 30
0.0
 11
7.2597342672
 21
10.5412595104
 31
0.0
  0
LINE
  5
D0
330
1F
100
AcDbEntity
  8
0
  6
Continuous
 62
     7
370
    15
100
AcDbLine
 10
7.0715513744
 20
10.7392170369
 30
0.0
 11
7.3021849768
 21
10.6427381781
 31
0.0
  0
LINE
  5
D1
330
1F
100
AcDbEntity
  8
0
  6
Continuous
 62
     7
370
    15
100
AcDbLine
 10
7.0291006648
 20
10.6377380759
 30
0.0
 11
7.0715513744
 21
10.7392170369
 31
0.0
  0
LINE
  5
D2
330
1F
100
AcDbEntity
  8
0
  6
Continuous
 62
     7
370
    15
100
AcDbLine
 10
7.0867590654
 20
10.6136184345
 30
0.0
 11
7.0291006648
 21
10.6377380759
 31
0.0
  0
LINE
  5
D3
330
1F
100
AcDbEntity
  8
0
  6
Continuous
 62
     7
370
    15
100
AcDbLine
 10
7.0308015385
 20
10.4798508864
 30
0.0
 11
7.0867590654
 21
10.6136184345
 31
0.0
  0
LINE
  5
D4
330
1F
100
AcDbEntity
  8
0
  6
Continuous
 62
     7
370
    15
100
AcDbLine
 10
6.6848510616
 20
10.624569028
 30
0.0
 11
7.0308015385
 21
10.4798508864
 31
0.0
  0
LINE
  5
D5
330
1F
100
AcDbEntity
  8
0
  6
Continuous
 62
     7
370
    15
100
AcDbLine
 10
6.7408086618
 20
10.758336576
 30
0.0
 11
6.6848510616
 21
10.624569028
 31
0.0
  0
LINE
  5
D6
330
1F
100
AcDbEntity
  8
0
  6
Continuous
 62
     7
370
    15
100
AcDbLine
 10
6.7984670624
 20
10.7342169347
 30
0.0
 11
6.7408086618
 21
10.758336576
 31
0.0
  0
LINE
  5
D7
330
1F
100
AcDbEntity
  8
0
  6
Continuous
 62
     7
370
    15
100
AcDbLine
 10
6.8409176987
 20
10.8356956024
 30
0.0
 11
6.7984670624
 21
10.7342169347
 31
0.0
  0
LINE
  5
D8
330
1F
100
AcDbEntity
  8
0
  6
Continuous
 62
     7
370
    15
100
AcDbLine
 10
6.6102840963
 20
10.9321741678
 30
0.0
 11
6.8409176987
 21
10.8356956024
 31
0.0
  0
LINE
  5
D9
330
1F
100
AcDbEntity
  8
0
  6
Continuous
 62
     7
370
    15
100
AcDbLine
 10
6.5678334601
 20
10.8306955001
 30
0.0
 11
6.6102840963
 21
10.9321741678
 31
0.0
  0
LINE
  5
DA
330
1F
100
AcDbEntity
  8
0
  6
Continuous
 62
     7
370
    15
100
AcDbLine
 10
6.6254918607
 20
10.8065758588
 30
0.0
 11
6.5678334601
 21
10.8306955001
 31
0.0
  0
LINE
  5
DB
330
1F
100
AcDbEntity
  8
0
  6
Continuous
 62
     7
370
    15
100
AcDbLine
 10
6.5695342604
 20
10.6728083107
 30
0.0
 11
6.6254918607
 21
10.8065758588
 31
0.0
  0
LINE
  5
DC
330
1F
100
AcDbEntity
  8
0
  6
Continuous
 62
     7
370
    15
100
AcDbLine
 10
6.3965590586
 20
10.7451672348
 30
0.0
 11
6.5695342604
 21
10.6728083107
 31
0.0
  0
LINE
  5
DD
330
1F
100
AcDbEntity
  8
0
  6
Continuous
 62
     7
370
    15
100
AcDbLine
 10
6.3483197026
 20
10.6298504336
 30
0.0
 11
6.3965590586
 21
10.7451672348
 31
0.0
  0
LINE
  5
DE
330
1F
100
AcDbEntity
  8
0
  6
Continuous
 62
     7
370
    15
100
AcDbLine
 10
6.2330028647
 20
10.6780900097
 30
0.0
 11
6.3483197026
 21
10.6298504336
 31
0.0
  0
LINE
  5
DF
330
1F
100
AcDbEntity
  8
0
  6
Continuous
 62
     7
370
    15
100
AcDbLine
 10
0.51265641
 20
11.2553756609
 30
0.0
 11
0.3872338055
 21
10.9555519778
 31
0.0
  0
ARC
  5
E0
330
1F
100
AcDbEntity
  8
0
  6
Continuous
 62
     7
370
    15
100
AcDbCircle
 10
0.7894165273
 20
11.1396011261
 30
0.0
 40
0.2999999999999999
100
AcDbArc
 50
67.2994618345
 51
157.2994618345
  0
LINE
  5
E1
330
1F
100
AcDbEntity
  8
0
  6
Continuous
 62
     7
370
    15
100
AcDbLine
 10
1.3203313197
 20
11.2426997006
 30
0.0
 11
0.9051908354
 21
11.4163615878
 31
0.0
  0
SPLINE
  5
E2
330
1F
100
AcDbEntity
  8
0
  6
Continuous
 62
     7
370
    15
100
AcDbSpline
210
0.0
220
0.0
230
1.0
 70
     8
 71
     3
 72
    24
 73
    20
 74
     0
 42
0.00000001
 43
0.00000001
 40
0.0
 40
0.0
 40
0.0
 40
0.0
 40
0.040948182070849
 40
0.0848926477048829
 40
0.1319803339236936
 40
0.1821039636543914
 40
0.2349880489946988
 40
0.2902467995228107
 40
0.3807589017117816
 40
0.4740064823844933
 40
0.5678675083770538
 40
0.6299943955113337
 40
0.6908022972456189
 40
0.7496908678544736
 40
0.8061100604343635
 40
0.859589506708884
 40
0.9097833615415388
 40
0.9565386251100231
 40
1.0
 40
1.0
 40
1.0
 40
1.0
 10
6.474199535068222
 20
11.25467401562464
 30
0.0
 10
6.407343750547856
 20
11.27897907556498
 30
0.0
 10
6.268740172188724
 20
11.32936765905304
 30
0.0
 10
6.042738277611874
 20
11.37093036370998
 30
0.0
 10
5.799015543527085
 20
11.39529530749907
 30
0.0
 10
5.538510170679544
 20
11.40178676814827
 30
0.0
 10
5.264014538182129
 20
11.39406007190373
 30
0.0
 10
4.920164436881595
 20
11.37044691577429
 30
0.0
 10
4.507796527786923
 20
11.32663467670338
 30
0.0
 10
4.030223996570248
 20
11.264765675083
 30
0.0
 10
3.601742199024516
 20
11.20724989738547
 30
0.0
 10
3.228484029497317
 20
11.16139406236628
 30
0.0
 10
2.91479272070967
 20
11.12848113773612
 30
0.0
 10
2.610149436953229
 20
11.10493850187243
 30
0.0
 10
2.317504784938584
 20
11.0938847325221
 30
0.0
 10
2.039588016152055
 20
11.09801963995843
 30
0.0
 10
1.779629449464991
 20
11.12153840831133
 30
0.0
 10
1.538781997419874
 20
11.16381687389216
 30
0.0
 10
1.391353970006936
 20
11.2170533282738
 30
0.0
 10
1.320331319660309
 20
11.24269970061962
 30
0.0
  0
CIRCLE
  5
E3
330
1F
100
AcDbEntity
  8
0
  6
Continuous
 62
     7
370
    15
100
AcDbCircle
 10
0.8540114804
 20
11.2616256811
 30
0.0
 40
0.0400000000000008
  0
CIRCLE
  5
E4
330
1F
100
AcDbEntity
  8
0
  6
Continuous
 62
     7
370
    15
100
AcDbCircle
 10
0.7382370682
 20
10.9848653417
 30
0.0
 40
0.0400000000000018
  0
LINE
  5
E5
330
1F
100
AcDbEntity
  8
0
  6
Continuous
 62
     7
370
    15
100
AcDbLine
 10
0.3872338055
 20
10.9555519778
 30
0.0
 11
0.8023742898
 21
10.7818900906
 31
0.0
  0
SPLINE
  5
E6
330
1F
100
AcDbEntity
  8
0
  6
Continuous
 62
     7
370
    15
100
AcDbSpline
210
0.0
220
0.0
230
1.0
 70
     8
 71
     3
 72
    24
 73
    20
 74
     0
 42
0.00000001
 43
0.00000001
 40
0.0
 40
0.0
 40
0.0
 40
0.0
 40
0.0495357393610995
 40
0.1004544963679004
 40
0.1529590988099367
 40
0.2070653641470629
 40
0.2626456512738273
 40
0.3194649646430539
 40
0.4104773279179068
 40
0.502287776782235
 40
0.5932282846956363
 40
0.6527733152454573
 40
0.71062880167838
 40
0.7663004206354153
 40
0.819339466575076
 40
0.86937339998637
 40
0.9161516424530817
 40
0.9596151884929955
 40
1.0
 40
1.0
 40
1.0
 40
1.0
 10
0.8023742898107836
 20
10.78189009059822
 30
0.0
 10
0.8872280001632343
 20
10.74990521943952
 30
0.0
 10
1.059304501863681
 20
10.6850424725606
 30
0.0
 10
1.332798414469082
 20
10.62289791984382
 30
0.0
 10
1.617990114245757
 20
10.58106788390294
 30
0.0
 10
1.914071177999841
 20
10.55962263871833
 30
0.0
 10
2.218648911765512
 20
10.55485486394999
 30
0.0
 10
2.590575698053474
 20
10.56601111162115
 30
0.0
 10
3.027743438665271
 20
10.59891416326398
 30
0.0
 10
3.525503225177658
 20
10.6528885065572
 30
0.0
 10
3.965338845087244
 20
10.70658133084561
 30
0.0
 10
4.343766529690799
 20
10.75086289371753
 30
0.0
 10
4.658611021864766
 20
10.78340637845051
 30
0.0
 10
4.962322841262644
 20
10.8074448801114
 30
0.0
 10
5.252436631506948
 20
10.81966017074083
 30
0.0
 10
5.526713239657243
 20
10.81715457627474
 30
0.0
 10
5.782410732553178
 20
10.79551887996116
 30
0.0
 10
6.018871456932753
 20
10.75516654911193
 30
0.0
 10
6.163394590162062
 20
10.70314548836112
 30
0.0
 10
6.233002864726073
 20
10.67809000970562
 30
0.0
  0
CIRCLE
  5
E7
330
1F
100
AcDbEntity
  8
0
  6
Continuous
 62
     7
370
    15
100
AcDbCircle
 10
0.8746322617
 20
11.8224737433
 30
0.0
 40
0.0400000000000008
  0
LINE
  5
E8
330
1F
100
AcDbEntity
  8
0
  6
Continuous
 62
     7
370
    15
100
AcDbLine
 10
7.7637628179
 20
11.6098889522
 30
0.0
 11
6.6105947328
 21
12.0922823662
 31
0.0
  0
LINE
  5
E9
330
1F
100
AcDbEntity
  8
0
  6
Continuous
 62
     7
370
    15
100
AcDbLine
 10
7.5225661109
 20
11.0333049462
 30
0.0
 11
7.7637628179
 21
11.6098889522
 31
0.0
  0
LINE
  5
EA
330
1F
100
AcDbEntity
  8
0
  6
Continuous
 62
     7
370
    15
100
AcDbLine
 10
7.3495909091
 20
11.1056638703
 30
0.0
 11
7.5225661109
 21
11.0333049462
 31
0.0
  0
LINE
  5
EB
330
1F
100
AcDbEntity
  8
0
  6
Continuous
 62
     7
370
    15
100
AcDbLine
 10
7.3978303385
 20
11.2209806715
 30
0.0
 11
7.3495909091
 21
11.1056638703
 31
0.0
  0
LINE
  5
EC
330
1F
100
AcDbEntity
  8
0
  6
Continuous
 62
     7
370
    15
100
AcDbLine
 10
7.2825135374
 20
11.2692199543
 30
0.0
 11
7.3978303385
 21
11.2209806715
 31
0.0
  0
LINE
  5
ED
330
1F
100
AcDbEntity
  8
0
  6
Continuous
 62
     7
370
    15
100
AcDbLine
 10
7.3384710643
 20
11.4029875023
 30
0.0
 11
7.2825135374
 21
11.2692199543
 31
0.0
  0
LINE
  5
EE
330
1F
100
AcDbEntity
  8
0
  6
Continuous
 62
     7
370
    15
100
AcDbLine
 10
7.3961294649
 20
11.3788678609
 30
0.0
 11
7.3384710643
 21
11.4029875023
 31
0.0
  0
LINE
  5
EF
330
1F
100
AcDbEntity
  8
0
  6
Continuous
 62
     7
370
    15
100
AcDbLine
 10
7.4385801745
 20
11.4803465286
 30
0.0
 11
7.3961294649
 21
11.3788678609
 31
0.0
  0
LINE
  5
F0
330
1F
100
AcDbEntity
  8
0
  6
Continuous
 62
     7
370
    15
100
AcDbLine
 10
7.2079465721
 20
11.5768253874
 30
0.0
 11
7.4385801745
 21
11.4803465286
 31
0.0
  0
LINE
  5
F1
330
1F
100
AcDbEntity
  8
0
  6
Continuous
 62
     7
370
    15
100
AcDbLine
 10
7.1654958625
 20
11.4753464264
 30
0.0
 11
7.2079465721
 21
11.5768253874
 31
0.0
  0
LINE
  5
F2
330
1F
100
AcDbEntity
  8
0
  6
Continuous
 62
     7
370
    15
100
AcDbLine
 10
7.2231542631
 20
11.451226785
 30
0.0
 11
7.1654958625
 21
11.4753464264
 31
0.0
  0
LINE
  5
F3
330
1F
100
AcDbEntity
  8
0
  6
Continuous
 62
     7
370
    15
100
AcDbLine
 10
7.1671967362
 20
11.3174595303
 30
0.0
 11
7.2231542631
 21
11.451226785
 31
0.0
  0
LINE
  5
F4
330
1F
100
AcDbEntity
  8
0
  6
Continuous
 62
     7
370
    15
100
AcDbLine
 10
6.8212462593
 20
11.4621773785
 30
0.0
 11
7.1671967362
 21
11.3174595303
 31
0.0
  0
LINE
  5
F5
330
1F
100
AcDbEntity
  8
0
  6
Continuous
 62
     7
370
    15
100
AcDbLine
 10
6.8772038595
 20
11.5959449266
 30
0.0
 11
6.8212462593
 21
11.4621773785
 31
0.0
  0
LINE
  5
F6
330
1F
100
AcDbEntity
  8
0
  6
Continuous
 62
     7
370
    15
100
AcDbLine
 10
6.9348622601
 20
11.5718252852
 30
0.0
 11
6.8772038595
 21
11.5959449266
 31
0.0
  0
LINE
  5
F7
330
1F
100
AcDbEntity
  8
0
  6
Continuous
 62
     7
370
    15
100
AcDbLine
 10
6.9773128231
 20
11.6733039529
 30
0.0
 11
6.9348622601
 21
11.5718252852
 31
0.0
  0
LINE
  5
F8
330
1F
100
AcDbEntity
  8
0
  6
Continuous
 62
     7
370
    15
100
AcDbLine
 10
6.746679294
 20
11.7697828117
 30
0.0
 11
6.9773128231
 21
11.6733039529
 31
0.0
  0
LINE
  5
F9
330
1F
100
AcDbEntity
  8
0
  6
Continuous
 62
     7
370
    15
100
AcDbLine
 10
6.7042286578
 20
11.6683038507
 30
0.0
 11
6.746679294
 21
11.7697828117
 31
0.0
  0
LINE
  5
FA
330
1F
100
AcDbEntity
  8
0
  6
Continuous
 62
     7
370
    15
100
AcDbLine
 10
6.7618870583
 20
11.6441842093
 30
0.0
 11
6.7042286578
 21
11.6683038507
 31
0.0
  0
LINE
  5
FB
330
1F
100
AcDbEntity
  8
0
  6
Continuous
 62
     7
370
    15
100
AcDbLine
 10
6.7059294581
 20
11.5104166613
 30
0.0
 11
6.7618870583
 21
11.6441842093
 31
0.0
  0
LINE
  5
FC
330
1F
100
AcDbEntity
  8
0
  6
Continuous
 62
     7
370
    15
100
AcDbLine
 10
6.532954183
 20
11.5827758787
 30
0.0
 11
6.7059294581
 21
11.5104166613
 31
0.0
  0
LINE
  5
FD
330
1F
100
AcDbEntity
  8
0
  6
Continuous
 62
     7
370
    15
100
AcDbLine
 10
6.4847149003
 20
11.4674590775
 30
0.0
 11
6.532954183
 21
11.5827758787
 31
0.0
  0
LINE
  5
FE
330
1F
100
AcDbEntity
  8
0
  6
Continuous
 62
     7
370
    15
100
AcDbLine
 10
6.3693980991
 20
11.5156983602
 30
0.0
 11
6.4847149003
 21
11.4674590775
 31
0.0
  0
SPLINE
  5
FF
330
1F
100
AcDbEntity
  8
0
  6
Continuous
 62
     7
370
    15
100
AcDbSpline
210
0.0
220
0.0
230
1.0
 70
     8
 71
     3
 72
    24
 73
    20
 74
     0
 42
0.00000001
 43
0.00000001
 40
0.0
 40
0.0
 40
0.0
 40
0.0
 40
0.0495357561011431
 40
0.1004545120932506
 40
0.1529591056692059
 40
0.2070653739552262
 40
0.2626456599744035
 40
0.3194649737124517
 40
0.4104773580289217
 40
0.5022877784771709
 40
0.5932282908852475
 40
0.6527733273991865
 40
0.7106287993809475
 40
0.7663004279842917
 40
0.8193394640886257
 40
0.8693733965028586
 40
0.916151634708379
 40
0.95961517659807
 40
1.0
 40
1.0
 40
1.0
 40
1.0
 10
0.9387694874951542
 20
11.61949873447169
 30
0.0
 10
1.023623190786003
 20
11.5875137514217
 30
0.0
 10
1.195699646951996
 20
11.52265078940217
 30
0.0
 10
1.469193588167936
 20
11.46050616790717
 30
0.0
 10
1.754385355604086
 20
11.41867672432378
 30
0.0
 10
2.050466355148589
 20
11.39723087931831
 30
0.0
 10
2.355044119149637
 20
11.39246314134486
 30
0.0
 10
2.726970924194327
 20
11.40361997882445
 30
0.0
 10
3.164138698897698
 20
11.43652237332924
 30
0.0
 10
3.661898498596927
 20
11.49049675279376
 30
0.0
 10
4.101734018054911
 20
11.54419018992498
 30
0.0
 10
4.480161774199751
 20
11.58847116477735
 30
0.0
 10
4.795006269547972
 20
11.62101462102985
 30
0.0
 10
5.098718028711543
 20
11.64505372719844
 30
0.0
 10
5.388831850905356
 20
11.65726839905311
 30
0.0
 10
5.663108429663303
 20
11.65476295623837
 30
0.0
 10
5.91880591322258
 20
11.63312722623363
 30
0.0
 10
6.155266644031328
 20
11.59277488717522
 30
0.0
 10
6.299789799654087
 20
11.54075383826655
 30
0.0
 10
6.369398099076687
 20
11.51569836024914
 30
0.0
  0
LINE
  5
100
330
1F
100
AcDbEntity
  8
0
  6
Continuous
 62
     7
370
    15
100
AcDbLine
 10
0.5236292966
 20
11.7931603283
 30
0.0
 11
0.9387694875
 21
11.6194987345
 31
0.0
  0
LINE
  5
101
330
1F
100
AcDbEntity
  8
0
  6
Continuous
 62
     7
370
    15
100
AcDbLine
 10
0.6490513143
 20
12.0929840114
 30
0.0
 11
0.5236292966
 21
11.7931603283
 31
0.0
  0
ARC
  5
102
330
1F
100
AcDbEntity
  8
0
  6
Continuous
 62
     7
370
    15
100
AcDbCircle
 10
0.9258117209
 20
11.9772095277
 30
0.0
 40
0.3000000000000007
100
AcDbArc
 50
67.2994618345
 51
157.2994618345
  0
LINE
  5
103
330
1F
100
AcDbEntity
  8
0
  6
Continuous
 62
     7
370
    15
100
AcDbLine
 10
1.4567265173
 20
12.0803083445
 30
0.0
 11
1.0415860331
 21
12.2539699383
 31
0.0
  0
SPLINE
  5
104
330
1F
100
AcDbEntity
  8
0
  6
Continuous
 62
     7
370
    15
100
AcDbSpline
210
0.0
220
0.0
230
1.0
 70
     8
 71
     3
 72
    24
 73
    20
 74
     0
 42
0.00000001
 43
0.00000001
 40
0.0
 40
0.0
 40
0.0
 40
0.0
 40
0.0409481812217821
 40
0.0848926459446207
 40
0.131980331187061
 40
0.1821039632819011
 40
0.2349880472102679
 40
0.2902467895620379
 40
0.3807588968837388
 40
0.4740064756229475
 40
0.567867499669285
 40
0.6299943855153544
 40
0.6908022859887784
 40
0.7496908553765693
 40
0.8061100467865986
 40
0.8595894919522146
 40
0.9097833457440921
 40
0.9565386083430989
 40
1.0
 40
1.0
 40
1.0
 40
1.0
 10
6.610594732752593
 20
12.09228236616817
 30
0.0
 10
6.543738948192189
 20
12.11658742393102
 30
0.0
 10
6.405135369750052
 20
12.16697600290476
 30
0.0
 10
6.179133475846755
 20
12.20853874419375
 30
0.0
 10
5.935410733049475
 20
12.23290353433077
 30
0.0
 10
5.674905366418098
 20
12.2393956265672
 30
0.0
 10
5.400409749353036
 20
12.23166828002863
 30
0.0
 10
5.056559646241615
 20
12.20805532977028
 30
0.0
 10
4.644191737659715
 20
12.16424300816517
 30
0.0
 10
4.166619194216738
 20
12.10237403133974
 30
0.0
 10
3.738137396721083
 20
12.04485824697534
 30
0.0
 10
3.364879227166148
 20
11.99900241307615
 30
0.0
 10
3.051187918446213
 20
11.96608948838253
 30
0.0
 10
2.746544634453846
 20
11.94254685187463
 30
0.0
 10
2.453899983262927
 20
11.93149308499561
 30
0.0
 10
2.175983211641101
 20
11.9356279838705
 30
0.0
 10
1.916024654577958
 20
11.95914678129718
 30
0.0
 10
1.675177139883557
 20
12.00142515448677
 30
0.0
 10
1.527749159836391
 20
12.05466185039153
 30
0.0
 10
1.45672651734468
 20
12.08030834449309
 30
0.0
  0
CIRCLE
  5
105
330
1F
100
AcDbEntity
  8
0
  6
Continuous
 62
     7
370
    15
100
AcDbCircle
 10
0.9904066739
 20
12.0992340827
 30
0.0
 40
0.0400000000000008
  0
CIRCLE
  5
106
330
1F
100
AcDbEntity
  8
0
  6
Continuous
 62
     7
370
    15
100
AcDbCircle
 10
1.1851608916
 20
12.6444899125
 30
0.0
 40
0.0400000000000002
  0
LINE
  5
107
330
1F
100
AcDbEntity
  8
0
  6
Continuous
 62
     7
370
    15
100
AcDbLine
 10
8.0742914307
 20
12.4319050562
 30
0.0
 11
6.9211234188
 21
12.9142987635
 31
0.0
  0
LINE
  5
108
330
1F
100
AcDbEntity
  8
0
  6
Continuous
 62
     7
370
    15
100
AcDbLine
 10
7.8330947237
 20
11.8553210502
 30
0.0
 11
8.0742914307
 21
12.4319050562
 31
0.0
  0
LINE
  5
109
330
1F
100
AcDbEntity
  8
0
  6
Continuous
 62
     7
370
    15
100
AcDbLine
 10
7.6601195219
 20
11.9276799743
 30
0.0
 11
7.8330947237
 21
11.8553210502
 31
0.0
  0
LINE
  5
10A
330
1F
100
AcDbEntity
  8
0
  6
Continuous
 62
     7
370
    15
100
AcDbLine
 10
7.7083589513
 20
12.0429967755
 30
0.0
 11
7.6601195219
 21
11.9276799743
 31
0.0
  0
LINE
  5
10B
330
1F
100
AcDbEntity
  8
0
  6
Continuous
 62
     7
370
    15
100
AcDbLine
 10
7.5930421501
 20
12.0912363516
 30
0.0
 11
7.7083589513
 21
12.0429967755
 31
0.0
  0
LINE
  5
10C
330
1F
100
AcDbEntity
  8
0
  6
Continuous
 62
     7
370
    15
100
AcDbLine
 10
7.648999677
 20
12.2250036063
 30
0.0
 11
7.5930421501
 21
12.0912363516
 31
0.0
  0
LINE
  5
10D
330
1F
100
AcDbEntity
  8
0
  6
Continuous
 62
     7
370
    15
100
AcDbLine
 10
7.7066580776
 20
12.2008839649
 30
0.0
 11
7.648999677
 21
12.2250036063
 31
0.0
  0
LINE
  5
10E
330
1F
100
AcDbEntity
  8
0
  6
Continuous
 62
     7
370
    15
100
AcDbLine
 10
7.7491087872
 20
12.302362926
 30
0.0
 11
7.7066580776
 21
12.2008839649
 31
0.0
  0
LINE
  5
10F
330
1F
100
AcDbEntity
  8
0
  6
Continuous
 62
     7
370
    15
100
AcDbLine
 10
7.5184751848
 20
12.3988414914
 30
0.0
 11
7.7491087872
 21
12.302362926
 31
0.0
  0
LINE
  5
110
330
1F
100
AcDbEntity
  8
0
  6
Continuous
 62
     7
370
    15
100
AcDbLine
 10
7.4760244752
 20
12.2973628237
 30
0.0
 11
7.5184751848
 21
12.3988414914
 31
0.0
  0
LINE
  5
111
330
1F
100
AcDbEntity
  8
0
  6
Continuous
 62
     7
370
    15
100
AcDbLine
 10
7.5336828758
 20
12.2732431824
 30
0.0
 11
7.4760244752
 21
12.2973628237
 31
0.0
  0
LINE
  5
112
330
1F
100
AcDbEntity
  8
0
  6
Continuous
 62
     7
370
    15
100
AcDbLine
 10
7.4777253489
 20
12.1394756343
 30
0.0
 11
7.5336828758
 21
12.2732431824
 31
0.0
  0
LINE
  5
113
330
1F
100
AcDbEntity
  8
0
  6
Continuous
 62
     7
370
    15
100
AcDbLine
 10
7.1317747987
 20
12.2841934825
 30
0.0
 11
7.4777253489
 21
12.1394756343
 31
0.0
  0
LINE
  5
114
330
1F
100
AcDbEntity
  8
0
  6
Continuous
 62
     7
370
    15
100
AcDbLine
 10
7.1877324723
 20
12.4179610306
 30
0.0
 11
7.1317747987
 21
12.2841934825
 31
0.0
  0
LINE
  5
115
330
1F
100
AcDbEntity
  8
0
  6
Continuous
 62
     7
370
    15
100
AcDbLine
 10
7.2453908729
 20
12.3938413892
 30
0.0
 11
7.1877324723
 21
12.4179610306
 31
0.0
  0
LINE
  5
116
330
1F
100
AcDbEntity
  8
0
  6
Continuous
 62
     7
370
    15
100
AcDbLine
 10
7.2878415825
 20
12.4953200569
 30
0.0
 11
7.2453908729
 21
12.3938413892
 31
0.0
  0
LINE
  5
117
330
1F
100
AcDbEntity
  8
0
  6
Continuous
 62
     7
370
    15
100
AcDbLine
 10
7.0572079801
 20
12.5917989157
 30
0.0
 11
7.2878415825
 21
12.4953200569
 31
0.0
  0
LINE
  5
118
330
1F
100
AcDbEntity
  8
0
  6
Continuous
 62
     7
370
    15
100
AcDbLine
 10
7.0147572705
 20
12.4903199547
 30
0.0
 11
7.0572079801
 21
12.5917989157
 31
0.0
  0
LINE
  5
119
330
1F
100
AcDbEntity
  8
0
  6
Continuous
 62
     7
370
    15
100
AcDbLine
 10
7.0724156711
 20
12.4662003133
 30
0.0
 11
7.0147572705
 21
12.4903199547
 31
0.0
  0
LINE
  5
11A
330
1F
100
AcDbEntity
  8
0
  6
Continuous
 62
     7
370
    15
100
AcDbLine
 10
7.0164579975
 20
12.3324327653
 30
0.0
 11
7.0724156711
 21
12.4662003133
 31
0.0
  0
LINE
  5
11B
330
1F
100
AcDbEntity
  8
0
  6
Continuous
 62
     7
370
    15
100
AcDbLine
 10
6.8434828691
 20
12.4047919827
 30
0.0
 11
7.0164579975
 21
12.3324327653
 31
0.0
  0
LINE
  5
11C
330
1F
100
AcDbEntity
  8
0
  6
Continuous
 62
     7
370
    15
100
AcDbLine
 10
6.795243513
 20
12.2894751815
 30
0.0
 11
6.8434828691
 21
12.4047919827
 31
0.0
  0
LINE
  5
11D
330
1F
100
AcDbEntity
  8
0
  6
Continuous
 62
     7
370
    15
100
AcDbLine
 10
6.6799267118
 20
12.3377144642
 30
0.0
 11
6.795243513
 21
12.2894751815
 31
0.0
  0
LINE
  5
11E
330
1F
100
AcDbEntity
  8
0
  6
Continuous
 62
     7
370
    15
100
AcDbLine
 10
0.8341577626
 20
12.6151764323
 30
0.0
 11
1.2492982469
 21
12.4415148385
 31
0.0
  0
LINE
  5
11F
330
1F
100
AcDbEntity
  8
0
  6
Continuous
 62
     7
370
    15
100
AcDbLine
 10
1.7672552768
 20
12.9023244485
 30
0.0
 11
1.3521147925
 21
13.075985749
 31
0.0
  0
SPLINE
  5
120
330
1F
100
AcDbEntity
  8
0
  6
Continuous
 62
     7
370
    15
100
AcDbSpline
210
0.0
220
0.0
230
1.0
 70
     8
 71
     3
 72
    24
 73
    20
 74
     0
 42
0.00000001
 43
0.00000001
 40
0.0
 40
0.0
 40
0.0
 40
0.0
 40
0.0409481785523249
 40
0.0848926452013486
 40
0.1319803325077485
 40
0.1821039597565468
 40
0.2349880512857543
 40
0.2902467978172756
 40
0.3807589091063265
 40
0.4740064990001293
 40
0.5678675271606075
 40
0.6299943741715512
 40
0.690802305345753
 40
0.749690849209557
 40
0.806110045074366
 40
0.8595895489421516
 40
0.9097833488067164
 40
0.9565386241061913
 40
1.0
 40
1.0
 40
1.0
 40
1.0
 10
6.921123418832046
 20
12.91429876349794
 30
0.0
 10
6.854267601525016
 20
12.93860369854896
 30
0.0
 10
6.71566394737128
 20
12.98899202596363
 30
0.0
 10
6.489662096766253
 20
13.030554872644
 30
0.0
 10
6.245939355531788
 20
13.05491963001754
 30
0.0
 10
5.985433995244679
 20
13.0614117322789
 30
0.0
 10
5.710938376864331
 20
13.05368438610172
 30
0.0
 10
5.36708826362996
 20
13.03007142277179
 30
0.0
 10
4.954720328167395
 20
12.98625918872726
 30
0.0
 10
4.477147820812046
 20
12.92438983500968
 30
0.0
 10
4.048666117398448
 20
12.86687376342794
 30
0.0
 10
3.675407844480871
 20
12.82101898497902
 30
0.0
 10
3.361716634046516
 20
12.78810582410846
 30
0.0
 10
3.057073337340274
 20
12.76456336740433
 30
0.0
 10
2.764428650109875
 20
12.75350907938268
 30
0.0
 10
2.486511878980077
 20
12.75764412878202
 30
0.0
 10
2.226553271575439
 20
12.7811627721914
 30
0.0
 10
1.985705988785846
 20
12.82344170370658
 30
0.0
 10
1.838277932586113
 20
12.87667810483121
 30
0.0
 10
1.767255276756619
 20
12.90232444849291
 30
0.0
  0
CIRCLE
  5
121
330
1F
100
AcDbEntity
  8
0
  6
Continuous
 62
     7
370
    15
100
AcDbCircle
 10
1.3009353038
 20
12.9212502519
 30
0.0
 40
0.0400000000000008
  0
SPLINE
  5
122
330
1F
100
AcDbEntity
  8
0
  6
Continuous
 62
     7
370
    15
100
AcDbSpline
210
0.0
220
0.0
230
1.0
 70
     8
 71
     3
 72
    24
 73
    20
 74
     0
 42
0.00000001
 43
0.00000001
 40
0.0
 40
0.0
 40
0.0
 40
0.0
 40
0.0495357576193798
 40
0.1004545027866013
 40
0.1529590529003791
 40
0.207065376158976
 40
0.2626456638816507
 40
0.319464925916112
 40
0.4104773396871621
 40
0.5022877629493373
 40
0.5932282781446778
 40
0.652773316483631
 40
0.7106287902386222
 40
0.7663004205482634
 40
0.8193394616172616
 40
0.869373395565
 40
0.916151635204241
 40
0.9596151817101543
 40
1.0
 40
1.0
 40
1.0
 40
1.0
 10
1.249298246907094
 20
12.44151483847152
 30
0.0
 10
1.334151941629797
 20
12.40952981600538
 30
0.0
 10
1.506228359204167
 20
12.34466678205034
 30
0.0
 10
1.779722330772563
 20
12.28252279813422
 30
0.0
 10
2.064913974566673
 20
12.24069264668261
 30
0.0
 10
2.360995024864236
 20
12.21924703967787
 30
0.0
 10
2.665572778789402
 20
12.21447922747945
 30
0.0
 10
3.037499537253774
 20
12.22563610419592
 30
0.0
 10
3.474667263112519
 20
12.25853846535371
 30
0.0
 10
3.972427111357295
 20
12.31251285860912
 30
0.0
 10
4.412262630799344
 20
12.36620629361332
 30
0.0
 10
4.790690386947917
 20
12.4104872688624
 30
0.0
 10
5.105534882292197
 20
12.44303072493759
 30
0.0
 10
5.409246647556082
 20
12.46706983195026
 30
0.0
 10
5.699360475831488
 20
12.4792845025427
 30
0.0
 10
5.973637060928386
 20
12.47677906109933
 30
0.0
 10
6.229334549656481
 20
12.45514332708437
 30
0.0
 10
6.465795277605738
 20
12.41479099965664
 30
0.0
 10
6.610318424840652
 20
12.3627699429829
 30
0.0
 10
6.679926711823654
 20
12.33771446424896
 30
0.0
  0
LINE
  5
123
330
1F
100
AcDbEntity
  8
0
  6
Continuous
 62
     7
370
    15
100
AcDbLine
 10
0.9595800738
 20
12.9149998221
 30
0.0
 11
0.8341577626
 21
12.6151764323
 31
0.0
  0
ARC
  5
124
330
1F
100
AcDbEntity
  8
0
  6
Continuous
 62
     7
370
    15
100
AcDbCircle
 10
1.2363403507
 20
12.7992256969
 30
0.0
 40
0.3000000000000004
100
AcDbArc
 50
67.2994618345
 51
157.2994618345
  0
CIRCLE
  5
125
330
1F
100
AcDbEntity
  8
0
  6
Continuous
 62
     7
370
    15
100
AcDbCircle
 10
0.5942272606
 20
9.910496186
 30
0.0
 40
0.0624999999999997
  0
CIRCLE
  5
126
330
1F
100
AcDbEntity
  8
0
  6
Continuous
 62
     7
370
    15
100
AcDbCircle
 10
0.5942272606
 20
10.210496186
 30
0.0
 40
0.0624999999999997
  0
LINE
  5
127
330
1F
100
AcDbEntity
  8
0
  6
Continuous
 62
     7
370
    15
100
AcDbLine
 10
0.281727131
 20
0.372996335
 30
0.0
 11
0.7817273817
 21
0.372996335
 31
0.0
  0
ARC
  5
128
330
1F
100
AcDbEntity
  8
0
  6
Continuous
 62
     7
370
    15
100
AcDbCircle
 10
0.5817272606
 20
10.072996186
 30
0.0
 40
0.3000000000000006
100
AcDbArc
 50
90.0
 51
180.0
  0
LINE
  5
129
330
1F
100
AcDbEntity
  8
0
  6
Continuous
 62
     7
370
    15
100
AcDbLine
 10
1.0317272136
 20
10.3729960675
 30
0.0
 11
0.5817273987
 21
10.3729960675
 31
0.0
  0
LINE
  5
12A
330
1F
100
AcDbEntity
  8
0
  6
Continuous
 62
     7
370
    15
100
AcDbLine
 10
0.7817273817
 20
0.372996335
 30
0.0
 11
1.0317272136
 21
10.3729960675
 31
0.0
  0
LINE
  5
12B
330
1F
100
AcDbEntity
  8
0
  6
Continuous
 62
     7
370
    15
100
AcDbLine
 10
0.281727131
 20
10.0729962398
 30
0.0
 11
0.281727131
 21
0.372996335
 31
0.0
  0
CIRCLE
  5
12C
330
1F
100
AcDbEntity
  8
0
  6
Continuous
 62
     7
370
    15
100
AcDbCircle
 10
1.5741074497
 20
9.910496186
 30
0.0
 40
0.0625000000000002
  0
LINE
  5
12D
330
1F
100
AcDbEntity
  8
0
  6
Continuous
 62
     7
370
    15
100
AcDbLine
 10
1.2616075447
 20
0.372996335
 30
0.0
 11
1.761607502
 21
0.372996335
 31
0.0
  0
LINE
  5
12E
330
1F
100
AcDbEntity
  8
0
  6
Continuous
 62
     7
370
    15
100
AcDbLine
 10
1.2616075447
 20
10.0729962398
 30
0.0
 11
1.2616075447
 21
0.372996335
 31
0.0
  0
ARC
  5
12F
330
1F
100
AcDbEntity
  8
0
  6
Continuous
 62
     7
370
    15
100
AcDbCircle
 10
1.5616074497
 20
10.072996186
 30
0.0
 40
0.3
100
AcDbArc
 50
90.0
 51
180.0
  0
LINE
  5
130
330
1F
100
AcDbEntity
  8
0
  6
Continuous
 62
     7
370
    15
100
AcDbLine
 10
2.011607334
 20
10.3729960675
 30
0.0
 11
1.5616075191
 21
10.3729960675
 31
0.0
  0
LINE
  5
131
330
1F
100
AcDbEntity
  8
0
  6
Continuous
 62
     7
370
    15
100
AcDbLine
 10
1.761607502
 20
0.372996335
 30
0.0
 11
2.011607334
 21
10.3729960675
 31
0.0
  0
CIRCLE
  5
132
330
1F
100
AcDbEntity
  8
0
  6
Continuous
 62
     7
370
    15
100
AcDbCircle
 10
1.5741074497
 20
10.210496186
 30
0.0
 40
0.0625000000000002
  0
LINE
  5
133
330
1F
100
AcDbEntity
  8
0
  6
Continuous
 62
     7
370
    15
100
AcDbLine
 10
2.1787086036
 20
0.372996335
 30
0.0
 11
2.6787088542
 21
0.372996335
 31
0.0
  0
ARC
  5
134
330
1F
100
AcDbEntity
  8
0
  6
Continuous
 62
     7
370
    15
100
AcDbCircle
 10
2.4787087102
 20
10.072996186
 30
0.0
 40
0.3000000000000003
100
AcDbArc
 50
90.0
 51
180.0
  0
LINE
  5
135
330
1F
100
AcDbEntity
  8
0
  6
Continuous
 62
     7
370
    15
100
AcDbLine
 10
2.6787088542
 20
0.372996335
 30
0.0
 11
2.9287086862
 21
10.3729960675
 31
0.0
  0
CIRCLE
  5
136
330
1F
100
AcDbEntity
  8
0
  6
Continuous
 62
     7
370
    15
100
AcDbCircle
 10
2.4912087102
 20
10.210496186
 30
0.0
 40
0.0625000000000004
  0
CIRCLE
  5
137
330
1F
100
AcDbEntity
  8
0
  6
Continuous
 62
     7
370
    15
100
AcDbCircle
 10
2.4912087102
 20
9.910496186
 30
0.0
 40
0.0625000000000004
  0
LINE
  5
138
330
1F
100
AcDbEntity
  8
0
  6
Continuous
 62
     7
370
    15
100
AcDbLine
 10
2.9287086862
 20
10.3729960675
 30
0.0
 11
2.478708578
 21
10.3729960675
 31
0.0
  0
LINE
  5
139
330
1F
100
AcDbEntity
  8
0
  6
Continuous
 62
     7
370
    15
100
AcDbLine
 10
2.1787086036
 20
10.0729962398
 30
0.0
 11
2.1787086036
 21
0.372996335
 31
0.0
  0
CIRCLE
  5
13A
330
1F
100
AcDbEntity
  8
0
  6
Continuous
 62
     7
370
    15
100
AcDbCircle
 10
7.8832022086
 20
7.3669004105
 30
0.0
 40
0.0624999999999998
  0
LINE
  5
13B
330
1F
100
AcDbEntity
  8
0
  6
Continuous
 62
     7
370
    15
100
AcDbLine
 10
8.3406822466
 20
9.2527257423
 30
0.0
 11
7.4321194358
 21
7.5840395191
 31
0.0
  0
ARC
  5
13C
330
1F
100
AcDbEntity
  8
0
  6
Continuous
 62
     7
370
    15
100
AcDbCircle
 10
8.4285079481
 20
9.2049065722
 30
0.0
 40
0.1000000000000008
100
AcDbArc
 50
61.4326813256
 51
151.4326813256
  0
LINE
  5
13D
330
1F
100
AcDbEntity
  8
0
  6
Continuous
 62
     7
370
    15
100
AcDbLine
 10
9.1789318164
 20
8.9101793594
 30
0.0
 11
8.4763271063
 21
9.2927321335
 31
0.0
  0
ARC
  5
13E
330
1F
100
AcDbEntity
  8
0
  6
Continuous
 62
     7
370
    15
100
AcDbCircle
 10
9.1311126496
 20
8.8223537871
 30
0.0
 40
0.1
100
AcDbArc
 50
331.4326813256
 51
61.4326813256
  0
LINE
  5
13F
330
1F
100
AcDbEntity
  8
0
  6
Continuous
 62
     7
370
    15
100
AcDbLine
 10
8.3103753967
 20
7.1058484965
 30
0.0
 11
9.2189382076
 21
8.7745347197
 31
0.0
  0
ARC
  5
140
330
1F
100
AcDbEntity
  8
0
  6
Continuous
 62
     7
370
    15
100
AcDbCircle
 10
8.2225497848
 20
7.153667621
 30
0.0
 40
0.1000000000000009
100
AcDbArc
 50
241.4326813256
 51
331.4326813256
  0
LINE
  5
141
330
1F
100
AcDbEntity
  8
0
  6
Continuous
 62
     7
370
    15
100
AcDbLine
 10
7.4721259736
 20
7.4483948061
 30
0.0
 11
8.1747308304
 21
7.065842032
 31
0.0
  0
ARC
  5
142
330
1F
100
AcDbEntity
  8
0
  6
Continuous
 62
     7
370
    15
100
AcDbCircle
 10
7.5199450833
 20
7.5362204062
 30
0.0
 40
0.1000000000000013
100
AcDbArc
 50
151.4326813256
 51
241.4326813256
  0
CIRCLE
  5
143
330
1F
100
AcDbEntity
  8
0
  6
Continuous
 62
     7
370
    15
100
AcDbCircle
 10
8.7678555243
 20
8.9916737827
 30
0.0
 40
0.0624999999999998
  0
CIRCLE
  5
144
330
1F
100
AcDbEntity
  8
0
  6
Continuous
 62
     7
370
    15
100
AcDbCircle
 10
7.7355944068
 20
1.9833041494
 30
0.0
 40
0.0625000000000005
  0
LINE
  5
145
330
1F
100
AcDbEntity
  8
0
  6
Continuous
 62
     7
370
    15
100
AcDbLine
 10
7.2084368731
 20
3.8508505052
 30
0.0
 11
7.2360098879
 21
1.9510510119
 31
0.0
  0
ARC
  5
146
330
1F
100
AcDbEntity
  8
0
  6
Continuous
 62
     7
370
    15
100
AcDbCircle
 10
7.3084263271
 20
3.8523018572
 30
0.0
 40
0.1000000000000011
100
AcDbArc
 50
90.8315117175
 51
180.8315117175
  0
LINE
  5
147
330
1F
100
AcDbEntity
  8
0
  6
Continuous
 62
     7
370
    15
100
AcDbLine
 10
8.1068909474
 20
3.9639010393
 30
0.0
 11
7.3069750548
 21
3.9522913334
 31
0.0
  0
ARC
  5
148
330
1F
100
AcDbEntity
  8
0
  6
Continuous
 62
     7
370
    15
100
AcDbCircle
 10
8.1083420822
 20
3.8639115434
 30
0.0
 40
0.1000000000000011
100
AcDbArc
 50
0.8315117175
 51
90.8315117175
  0
ARC
  5
149
330
1F
100
AcDbEntity
  8
0
  6
Continuous
 62
     7
370
    15
100
AcDbCircle
 10
7.335999332
 20
1.9525019389
 30
0.0
 40
0.1000000000000011
100
AcDbArc
 50
180.8315117175
 51
270.8315117175
  0
CIRCLE
  5
14A
330
1F
100
AcDbEntity
  8
0
  6
Continuous
 62
     7
370
    15
100
AcDbCircle
 10
7.7087470074
 20
3.833109333
 30
0.0
 40
0.0625000000000005
  0
ARC
  5
14B
330
1F
100
AcDbEntity
  8
0
  6
Continuous
 62
     7
370
    15
100
AcDbCircle
 10
8.135915087
 20
1.9641116252
 30
0.0
 40
0.1000000000000004
100
AcDbArc
 50
270.8315117175
 51
0.8315117175
  0
LINE
  5
14C
330
1F
100
AcDbEntity
  8
0
  6
Continuous
 62
     7
370
    15
100
AcDbLine
 10
8.235904497
 20
1.9655626309
 30
0.0
 11
8.2083314822
 21
3.8653627109
 31
0.0
  0
LINE
  5
14D
330
1F
100
AcDbEntity
  8
0
  6
Continuous
 62
     7
370
    15
100
AcDbLine
 10
7.3374505694
 20
1.8525126835
 30
0.0
 11
8.1373661687
 21
1.8641220961
 31
0.0
  0
ARC
  5
14E
330
1F
100
AcDbEntity
  8
0
  6
Continuous
 62
     7
370
    15
100
AcDbCircle
 10
8.5063039762
 20
11.7041741689
 30
0.0
 40
0.1000000000000015
100
AcDbArc
 50
60.6502758251
 51
150.6502758251
  0
LINE
  5
14F
330
1F
100
AcDbEntity
  8
0
  6
Continuous
 62
     7
370
    15
100
AcDbLine
 10
9.2526333117
 20
11.3992273057
 30
0.0
 11
8.5553179271
 21
11.791338456
 31
0.0
  0
ARC
  5
150
330
1F
100
AcDbEntity
  8
0
  6
Continuous
 62
     7
370
    15
100
AcDbCircle
 10
9.2036193627
 20
11.3120628943
 30
0.0
 40
0.1000000000000017
100
AcDbArc
 50
330.6502758251
 51
60.6502758251
  0
ARC
  5
151
330
1F
100
AcDbEntity
  8
0
  6
Continuous
 62
     7
370
    15
100
AcDbCircle
 10
8.2723550857
 20
9.6559388512
 30
0.0
 40
0.0999999999999993
100
AcDbArc
 50
240.6502758251
 51
330.6502758251
  0
LINE
  5
152
330
1F
100
AcDbEntity
  8
0
  6
Continuous
 62
     7
370
    15
100
AcDbLine
 10
7.5260257909
 20
9.9608856816
 30
0.0
 11
8.2233411755
 21
9.5687743846
 31
0.0
  0
ARC
  5
153
330
1F
100
AcDbEntity
  8
0
  6
Continuous
 62
     7
370
    15
100
AcDbCircle
 10
7.5750396991
 20
10.0480501257
 30
0.0
 40
0.1000000000000004
100
AcDbArc
 50
150.6502758251
 51
240.6502758251
  0
CIRCLE
  5
154
330
1F
100
AcDbEntity
  8
0
  6
Continuous
 62
     7
370
    15
100
AcDbCircle
 10
8.8427081921
 20
11.4863274258
 30
0.0
 40
0.0624999999999994
  0
LINE
  5
155
330
1F
100
AcDbEntity
  8
0
  6
Continuous
 62
     7
370
    15
100
AcDbLine
 10
8.4191395003
 20
11.7531879634
 30
0.0
 11
7.4878752983
 21
10.0970639618
 31
0.0
  0
CIRCLE
  5
156
330
1F
100
AcDbEntity
  8
0
  6
Continuous
 62
     7
370
    15
100
AcDbCircle
 10
7.9359508697
 20
9.8737855943
 30
0.0
 40
0.0625000000000002
  0
LINE
  5
157
330
1F
100
AcDbEntity
  8
0
  6
Continuous
 62
     7
370
    15
100
AcDbLine
 10
8.3595196024
 20
9.6069248772
 30
0.0
 11
9.2907838043
 21
11.2630488789
 31
0.0
  0
LINE
  5
158
330
1F
100
AcDbEntity
  8
0
  6
Continuous
 62
     7
370
    15
100
AcDbLine
 10
4.2632550694
 20
9.4288291613
 30
0.0
 11
4.3716312441
 21
9.4911157217
 31
0.0
  0
LINE
  5
159
330
1F
100
AcDbEntity
  8
0
  6
Continuous
 62
     7
370
    15
100
AcDbLine
 10
4.3716312441
 20
9.4911157217
 30
0.0
 11
4.3093446837
 21
9.5994917498
 31
0.0
  0
LINE
  5
15A
330
1F
100
AcDbEntity
  8
0
  6
Continuous
 62
     7
370
    15
100
AcDbLine
 10
4.3093446837
 20
9.5994917498
 30
0.0
 11
4.200968509
 21
9.537205336
 31
0.0
  0
LINE
  5
15B
330
1F
100
AcDbEntity
  8
0
  6
Continuous
 62
     7
370
    15
100
AcDbLine
 10
4.200968509
 20
9.537205336
 30
0.0
 11
4.2632550694
 21
9.4288291613
 31
0.0
  0
LINE
  5
15C
330
1F
100
AcDbEntity
  8
0
  6
Continuous
 62
     7
370
    15
100
AcDbLine
 10
3.7419333984
 20
8.8452882491
 30
0.0
 11
3.6338036209
 21
8.9080014579
 31
0.0
  0
LINE
  5
15D
330
1F
100
AcDbEntity
  8
0
  6
Continuous
 62
     7
370
    15
100
AcDbLine
 10
3.6338036209
 20
8.9080014579
 30
0.0
 11
3.571090412
 21
8.7998716804
 31
0.0
  0
LINE
  5
15E
330
1F
100
AcDbEntity
  8
0
  6
Continuous
 62
     7
370
    15
100
AcDbLine
 10
3.571090412
 20
8.7998716804
 30
0.0
 11
3.6792201896
 21
8.7371584715
 31
0.0
  0
LINE
  5
15F
330
1F
100
AcDbEntity
  8
0
  6
Continuous
 62
     7
370
    15
100
AcDbLine
 10
3.6792201896
 20
8.7371584715
 30
0.0
 11
3.7419333984
 21
8.8452882491
 31
0.0
  0
LINE
  5
160
330
1F
100
AcDbEntity
  8
0
  6
Continuous
 62
     7
370
    15
100
AcDbLine
 10
4.5079555293
 20
8.6855809473
 30
0.0
 11
4.5077091321
 21
8.560581178
 31
0.0
  0
LINE
  5
161
330
1F
100
AcDbEntity
  8
0
  6
Continuous
 62
     7
370
    15
100
AcDbLine
 10
4.5077091321
 20
8.560581178
 30
0.0
 11
4.6327089015
 21
8.5603348542
 31
0.0
  0
LINE
  5
162
330
1F
100
AcDbEntity
  8
0
  6
Continuous
 62
     7
370
    15
100
AcDbLine
 10
4.6327089015
 20
8.5603348542
 30
0.0
 11
4.6329552253
 21
8.6853345502
 31
0.0
  0
LINE
  5
163
330
1F
100
AcDbEntity
  8
0
  6
Continuous
 62
     7
370
    15
100
AcDbLine
 10
4.6329552253
 20
8.6853345502
 30
0.0
 11
4.5079555293
 21
8.6855809473
 31
0.0
  0
CIRCLE
  5
164
330
1F
100
AcDbEntity
  8
0
  6
Continuous
 62
     7
370
    15
100
AcDbCircle
 10
4.5355649924
 20
9.6574195073
 30
0.0
 40
0.0625
  0
CIRCLE
  5
165
330
1F
100
AcDbEntity
  8
0
  6
Continuous
 62
     7
370
    15
100
AcDbCircle
 10
3.4078134273
 20
8.9668203628
 30
0.0
 40
0.0625
  0
CIRCLE
  5
166
330
1F
100
AcDbEntity
  8
0
  6
Continuous
 62
     7
370
    15
100
AcDbCircle
 10
3.7697671664
 20
8.3370350327
 30
0.0
 40
0.0625
  0
CIRCLE
  5
167
330
1F
100
AcDbEntity
  8
0
  6
Continuous
 62
     7
370
    15
100
AcDbCircle
 10
4.5697656129
 20
8.3354584305
 30
0.0
 40
0.0625
  0
LINE
  5
168
330
1F
100
AcDbEntity
  8
0
  6
Continuous
 62
     7
370
    15
100
AcDbLine
 10
3.4192751525
 20
8.0877252772
 30
0.0
 11
4.9192722377
 21
8.084769153
 31
0.0
  0
LINE
  5
169
330
1F
100
AcDbEntity
  8
0
  6
Continuous
 62
     7
370
    15
100
AcDbLine
 10
3.015956745
 20
8.7894834004
 30
0.0
 11
3.4192751525
 21
8.0877252772
 31
0.0
  0
LINE
  5
16A
330
1F
100
AcDbEntity
  8
0
  6
Continuous
 62
     7
370
    15
100
AcDbLine
 10
3.768515398
 20
10.0870408776
 30
0.0
 11
3.015956745
 21
8.7894834004
 31
0.0
  0
LINE
  5
16B
330
1F
100
AcDbEntity
  8
0
  6
Continuous
 62
     7
370
    15
100
AcDbLine
 10
5.3253534283
 20
8.784932093
 30
0.0
 11
4.5779149411
 21
10.0854457493
 31
0.0
  0
LINE
  5
16C
330
1F
100
AcDbEntity
  8
0
  6
Continuous
 62
     7
370
    15
100
AcDbLine
 10
4.9192722377
 20
8.084769153
 30
0.0
 11
5.3253534283
 21
8.784932093
 31
0.0
  0
CIRCLE
  5
16D
330
1F
100
AcDbEntity
  8
0
  6
Continuous
 62
     7
370
    15
100
AcDbCircle
 10
4.1710480109
 20
8.9865661002
 30
0.0
 40
0.1718749999999999
  0
LINE
  5
16E
330
1F
100
AcDbEntity
  8
0
  6
Continuous
 62
     7
370
    15
100
AcDbLine
 10
3.7079569909
 20
8.6871575225
 30
0.0
 11
3.7077107404
 21
8.5621577531
 31
0.0
  0
LINE
  5
16F
330
1F
100
AcDbEntity
  8
0
  6
Continuous
 62
     7
370
    15
100
AcDbLine
 10
3.7077107404
 20
8.5621577531
 30
0.0
 11
3.8327105098
 21
8.5619114293
 31
0.0
  0
LINE
  5
170
330
1F
100
AcDbEntity
  8
0
  6
Continuous
 62
     7
370
    15
100
AcDbLine
 10
3.8327105098
 20
8.5619114293
 30
0.0
 11
3.8329567603
 21
8.6869111986
 31
0.0
  0
LINE
  5
171
330
1F
100
AcDbEntity
  8
0
  6
Continuous
 62
     7
370
    15
100
AcDbLine
 10
3.8329567603
 20
8.6869111986
 30
0.0
 11
3.7079569909
 21
8.6871575225
 31
0.0
  0
CIRCLE
  5
172
330
1F
100
AcDbEntity
  8
0
  6
Continuous
 62
     7
370
    15
100
AcDbCircle
 10
3.8091780282
 20
9.6588510392
 30
0.0
 40
0.0625
  0
CIRCLE
  5
173
330
1F
100
AcDbEntity
  8
0
  6
Continuous
 62
     7
370
    15
100
AcDbCircle
 10
4.934198838
 20
8.9638122285
 30
0.0
 40
0.0625
  0
LINE
  5
174
330
1F
100
AcDbEntity
  8
0
  6
Continuous
 62
     7
370
    15
100
AcDbLine
 10
4.1432980818
 20
9.5373188547
 30
0.0
 11
4.0351683043
 21
9.6000322102
 31
0.0
  0
LINE
  5
175
330
1F
100
AcDbEntity
  8
0
  6
Continuous
 62
     7
370
    15
100
AcDbLine
 10
4.0351683043
 20
9.6000322102
 30
0.0
 11
3.9724550954
 21
9.491902286
 31
0.0
  0
LINE
  5
176
330
1F
100
AcDbEntity
  8
0
  6
Continuous
 62
     7
370
    15
100
AcDbLine
 10
3.9724550954
 20
9.491902286
 30
0.0
 11
4.080584873
 21
9.4291890771
 31
0.0
  0
LINE
  5
177
330
1F
100
AcDbEntity
  8
0
  6
Continuous
 62
     7
370
    15
100
AcDbLine
 10
4.080584873
 20
9.4291890771
 30
0.0
 11
4.1432980818
 21
9.5373188547
 31
0.0
  0
LINE
  5
178
330
1F
100
AcDbEntity
  8
0
  6
Continuous
 62
     7
370
    15
100
AcDbLine
 10
4.6618889244
 20
8.7352218339
 30
0.0
 11
4.7702650257
 21
8.7975083943
 31
0.0
  0
LINE
  5
179
330
1F
100
AcDbEntity
  8
0
  6
Continuous
 62
     7
370
    15
100
AcDbLine
 10
4.7702650257
 20
8.7975083943
 30
0.0
 11
4.7079785386
 21
8.9058844957
 31
0.0
  0
LINE
  5
17A
330
1F
100
AcDbEntity
  8
0
  6
Continuous
 62
     7
370
    15
100
AcDbLine
 10
4.7079785386
 20
8.9058844957
 30
0.0
 11
4.5996023639
 21
8.8435980086
 31
0.0
  0
LINE
  5
17B
330
1F
100
AcDbEntity
  8
0
  6
Continuous
 62
     7
370
    15
100
AcDbLine
 10
4.5996023639
 20
8.8435980086
 30
0.0
 11
4.6618889244
 21
8.7352218339
 31
0.0
  0
LINE
  5
17C
330
1F
100
AcDbEntity
  8
0
  6
Continuous
 62
     7
370
    15
100
AcDbLine
 10
4.5779149411
 20
10.0854457493
 30
0.0
 11
3.768515398
 21
10.0870408776
 31
0.0
  0
LINE
  5
17D
330
1F
100
AcDbEntity
  8
0
  6
Continuous
 62
     7
370
    15
100
AcDbLine
 10
6.8499133215
 20
5.3312145773
 30
0.0
 11
6.7561633111
 21
5.4935942614
 31
0.0
  0
LINE
  5
17E
330
1F
100
AcDbEntity
  8
0
  6
Continuous
 62
     7
370
    15
100
AcDbLine
 10
6.7561633111
 20
5.4935942614
 30
0.0
 11
6.647910115
 21
5.4310943034
 31
0.0
  0
LINE
  5
17F
330
1F
100
AcDbEntity
  8
0
  6
Continuous
 62
     7
370
    15
100
AcDbLine
 10
6.647910115
 20
5.4310943034
 30
0.0
 11
6.7416601253
 21
5.2687144726
 31
0.0
  0
LINE
  5
180
330
1F
100
AcDbEntity
  8
0
  6
Continuous
 62
     7
370
    15
100
AcDbLine
 10
7.0325880645
 20
4.2098124385
 30
0.0
 11
7.2729102083
 21
4.3485624889
 31
0.0
  0
ARC
  5
181
330
1F
100
AcDbEntity
  8
0
  6
Continuous
 62
     7
370
    15
100
AcDbCircle
 10
6.9825880953
 20
4.2964151082
 30
0.0
 40
0.1000000000000007
100
AcDbArc
 50
210.0
 51
300.0
  0
LINE
  5
182
330
1F
100
AcDbEntity
  8
0
  6
Continuous
 62
     7
370
    15
100
AcDbLine
 10
5.8051267643
 20
6.1358379755
 30
0.0
 11
6.8959854826
 21
4.246415029
 31
0.0
  0
LINE
  5
183
330
1F
100
AcDbEntity
  8
0
  6
Continuous
 62
     7
370
    15
100
AcDbLine
 10
5.3508524354
 20
6.3981133724
 30
0.0
 11
5.8051267643
 21
6.1358379755
 31
0.0
  0
ARC
  5
184
330
1F
100
AcDbEntity
  8
0
  6
Continuous
 62
     7
370
    15
100
AcDbCircle
 10
5.3008524312
 20
6.311510835
 30
0.0
 40
0.0999999999999995
100
AcDbArc
 50
60.0
 51
150.0
  0
LINE
  5
185
330
1F
100
AcDbEntity
  8
0
  6
Continuous
 62
     7
370
    15
100
AcDbLine
 10
4.3142498937
 20
4.8026651098
 30
0.0
 11
5.2142498901
 21
6.3615107819
 31
0.0
  0
LINE
  5
186
330
1F
100
AcDbEntity
  8
0
  6
Continuous
 62
     7
370
    15
100
AcDbLine
 10
3.2118443887
 20
7.4899396028
 30
0.0
 11
3.2118443887
 21
7.3649395768
 31
0.0
  0
LINE
  5
187
330
1F
100
AcDbEntity
  8
0
  6
Continuous
 62
     7
370
    15
100
AcDbLine
 10
3.0868443261
 20
7.4899396028
 30
0.0
 11
3.2118443887
 21
7.4899396028
 31
0.0
  0
LINE
  5
188
330
1F
100
AcDbEntity
  8
0
  6
Continuous
 62
     7
370
    15
100
AcDbLine
 10
3.0868443261
 20
7.7674395846
 30
0.0
 11
3.0868443261
 21
7.4899396028
 31
0.0
  0
ARC
  5
189
330
1F
100
AcDbEntity
  8
0
  6
Continuous
 62
     7
370
    15
100
AcDbCircle
 10
3.1868443537
 20
7.7674395867
 30
0.0
 40
0.1000000000000001
100
AcDbArc
 50
90.0
 51
180.0
  0
LINE
  5
18A
330
1F
100
AcDbEntity
  8
0
  6
Continuous
 62
     7
370
    15
100
AcDbLine
 10
5.3677839348
 20
7.8674395875
 30
0.0
 11
3.1868443175
 21
7.8674395875
 31
0.0
  0
LINE
  5
18B
330
1F
100
AcDbEntity
  8
0
  6
Continuous
 62
     7
370
    15
100
AcDbLine
 10
5.8228362847
 20
8.1301641802
 30
0.0
 11
5.3677839348
 21
7.8674395875
 31
0.0
  0
ARC
  5
18C
330
1F
100
AcDbEntity
  8
0
  6
Continuous
 62
     7
370
    15
100
AcDbCircle
 10
5.7728362762
 20
8.2167667233
 30
0.0
 40
0.0999999999999992
100
AcDbArc
 50
300.0
 51
30.0
  0
LINE
  5
18D
330
1F
100
AcDbEntity
  8
0
  6
Continuous
 62
     7
370
    15
100
AcDbLine
 10
7.7921363301
 20
9.6069904365
 30
0.0
 11
6.0864553343
 21
10.5917659403
 31
0.0
  0
LINE
  5
18E
330
1F
100
AcDbEntity
  8
0
  6
Continuous
 62
     7
370
    15
100
AcDbLine
 10
7.7296363722
 20
9.498737167
 30
0.0
 11
7.7921363301
 21
9.6069904365
 31
0.0
  0
LINE
  5
18F
330
1F
100
AcDbEntity
  8
0
  6
Continuous
 62
     7
370
    15
100
AcDbLine
 10
7.9003895996
 20
9.5444903318
 30
0.0
 11
7.8378894949
 21
9.436237209
 31
0.0
  0
CIRCLE
  5
190
330
1F
100
AcDbEntity
  8
0
  6
Continuous
 62
     7
370
    15
100
AcDbCircle
 10
7.4087629628
 20
8.817968166
 30
0.0
 40
0.0625
  0
LINE
  5
191
330
1F
100
AcDbEntity
  8
0
  6
Continuous
 62
     7
370
    15
100
AcDbLine
 10
4.336844366
 20
7.365388775
 30
0.0
 11
4.336844366
 21
7.4903887643
 31
0.0
  0
LINE
  5
192
330
1F
100
AcDbEntity
  8
0
  6
Continuous
 62
     7
370
    15
100
AcDbLine
 10
6.0864553343
 20
10.5917659403
 30
0.0
 11
4.9960413775
 21
9.9622150529
 31
0.0
  0
LINE
  5
193
330
1F
100
AcDbEntity
  8
0
  6
Continuous
 62
     7
370
    15
100
AcDbLine
 10
7.2612754227
 20
8.6870629969
 30
0.0
 11
7.1675254124
 21
8.5246832394
 31
0.0
  0
LINE
  5
194
330
1F
100
AcDbEntity
  8
0
  6
Continuous
 62
     7
370
    15
100
AcDbLine
 10
7.3695285455
 20
8.6245629656
 30
0.0
 11
7.2612754227
 21
8.6870629969
 31
0.0
  0
LINE
  5
195
330
1F
100
AcDbEntity
  8
0
  6
Continuous
 62
     7
370
    15
100
AcDbLine
 10
7.2757785352
 20
8.4621832447
 30
0.0
 11
7.3695285455
 21
8.6245629656
 31
0.0
  0
LINE
  5
196
330
1F
100
AcDbEntity
  8
0
  6
Continuous
 62
     7
370
    15
100
AcDbLine
 10
7.1675254124
 20
8.5246832394
 30
0.0
 11
7.2757785352
 21
8.4621832447
 31
0.0
  0
LINE
  5
197
330
1F
100
AcDbEntity
  8
0
  6
Continuous
 62
     7
370
    15
100
AcDbLine
 10
4.1493443453
 20
7.365388775
 30
0.0
 11
4.336844366
 21
7.365388775
 31
0.0
  0
LINE
  5
198
330
1F
100
AcDbEntity
  8
0
  6
Continuous
 62
     7
370
    15
100
AcDbLine
 10
4.1493443453
 20
7.4903887643
 30
0.0
 11
4.1493443453
 21
7.365388775
 31
0.0
  0
LINE
  5
199
330
1F
100
AcDbEntity
  8
0
  6
Continuous
 62
     7
370
    15
100
AcDbLine
 10
4.336844366
 20
7.4903887643
 30
0.0
 11
4.1493443453
 21
7.4903887643
 31
0.0
  0
LINE
  5
19A
330
1F
100
AcDbEntity
  8
0
  6
Continuous
 62
     7
370
    15
100
AcDbLine
 10
8.1407115967
 20
9.405740428
 30
0.0
 11
7.9003895996
 21
9.5444903318
 31
0.0
  0
ARC
  5
19B
330
1F
100
AcDbEntity
  8
0
  6
Continuous
 62
     7
370
    15
100
AcDbCircle
 10
8.0907116001
 20
9.3191378539
 30
0.0
 40
0.1
100
AcDbArc
 50
330.0
 51
60.0
  0
LINE
  5
19C
330
1F
100
AcDbEntity
  8
0
  6
Continuous
 62
     7
370
    15
100
AcDbLine
 10
6.7416601253
 20
5.2687144726
 30
0.0
 11
6.8499133215
 21
5.3312145773
 31
0.0
  0
LINE
  5
19D
330
1F
100
AcDbEntity
  8
0
  6
Continuous
 62
     7
370
    15
100
AcDbLine
 10
7.0868444244
 20
7.3803887884
 30
0.0
 11
8.1773141872
 21
9.269137846
 31
0.0
  0
LINE
  5
19E
330
1F
100
AcDbEntity
  8
0
  6
Continuous
 62
     7
370
    15
100
AcDbLine
 10
4.959438787
 20
9.8256124709
 30
0.0
 11
5.8594388202
 21
8.2667667255
 31
0.0
  0
ARC
  5
19F
330
1F
100
AcDbEntity
  8
0
  6
Continuous
 62
     7
370
    15
100
AcDbCircle
 10
4.2276473504
 20
4.8526651082
 30
0.0
 40
0.1000000000000012
100
AcDbArc
 50
240.0
 51
330.0
  0
LINE
  5
1A0
330
1F
100
AcDbEntity
  8
0
  6
Continuous
 62
     7
370
    15
100
AcDbLine
 10
3.0868443261
 20
5.3958380974
 30
0.0
 11
4.1776473117
 21
4.7660625193
 31
0.0
  0
LINE
  5
1A1
330
1F
100
AcDbEntity
  8
0
  6
Continuous
 62
     7
370
    15
100
AcDbLine
 10
3.0868443261
 20
7.3649395768
 30
0.0
 11
3.0868443261
 21
5.3958380974
 31
0.0
  0
LINE
  5
1A2
330
1F
100
AcDbEntity
  8
0
  6
Continuous
 62
     7
370
    15
100
AcDbLine
 10
3.2118443887
 20
7.3649395768
 30
0.0
 11
3.0868443261
 21
7.3649395768
 31
0.0
  0
ARC
  5
1A3
330
1F
100
AcDbEntity
  8
0
  6
Continuous
 62
     7
370
    15
100
AcDbCircle
 10
5.046041357
 20
9.8756124501
 30
0.0
 40
0.1000000000000007
100
AcDbArc
 50
120.0
 51
210.0
  0
LINE
  5
1A4
330
1F
100
AcDbEntity
  8
0
  6
Continuous
 62
     7
370
    15
100
AcDbLine
 10
7.8378894949
 20
9.436237209
 30
0.0
 11
7.7296363722
 21
9.498737167
 31
0.0
  0
LINE
  5
1A5
330
1F
100
AcDbEntity
  8
0
  6
Continuous
 62
     7
370
    15
100
AcDbLine
 10
7.2104101036
 20
4.4568156117
 30
0.0
 11
7.3186633731
 21
4.5193157164
 31
0.0
  0
LINE
  5
1A6
330
1F
100
AcDbEntity
  8
0
  6
Continuous
 62
     7
370
    15
100
AcDbLine
 10
7.2729102083
 20
4.3485624889
 30
0.0
 11
7.2104101036
 21
4.4568156117
 31
0.0
  0
CIRCLE
  5
1A7
330
1F
100
AcDbEntity
  8
0
  6
Continuous
 62
     7
370
    15
100
AcDbCircle
 10
7.1395367326
 20
4.7045720942
 30
0.0
 40
0.0625
  0
CIRCLE
  5
1A8
330
1F
100
AcDbEntity
  8
0
  6
Continuous
 62
     7
370
    15
100
AcDbCircle
 10
6.631783187
 20
8.4540270329
 30
0.0
 40
0.0400000000000009
  0
CIRCLE
  5
1A9
330
1F
100
AcDbEntity
  8
0
  6
Continuous
 62
     7
370
    15
100
AcDbCircle
 10
8.8128443537
 20
5.9928887792
 30
0.0
 40
0.04
  0
LINE
  5
1AA
330
1F
100
AcDbEntity
  8
0
  6
Continuous
 62
     7
370
    15
100
AcDbLine
 10
7.0868444244
 20
6.8553887965
 30
0.0
 11
7.0868444244
 21
7.3803887884
 31
0.0
  0
CIRCLE
  5
1AB
330
1F
100
AcDbEntity
  8
0
  6
Continuous
 62
     7
370
    15
100
AcDbCircle
 10
7.6587629628
 20
9.2509808679
 30
0.0
 40
0.0625000000000018
  0
CIRCLE
  5
1AC
330
1F
100
AcDbEntity
  8
0
  6
Continuous
 62
     7
370
    15
100
AcDbCircle
 10
3.9618443537
 20
7.4274395867
 30
0.0
 40
0.0625
  0
CIRCLE
  5
1AD
330
1F
100
AcDbEntity
  8
0
  6
Continuous
 62
     7
370
    15
100
AcDbCircle
 10
3.4618443537
 20
7.4274395867
 30
0.0
 40
0.0625
  0
LINE
  5
1AE
330
1F
100
AcDbEntity
  8
0
  6
Continuous
 62
     7
370
    15
100
AcDbLine
 10
9.0868444002
 20
5.3958380974
 30
0.0
 11
9.0868444002
 21
6.6553888136
 31
0.0
  0
CIRCLE
  5
1AF
330
1F
100
AcDbEntity
  8
0
  6
Continuous
 62
     7
370
    15
100
AcDbCircle
 10
4.6659055204
 20
6.9367505254
 30
0.0
 40
0.0399999999999991
  0
CIRCLE
  5
1B0
330
1F
100
AcDbEntity
  8
0
  6
Continuous
 62
     7
370
    15
100
AcDbCircle
 10
6.8895367326
 20
5.1375847961
 30
0.0
 40
0.0625
  0
CIRCLE
  5
1B1
330
1F
100
AcDbEntity
  8
0
  6
Continuous
 62
     7
370
    15
100
AcDbCircle
 10
5.706783187
 20
10.0561740299
 30
0.0
 40
0.0400000000000009
  0
CIRCLE
  5
1B2
330
1F
100
AcDbEntity
  8
0
  6
Continuous
 62
     7
370
    15
100
AcDbCircle
 10
3.7409055204
 20
5.3346035284
 30
0.0
 40
0.04
  0
ARC
  5
1B3
330
1F
100
AcDbEntity
  8
0
  6
Continuous
 62
     7
370
    15
100
AcDbCircle
 10
8.9868443537
 20
6.6553887792
 30
0.0
 40
0.1000000000000005
100
AcDbArc
 50
0.0
 51
90.0
  0
ARC
  5
1B4
330
1F
100
AcDbEntity
  8
0
  6
Continuous
 62
     7
370
    15
100
AcDbCircle
 10
7.1868443537
 20
6.8553887792
 30
0.0
 40
0.0999999999999996
100
AcDbArc
 50
180.0
 51
270.0
  0
LINE
  5
1B5
330
1F
100
AcDbEntity
  8
0
  6
Continuous
 62
     7
370
    15
100
AcDbLine
 10
7.3811633311
 20
4.4110625936
 30
0.0
 11
9.0868444002
 21
5.3958380974
 31
0.0
  0
LINE
  5
1B6
330
1F
100
AcDbEntity
  8
0
  6
Continuous
 62
     7
370
    15
100
AcDbLine
 10
7.3186633731
 20
4.5193157164
 30
0.0
 11
7.3811633311
 21
4.4110625936
 31
0.0
  0
LINE
  5
1B7
330
1F
100
AcDbEntity
  8
0
  6
Continuous
 62
     7
370
    15
100
AcDbLine
 10
8.9868444088
 20
6.7553888051
 30
0.0
 11
7.1868444159
 21
6.7553888051
 31
0.0
  0
CIRCLE
  5
1B8
330
1F
100
AcDbEntity
  8
0
  6
Continuous
 62
     7
370
    15
100
AcDbCircle
 10
6.9628443537
 20
5.9928887792
 30
0.0
 40
0.04
  0
ENDSEC
  0
SECTION
  2
OBJECTS
  0
DICTIONARY
  5
C
330
0
100
AcDbDictionary
281
     1
  3
ACAD_GROUP
350
D
  3
ACAD_LAYOUT
350
1A
  3
ACAD_MLINESTYLE
350
17
  3
ACAD_PLOTSETTINGS
350
19
  3
ACAD_PLOTSTYLENAME
350
E
  0
DICTIONARY
  5
D
102
{ACAD_REACTORS
330
C
102
}
330
C
100
AcDbDictionary
281
     1
  0
DICTIONARY
  5
1A
102
{ACAD_REACTORS
330
C
102
}
330
C
100
AcDbDictionary
281
     1
  3
Layout1
350
1E
  3
Layout2
350
26
  3
Model
350
22
  0
DICTIONARY
  5
17
102
{ACAD_REACTORS
330
C
102
}
330
C
100
AcDbDictionary
281
     1
  3
Standard
350
18
  0
DICTIONARY
  5
19
102
{ACAD_REACTORS
330
C
102
}
330
C
100
AcDbDictionary
281
     1
  0
ACDBDICTIONARYWDFLT
  5
E
102
{ACAD_REACTORS
330
C
102
}
330
C
100
AcDbDictionary
281
     1
  3
Normal
350
F
100
AcDbDictionaryWithDefault
340
F
  0
LAYOUT
  5
1E
102
{ACAD_REACTORS
330
1A
102
}
330
1A
100
AcDbPlotSettings
  1

  2
none_device
  4

  6

 40
0.0
 41
0.0
 42
0.0
 43
0.0
 44
0.0
 45
0.0
 46
0.0
 47
0.0
 48
0.0
 49
0.0
140
0.0
141
0.0
142
1.0
143
1.0
 70
   688
 72
     0
 73
     0
 74
     5
  7

 75
    16
147
1.0
148
0.0
149
0.0
100
AcDbLayout
  1
Layout1
 70
     1
 71
     1
 10
0.0
 20
0.0
 11
12.0
 21
9.0
 12
0.0
 22
0.0
 32
0.0
 14
1.0000000000E+20
 24
1.0000000000E+20
 34
1.0000000000E+20
 15
-1.0000000000E+20
 25
-1.0000000000E+20
 35
-1.0000000000E+20
146
0.0
 13
0.0
 23
0.0
 33
0.0
 16
1.0
 26
0.0
 36
0.0
 17
0.0
 27
1.0
 37
0.0
 76
     0
330
1B
  0
LAYOUT
  5
26
102
{ACAD_REACTORS
330
1A
102
}
330
1A
100
AcDbPlotSettings
  1

  2
none_device
  4

  6

 40
0.0
 41
0.0
 42
0.0
 43
0.0
 44
0.0
 45
0.0
 46
0.0
 47
0.0
 48
0.0
 49
0.0
140
0.0
141
0.0
142
1.0
143
1.0
 70
   688
 72
     0
 73
     0
 74
     5
  7

 75
    16
147
1.0
148
0.0
149
0.0
100
AcDbLayout
  1
Layout2
 70
     1
 71
     2
 10
0.0
 20
0.0
 11
0.0
 21
0.0
 12
0.0
 22
0.0
 32
0.0
 14
0.0
 24
0.0
 34
0.0
 15
0.0
 25
0.0
 35
0.0
146
0.0
 13
0.0
 23
0.0
 33
0.0
 16
1.0
 26
0.0
 36
0.0
 17
0.0
 27
1.0
 37
0.0
 76
     0
330
23
  0
LAYOUT
  5
22
102
{ACAD_REACTORS
330
1A
102
}
330
1A
100
AcDbPlotSettings
  1

  2
none_device
  4

  6

 40
0.0
 41
0.0
 42
0.0
 43
0.0
 44
0.0
 45
0.0
 46
0.0
 47
0.0
 48
0.0
 49
0.0
140
0.0
141
0.0
142
1.0
143
1.0
 70
  1712
 72
     0
 73
     0
 74
     0
  7

 75
     0
147
1.0
148
0.0
149
0.0
100
AcDbLayout
  1
Model
 70
     1
 71
     0
 10
0.0
 20
0.0
 11
12.0
 21
14.0
 12
0.0
 22
0.0
 32
0.0
 14
0.0
 24
0.0
 34
0.0
 15
12.0
 25
14.0
 35
0.0
146
0.0
 13
0.0
 23
0.0
 33
0.0
 16
1.0
 26
0.0
 36
0.0
 17
0.0
 27
1.0
 37
0.0
 76
     0
330
1F
331
29
  0
MLINESTYLE
  5
18
102
{ACAD_REACTORS
330
17
102
}
330
17
100
AcDbMlineStyle
  2
Standard
 70
     0
  3

 62
   256
 51
90.0
 52
90.0
 71
     2
 49
0.5
 62
   256
  6
BYLAYER
 49
-0.5
 62
   256
  6
BYLAYER
  0
ACDBPLACEHOLDER
  5
F
102
{ACAD_REACTORS
330
E
102
}
330
E
  0
ENDSEC
  0
EOF
