  0
SECTION
  2
HEADER
  9
$ACADVER
  1
AC1015
  9
$ACADMAINTVER
 70
     6
  9
$DWGCODEPAGE
  3
ANSI_1252
  9
$INSBASE
 10
0.0
 20
0.0
 30
0.0
  9
$EXTMIN
 10
0.0
 20
0.0
 30
0.0
  9
$EXTMAX
 10
11.0
 20
14.0
 30
0.0
  9
$LIMMIN
 10
0.0
 20
0.0
  9
$LIMMAX
 10
11.0
 20
14.0
  9
$ORTHOMODE
 70
     0
  9
$REGENMODE
 70
     1
  9
$FILLMODE
 70
     1
  9
$QTEXTMODE
 70
     0
  9
$MIRRTEXT
 70
     1
  9
$LTSCALE
 40
1.0
  9
$ATTMODE
 70
     1
  9
$TEXTSIZE
 40
0.125
  9
$TRACEWID
 40
0.05
  9
$TEXTSTYLE
  7
Standard
  9
$CLAYER
  8
0
  9
$CELTYPE
  6
ByLayer
  9
$CECOLOR
 62
   256
  9
$CELTSCALE
 40
1.0
  9
$DISPSILH
 70
     0
  9
$DIMSCALE
 40
1.0
  9
$DIMASZ
 40
0.13
  9
$DIMEXO
 40
0.05
  9
$DIMDLI
 40
0.38
  9
$DIMRND
 40
0.0
  9
$DIMDLE
 40
0.0
  9
$DIMEXE
 40
0.125
  9
$DIMTP
 40
0.0
  9
$DIMTM
 40
0.0
  9
$DIMTXT
 40
0.125
  9
$DIMCEN
 40
0.09
  9
$DIMTSZ
 40
0.0
  9
$DIMTOL
 70
     0
  9
$DIMLIM
 70
     0
  9
$DIMTIH
 70
     1
  9
$DIMTOH
 70
     1
  9
$DIMSE1
 70
     0
  9
$DIMSE2
 70
     0
  9
$DIMTAD
 70
     0
  9
$DIMZIN
 70
     0
  9
$DIMBLK
  1

  9
$DIMASO
 70
     1
  9
$DIMSHO
 70
     1
  9
$DIMPOST
  1

  9
$DIMAPOST
  1

  9
$DIMALT
 70
     0
  9
$DIMALTD
 70
     2
  9
$DIMALTF
 40
25.4
  9
$DIMLFAC
 40
1.0
  9
$DIMTOFL
 70
     0
  9
$DIMTVP
 40
0.0
  9
$DIMTIX
 70
     0
  9
$DIMSOXD
 70
     0
  9
$DIMSAH
 70
     0
  9
$DIMBLK1
  1

  9
$DIMBLK2
  1

  9
$DIMSTYLE
  2
Standard
  9
$DIMCLRD
 70
     0
  9
$DIMCLRE
 70
     0
  9
$DIMCLRT
 70
     0
  9
$DIMTFAC
 40
1.0
  9
$DIMGAP
 40
0.06
  9
$DIMJUST
 70
     0
  9
$DIMSD1
 70
     0
  9
$DIMSD2
 70
     0
  9
$DIMTOLJ
 70
     1
  9
$DIMTZIN
 70
     0
  9
$DIMALTZ
 70
     0
  9
$DIMALTTZ
 70
     0
  9
$DIMUPT
 70
     0
  9
$DIMDEC
 70
     3
  9
$DIMTDEC
 70
     3
  9
$DIMALTU
 70
     2
  9
$DIMALTTD
 70
     2
  9
$DIMTXSTY
  7
Standard
  9
$DIMAUNIT
 70
     0
  9
$DIMADEC
 70
     2
  9
$DIMALTRND
 40
0.0
  9
$DIMAZIN
 70
     0
  9
$DIMDSEP
 70
    46
  9
$DIMATFIT
 70
     3
  9
$DIMFRAC
 70
     0
  9
$DIMLDRBLK
  1

  9
$DIMLUNIT
 70
     2
  9
$DIMLWD
 70
    -2
  9
$DIMLWE
 70
    -2
  9
$DIMTMOVE
 70
     0
  9
$LUNITS
 70
     2
  9
$LUPREC
 70
     2
  9
$SKETCHINC
 40
0.1
  9
$FILLETRAD
 40
0.5
  9
$AUNITS
 70
     0
  9
$AUPREC
 70
     2
  9
$MENU
  1
.
  9
$ELEVATION
 40
0.0
  9
$PELEVATION
 40
0.0
  9
$THICKNESS
 40
0.0
  9
$LIMCHECK
 70
     0
  9
$CHAMFERA
 40
0.5
  9
$CHAMFERB
 40
0.5
  9
$CHAMFERC
 40
1.0
  9
$CHAMFERD
 40
0.0
  9
$SKPOLY
 70
     0
  9
$TDCREATE
 40
2455746.086474074
  9
$TDUCREATE
 40
2455746.294807408
  9
$TDUPDATE
 40
2455746.086474086
  9
$TDUUPDATE
 40
2455746.294807419
  9
$TDINDWG
 40
0.0000000116
  9
$TDUSRTIMER
 40
0.0000000116
  9
$USRTIMER
 70
     1
  9
$ANGBASE
 50
0.0
  9
$ANGDIR
 70
     0
  9
$PDMODE
 70
     0
  9
$PDSIZE
 40
-1.0
  9
$PLINEWID
 40
0.0
  9
$SPLFRAME
 70
     0
  9
$SPLINETYPE
 70
     6
  9
$SPLINESEGS
 70
     8
  9
$HANDSEED
  5
144
  9
$SURFTAB1
 70
     6
  9
$SURFTAB2
 70
     6
  9
$SURFTYPE
 70
     6
  9
$SURFU
 70
     6
  9
$SURFV
 70
     6
  9
$UCSBASE
  2

  9
$UCSNAME
  2

  9
$UCSORG
 10
0.0
 20
0.0
 30
0.0
  9
$UCSXDIR
 10
1.0
 20
0.0
 30
0.0
  9
$UCSYDIR
 10
0.0
 20
1.0
 30
0.0
  9
$UCSORTHOREF
  2

  9
$UCSORTHOVIEW
 70
     0
  9
$UCSORGTOP
 10
0.0
 20
0.0
 30
0.0
  9
$UCSORGBOTTOM
 10
0.0
 20
0.0
 30
0.0
  9
$UCSORGLEFT
 10
0.0
 20
0.0
 30
0.0
  9
$UCSORGRIGHT
 10
0.0
 20
0.0
 30
0.0
  9
$UCSORGFRONT
 10
0.0
 20
0.0
 30
0.0
  9
$UCSORGBACK
 10
0.0
 20
0.0
 30
0.0
  9
$PUCSBASE
  2

  9
$PUCSNAME
  2

  9
$PUCSORG
 10
0.0
 20
0.0
 30
0.0
  9
$PUCSXDIR
 10
1.0
 20
0.0
 30
0.0
  9
$PUCSYDIR
 10
0.0
 20
1.0
 30
0.0
  9
$PUCSORTHOREF
  2

  9
$PUCSORTHOVIEW
 70
     0
  9
$PUCSORGTOP
 10
0.0
 20
0.0
 30
0.0
  9
$PUCSORGBOTTOM
 10
0.0
 20
0.0
 30
0.0
  9
$PUCSORGLEFT
 10
0.0
 20
0.0
 30
0.0
  9
$PUCSORGRIGHT
 10
0.0
 20
0.0
 30
0.0
  9
$PUCSORGFRONT
 10
0.0
 20
0.0
 30
0.0
  9
$PUCSORGBACK
 10
0.0
 20
0.0
 30
0.0
  9
$USERI1
 70
     0
  9
$USERI2
 70
     0
  9
$USERI3
 70
     0
  9
$USERI4
 70
     0
  9
$USERI5
 70
     0
  9
$USERR1
 40
0.0
  9
$USERR2
 40
0.0
  9
$USERR3
 40
0.0
  9
$USERR4
 40
0.0
  9
$USERR5
 40
0.0
  9
$WORLDVIEW
 70
     1
  9
$SHADEDGE
 70
     3
  9
$SHADEDIF
 70
    70
  9
$TILEMODE
 70
     1
  9
$MAXACTVP
 70
    64
  9
$PINSBASE
 10
0.0
 20
0.0
 30
0.0
  9
$PLIMCHECK
 70
     0
  9
$PEXTMIN
 10
1.0000000000E+20
 20
1.0000000000E+20
 30
1.0000000000E+20
  9
$PEXTMAX
 10
-1.0000000000E+20
 20
-1.0000000000E+20
 30
-1.0000000000E+20
  9
$PLIMMIN
 10
0.0
 20
0.0
  9
$PLIMMAX
 10
12.0
 20
9.0
  9
$UNITMODE
 70
     0
  9
$VISRETAIN
 70
     1
  9
$PLINEGEN
 70
     0
  9
$PSLTSCALE
 70
     1
  9
$TREEDEPTH
 70
  3020
  9
$CMLSTYLE
  2
Standard
  9
$CMLJUST
 70
     0
  9
$CMLSCALE
 40
1.0
  9
$PROXYGRAPHICS
 70
     1
  9
$MEASUREMENT
 70
     0
  9
$CELWEIGHT
370
    -1
  9
$ENDCAPS
280
     0
  9
$JOINSTYLE
280
     0
  9
$LWDISPLAY
290
     1
  9
$INSUNITS
 70
     1
  9
$HYPERLINKBASE
  1

  9
$STYLESHEET
  1

  9
$XEDIT
290
     1
  9
$CEPSNTYPE
380
     0
  9
$PSTYLEMODE
290
     1
  9
$FINGERPRINTGUID
  2
{9446F8C4-5909-4A8A-ABEF-8DFC9AA90779}
  9
$VERSIONGUID
  2
{FAEB1C32-E019-11D5-929B-00C0DF256EC4}
  9
$EXTNAMES
290
     1
  9
$PSVPSCALE
 40
0.0
  9
$OLESTARTUP
290
     0
  0
ENDSEC
  0
SECTION
  2
CLASSES
  0
CLASS
  1
ACDBDICTIONARYWDFLT
  2
AcDbDictionaryWithDefault
  3
ObjectDBX Classes
 90
        0
280
     0
281
     0
  0
CLASS
  1
VISUALSTYLE
  2
AcDbVisualStyle
  3
ObjectDBX Classes
 90
     4095
280
     0
281
     0
  0
CLASS
  1
MATERIAL
  2
AcDbMaterial
  3
ObjectDBX Classes
 90
     1153
280
     0
281
     0
  0
CLASS
  1
ACDBPLACEHOLDER
  2
AcDbPlaceHolder
  3
ObjectDBX Classes
 90
        0
280
     0
281
     0
  0
CLASS
  1
LAYOUT
  2
AcDbLayout
  3
ObjectDBX Classes
 90
        0
280
     0
281
     0
  0
ENDSEC
  0
SECTION
  2
TABLES
  0
TABLE
  2
VPORT
  5
8
330
0
100
AcDbSymbolTable
 70
     1
  0
VPORT
  5
29
330
8
100
AcDbSymbolTableRecord
100
AcDbViewportTableRecord
  2
*Active
 70
     0
 10
0.0
 20
0.0
 11
1.0
 21
1.0
 12
5.5
 22
7.0
 13
0.0
 23
0.0
 14
0.5
 24
0.5
 15
0.5
 25
0.5
 16
0.0
 26
0.0
 36
1.0
 17
0.0
 27
0.0
 37
0.0
 40
14.0
 41
0.7857142857
 42
50.0
 43
0.0
 44
0.0
 50
0.0
 51
0.0
 71
     0
 72
  2000
 73
     1
 74
     3
 75
     0
 76
     0
 77
     0
 78
     0
281
     0
 65
     1
110
0.0
120
0.0
130
0.0
111
1.0
121
0.0
131
0.0
112
0.0
122
1.0
132
0.0
 79
     0
146
0.0
  0
ENDTAB
  0
TABLE
  2
LTYPE
  5
5
330
0
100
AcDbSymbolTable
 70
     6
  0
LTYPE
  5
14
330
5
100
AcDbSymbolTableRecord
100
AcDbLinetypeTableRecord
  2
ByBlock
 70
     0
  3

 72
    65
 73
     0
 40
0.0
  0
LTYPE
  5
15
330
5
100
AcDbSymbolTableRecord
100
AcDbLinetypeTableRecord
  2
ByLayer
 70
     0
  3

 72
    65
 73
     0
 40
0.0
  0
LTYPE
  5
16
330
5
100
AcDbSymbolTableRecord
100
AcDbLinetypeTableRecord
  2
Continuous
 70
     0
  3
Solid line
 72
    65
 73
     0
 40
0.0
  0
LTYPE
  5
3F
330
5
100
AcDbSymbolTableRecord
100
AcDbLinetypeTableRecord
  2
HIDDEN
 70
     0
  3
Hidden __ __ __ __ __ __ __ __ __ __ __ __ __ __
 72
    65
 73
     2
 40
0.075
 49
0.05
 74
     0
 49
-0.025
 74
     0
  0
LTYPE
  5
40
330
5
100
AcDbSymbolTableRecord
100
AcDbLinetypeTableRecord
  2
PHANTOM
 70
     0
  3
Phantom ______  __  __  ______  __  __  ______
 72
    65
 73
     6
 40
0.5
 49
0.25
 74
     0
 49
-0.05
 74
     0
 49
0.05
 74
     0
 49
-0.05
 74
     0
 49
0.05
 74
     0
 49
-0.05
 74
     0
  0
LTYPE
  5
41
330
5
100
AcDbSymbolTableRecord
100
AcDbLinetypeTableRecord
  2
CENTER
 70
     0
  3
Center ____ _ ____ _ ____ _ ____ _ ____ _ ____
 72
    65
 73
     4
 40
0.4
 49
0.25
 74
     0
 49
-0.05
 74
     0
 49
0.05
 74
     0
 49
-0.05
 74
     0
  0
LTYPE
  5
42
330
5
100
AcDbSymbolTableRecord
100
AcDbLinetypeTableRecord
  2
CENTERX2
 70
     0
  3
Center (2x) ________  __  ________  __  _____
 72
    65
 73
     4
 40
0.8
 49
0.5
 74
     0
 49
-0.1
 74
     0
 49
0.1
 74
     0
 49
-0.1
 74
     0
  0
LTYPE
  5
43
330
5
100
AcDbSymbolTableRecord
100
AcDbLinetypeTableRecord
  2
DOT2
 70
     0
  3
Dot (.5x) ........................................
 72
    65
 73
     2
 40
0.025
 49
0.0
 74
     0
 49
-0.025
 74
     0
  0
ENDTAB
  0
TABLE
  2
LAYER
  5
2
330
0
100
AcDbSymbolTable
 70
     1
  0
LAYER
  5
10
330
2
100
AcDbSymbolTableRecord
100
AcDbLayerTableRecord
  2
0
 70
     0
 62
     7
  6
Continuous
370
    -3
390
F
  0
ENDTAB
  0
TABLE
  2
STYLE
  5
3
330
0
100
AcDbSymbolTable
 70
     1
  0
STYLE
  5
11
330
3
100
AcDbSymbolTableRecord
100
AcDbTextStyleTableRecord
  2
Standard
 70
     0
 40
0.0
 41
1.0
 50
0.0
 71
     0
 42
0.2
  3
txt
  4

  0
ENDTAB
  0
TABLE
  2
VIEW
  5
6
330
0
100
AcDbSymbolTable
 70
     0
  0
ENDTAB
  0
TABLE
  2
UCS
  5
7
330
0
100
AcDbSymbolTable
 70
     0
  0
ENDTAB
  0
TABLE
  2
APPID
  5
9
330
0
100
AcDbSymbolTable
 70
     1
  0
APPID
  5
12
330
9
100
AcDbSymbolTableRecord
100
AcDbRegAppTableRecord
  2
ACAD
 70
     0
  0
ENDTAB
  0
TABLE
  2
DIMSTYLE
  5
A
330
0
100
AcDbSymbolTable
 70
     1
100
AcDbDimStyleTable
  0
DIMSTYLE
105
27
330
A
100
AcDbSymbolTableRecord
100
AcDbDimStyleTableRecord
  2
Standard
 70
     0
340
11
  0
ENDTAB
  0
TABLE
  2
BLOCK_RECORD
  5
1
330
0
100
AcDbSymbolTable
 70
     1
  0
BLOCK_RECORD
  5
1F
330
1
100
AcDbSymbolTableRecord
100
AcDbBlockTableRecord
  2
*Model_Space
340
22
  0
BLOCK_RECORD
  5
1B
330
1
100
AcDbSymbolTableRecord
100
AcDbBlockTableRecord
  2
*Paper_Space
340
1E
  0
BLOCK_RECORD
  5
23
330
1
100
AcDbSymbolTableRecord
100
AcDbBlockTableRecord
  2
*Paper_Space0
340
26
  0
ENDTAB
  0
ENDSEC
  0
SECTION
  2
BLOCKS
  0
BLOCK
  5
20
330
1F
100
AcDbEntity
  8
0
100
AcDbBlockBegin
  2
*Model_Space
 70
     0
 10
0.0
 20
0.0
 30
0.0
  3
*Model_Space
  1

  0
ENDBLK
  5
21
330
1F
100
AcDbEntity
  8
0
100
AcDbBlockEnd
  0
BLOCK
  5
1C
330
1B
100
AcDbEntity
 67
     1
  8
0
100
AcDbBlockBegin
  2
*Paper_Space
 70
     0
 10
0.0
 20
0.0
 30
0.0
  3
*Paper_Space
  1

  0
ENDBLK
  5
1D
330
1B
100
AcDbEntity
 67
     1
  8
0
100
AcDbBlockEnd
  0
BLOCK
  5
24
330
23
100
AcDbEntity
  8
0
100
AcDbBlockBegin
  2
*Paper_Space0
 70
     0
 10
0.0
 20
0.0
 30
0.0
  3
*Paper_Space0
  1

  0
ENDBLK
  5
25
330
23
100
AcDbEntity
  8
0
100
AcDbBlockEnd
  0
ENDSEC
  0
SECTION
  2
ENTITIES
  0
CIRCLE
  5
44
330
1F
100
AcDbEntity
  8
0
  6
Continuous
 62
     7
370
    15
100
AcDbCircle
 10
7.8832022086
 20
7.3669004105
 30
0.0
 40
0.0624999999999998
  0
LINE
  5
45
330
1F
100
AcDbEntity
  8
0
  6
Continuous
 62
     7
370
    15
100
AcDbLine
 10
8.3406822466
 20
9.2527257423
 30
0.0
 11
7.4321194358
 21
7.5840395191
 31
0.0
  0
ARC
  5
46
330
1F
100
AcDbEntity
  8
0
  6
Continuous
 62
     7
370
    15
100
AcDbCircle
 10
8.4285079481
 20
9.2049065722
 30
0.0
 40
0.1000000000000008
100
AcDbArc
 50
61.4326813256
 51
151.4326813256
  0
LINE
  5
47
330
1F
100
AcDbEntity
  8
0
  6
Continuous
 62
     7
370
    15
100
AcDbLine
 10
9.1789318164
 20
8.9101793594
 30
0.0
 11
8.4763271063
 21
9.2927321335
 31
0.0
  0
ARC
  5
48
330
1F
100
AcDbEntity
  8
0
  6
Continuous
 62
     7
370
    15
100
AcDbCircle
 10
9.1311126496
 20
8.8223537871
 30
0.0
 40
0.1
100
AcDbArc
 50
331.4326813256
 51
61.4326813256
  0
LINE
  5
49
330
1F
100
AcDbEntity
  8
0
  6
Continuous
 62
     7
370
    15
100
AcDbLine
 10
8.3103753967
 20
7.1058484965
 30
0.0
 11
9.2189382076
 21
8.7745347197
 31
0.0
  0
ARC
  5
4A
330
1F
100
AcDbEntity
  8
0
  6
Continuous
 62
     7
370
    15
100
AcDbCircle
 10
8.2225497848
 20
7.153667621
 30
0.0
 40
0.1000000000000009
100
AcDbArc
 50
241.4326813256
 51
331.4326813256
  0
LINE
  5
4B
330
1F
100
AcDbEntity
  8
0
  6
Continuous
 62
     7
370
    15
100
AcDbLine
 10
7.4721259736
 20
7.4483948061
 30
0.0
 11
8.1747308304
 21
7.065842032
 31
0.0
  0
ARC
  5
4C
330
1F
100
AcDbEntity
  8
0
  6
Continuous
 62
     7
370
    15
100
AcDbCircle
 10
7.5199450833
 20
7.5362204062
 30
0.0
 40
0.1000000000000013
100
AcDbArc
 50
151.4326813256
 51
241.4326813256
  0
CIRCLE
  5
4D
330
1F
100
AcDbEntity
  8
0
  6
Continuous
 62
     7
370
    15
100
AcDbCircle
 10
8.7678555243
 20
8.9916737827
 30
0.0
 40
0.0624999999999998
  0
ARC
  5
4E
330
1F
100
AcDbEntity
  8
0
  6
Continuous
 62
     7
370
    15
100
AcDbCircle
 10
8.7153789256
 20
11.6444384691
 30
0.0
 40
0.0999999999999993
100
AcDbArc
 50
60.6502758251
 51
150.6502758251
  0
LINE
  5
4F
330
1F
100
AcDbEntity
  8
0
  6
Continuous
 62
     7
370
    15
100
AcDbLine
 10
9.4617083364
 20
11.3394915425
 30
0.0
 11
8.7643929519
 21
11.7316029861
 31
0.0
  0
ARC
  5
50
330
1F
100
AcDbEntity
  8
0
  6
Continuous
 62
     7
370
    15
100
AcDbCircle
 10
9.4126943122
 20
11.2523271945
 30
0.0
 40
0.1000000000000017
100
AcDbArc
 50
330.6502758251
 51
60.6502758251
  0
ARC
  5
51
330
1F
100
AcDbEntity
  8
0
  6
Continuous
 62
     7
370
    15
100
AcDbCircle
 10
8.4814300351
 20
9.5962031514
 30
0.0
 40
0.0999999999999993
100
AcDbArc
 50
240.6502758251
 51
330.6502758251
  0
CIRCLE
  5
52
330
1F
100
AcDbEntity
  8
0
  6
Continuous
 62
     7
370
    15
100
AcDbCircle
 10
9.0517831415
 20
11.426591726
 30
0.0
 40
0.0624999999999994
  0
LINE
  5
53
330
1F
100
AcDbEntity
  8
0
  6
Continuous
 62
     7
370
    15
100
AcDbLine
 10
8.628214525
 20
11.6934524935
 30
0.0
 11
7.6969501764
 21
10.0373283452
 31
0.0
  0
LINE
  5
54
330
1F
100
AcDbEntity
  8
0
  6
Continuous
 62
     7
370
    15
100
AcDbLine
 10
8.5685943338
 20
9.5471892606
 30
0.0
 11
9.4998588291
 21
11.2033134089
 31
0.0
  0
ARC
  5
55
330
1F
100
AcDbEntity
  8
0
  6
Continuous
 62
     7
370
    15
100
AcDbCircle
 10
7.7841146485
 20
9.9883144259
 30
0.0
 40
0.0999999999999999
100
AcDbArc
 50
150.6502758251
 51
240.6502758251
  0
CIRCLE
  5
56
330
1F
100
AcDbEntity
  8
0
  6
Continuous
 62
     7
370
    15
100
AcDbCircle
 10
8.1450258191
 20
9.8140498945
 30
0.0
 40
0.0624999999999994
  0
LINE
  5
57
330
1F
100
AcDbEntity
  8
0
  6
Continuous
 62
     7
370
    15
100
AcDbLine
 10
7.735100669
 20
9.901150065
 30
0.0
 11
8.4324162002
 21
9.509038768
 31
0.0
  0
CIRCLE
  5
58
330
1F
100
AcDbEntity
  8
0
  6
Continuous
 62
     7
370
    15
100
AcDbCircle
 10
9.7794129901
 20
0.5849019608
 30
0.0
 40
0.0625000000000003
  0
LINE
  5
59
330
1F
100
AcDbEntity
  8
0
  6
Continuous
 62
     7
370
    15
100
AcDbLine
 10
9.2522555027
 20
2.4524486863
 30
0.0
 11
9.2798285175
 21
0.5526486063
 31
0.0
  0
ARC
  5
5A
330
1F
100
AcDbEntity
  8
0
  6
Continuous
 62
     7
370
    15
100
AcDbCircle
 10
9.3522449104
 20
2.4538996686
 30
0.0
 40
0.1000000000000007
100
AcDbArc
 50
90.8315117175
 51
180.8315117175
  0
LINE
  5
5B
330
1F
100
AcDbEntity
  8
0
  6
Continuous
 62
     7
370
    15
100
AcDbLine
 10
10.150709577
 20
2.5654986337
 30
0.0
 11
9.3507938311
 21
2.5538892212
 31
0.0
  0
ARC
  5
5C
330
1F
100
AcDbEntity
  8
0
  6
Continuous
 62
     7
370
    15
100
AcDbCircle
 10
10.1521606655
 20
2.4655093549
 30
0.0
 40
0.1000000000000011
100
AcDbArc
 50
0.8315117175
 51
90.8315117175
  0
ARC
  5
5D
330
1F
100
AcDbEntity
  8
0
  6
Continuous
 62
     7
370
    15
100
AcDbCircle
 10
10.1797336703
 20
0.5657094366
 30
0.0
 40
0.1000000000000011
100
AcDbArc
 50
270.8315117175
 51
0.8315117175
  0
ARC
  5
5E
330
1F
100
AcDbEntity
  8
0
  6
Continuous
 62
     7
370
    15
100
AcDbCircle
 10
9.3798179153
 20
0.5540997504
 30
0.0
 40
0.1000000000000006
100
AcDbArc
 50
180.8315117175
 51
270.8315117175
  0
CIRCLE
  5
5F
330
1F
100
AcDbEntity
  8
0
  6
Continuous
 62
     7
370
    15
100
AcDbCircle
 10
9.7525655906
 20
2.4347071444
 30
0.0
 40
0.0625000000000005
  0
LINE
  5
60
330
1F
100
AcDbEntity
  8
0
  6
Continuous
 62
     7
370
    15
100
AcDbLine
 10
10.2797231267
 20
0.567160812
 30
0.0
 11
10.2521501119
 21
2.4669603054
 31
0.0
  0
LINE
  5
61
330
1F
100
AcDbEntity
  8
0
  6
Continuous
 62
     7
370
    15
100
AcDbLine
 10
9.3812690524
 20
0.454110278
 30
0.0
 11
10.1811847983
 21
0.4657196905
 31
0.0
  0
CIRCLE
  5
62
330
1F
100
AcDbEntity
  8
0
  6
Continuous
 62
     7
370
    15
100
AcDbCircle
 10
6.9628443537
 20
5.9928887792
 30
0.0
 40
0.04
  0
LINE
  5
63
330
1F
100
AcDbEntity
  8
0
  6
Continuous
 62
     7
370
    15
100
AcDbLine
 10
7.0868444244
 20
6.8553887965
 30
0.0
 11
7.0868444244
 21
7.3803887884
 31
0.0
  0
ARC
  5
64
330
1F
100
AcDbEntity
  8
0
  6
Continuous
 62
     7
370
    15
100
AcDbCircle
 10
7.1868443537
 20
6.8553887792
 30
0.0
 40
0.0999999999999996
100
AcDbArc
 50
180.0
 51
270.0
  0
LINE
  5
65
330
1F
100
AcDbEntity
  8
0
  6
Continuous
 62
     7
370
    15
100
AcDbLine
 10
8.9868444088
 20
6.7553888051
 30
0.0
 11
7.1868444159
 21
6.7553888051
 31
0.0
  0
ARC
  5
66
330
1F
100
AcDbEntity
  8
0
  6
Continuous
 62
     7
370
    15
100
AcDbCircle
 10
8.9868443537
 20
6.6553887792
 30
0.0
 40
0.1000000000000005
100
AcDbArc
 50
0.0
 51
90.0
  0
LINE
  5
67
330
1F
100
AcDbEntity
  8
0
  6
Continuous
 62
     7
370
    15
100
AcDbLine
 10
9.0868444002
 20
5.3958380974
 30
0.0
 11
9.0868444002
 21
6.6553888136
 31
0.0
  0
LINE
  5
68
330
1F
100
AcDbEntity
  8
0
  6
Continuous
 62
     7
370
    15
100
AcDbLine
 10
7.0327825423
 20
4.2099247838
 30
0.0
 11
9.0868444002
 21
5.3958380974
 31
0.0
  0
ARC
  5
69
330
1F
100
AcDbEntity
  8
0
  6
Continuous
 62
     7
370
    15
100
AcDbCircle
 10
6.9827826013
 20
4.2965274063
 30
0.0
 40
0.1000000000000007
100
AcDbArc
 50
210.0
 51
300.0
  0
LINE
  5
6A
330
1F
100
AcDbEntity
  8
0
  6
Continuous
 62
     7
370
    15
100
AcDbLine
 10
4.3142498937
 20
4.8026651098
 30
0.0
 11
5.2142498901
 21
6.3615107819
 31
0.0
  0
ARC
  5
6B
330
1F
100
AcDbEntity
  8
0
  6
Continuous
 62
     7
370
    15
100
AcDbCircle
 10
4.2276473504
 20
4.8526651082
 30
0.0
 40
0.1000000000000012
100
AcDbArc
 50
240.0
 51
330.0
  0
LINE
  5
6C
330
1F
100
AcDbEntity
  8
0
  6
Continuous
 62
     7
370
    15
100
AcDbLine
 10
3.0868443261
 20
5.3958380974
 30
0.0
 11
4.1776473117
 21
4.7660625193
 31
0.0
  0
LINE
  5
6D
330
1F
100
AcDbEntity
  8
0
  6
Continuous
 62
     7
370
    15
100
AcDbLine
 10
3.0868443261
 20
7.7676641837
 30
0.0
 11
3.0868443261
 21
5.3958380974
 31
0.0
  0
LINE
  5
6E
330
1F
100
AcDbEntity
  8
0
  6
Continuous
 62
     7
370
    15
100
AcDbLine
 10
5.3681729453
 20
7.867664182
 30
0.0
 11
3.1868443175
 21
7.867664182
 31
0.0
  0
LINE
  5
6F
330
1F
100
AcDbEntity
  8
0
  6
Continuous
 62
     7
370
    15
100
AcDbLine
 10
5.8228362847
 20
8.1301641802
 30
0.0
 11
5.3681729453
 21
7.867664182
 31
0.0
  0
ARC
  5
70
330
1F
100
AcDbEntity
  8
0
  6
Continuous
 62
     7
370
    15
100
AcDbCircle
 10
5.7728362762
 20
8.2167667233
 30
0.0
 40
0.0999999999999992
100
AcDbArc
 50
300.0
 51
30.0
  0
LINE
  5
71
330
1F
100
AcDbEntity
  8
0
  6
Continuous
 62
     7
370
    15
100
AcDbLine
 10
4.959438787
 20
9.8256124709
 30
0.0
 11
5.8594388202
 21
8.2667667255
 31
0.0
  0
ARC
  5
72
330
1F
100
AcDbEntity
  8
0
  6
Continuous
 62
     7
370
    15
100
AcDbCircle
 10
5.046041357
 20
9.8756124501
 30
0.0
 40
0.1000000000000007
100
AcDbArc
 50
120.0
 51
210.0
  0
LINE
  5
73
330
1F
100
AcDbEntity
  8
0
  6
Continuous
 62
     7
370
    15
100
AcDbLine
 10
6.0868443632
 20
10.5919903377
 30
0.0
 11
4.9960413775
 21
9.9622150529
 31
0.0
  0
ARC
  5
74
330
1F
100
AcDbEntity
  8
0
  6
Continuous
 62
     7
370
    15
100
AcDbCircle
 10
8.0909061061
 20
9.3194747482
 30
0.0
 40
0.1000000000000015
100
AcDbArc
 50
330.0
 51
60.0
  0
LINE
  5
75
330
1F
100
AcDbEntity
  8
0
  6
Continuous
 62
     7
370
    15
100
AcDbLine
 10
7.0868444244
 20
7.3803887884
 30
0.0
 11
8.177508665
 21
9.2694747355
 31
0.0
  0
CIRCLE
  5
76
330
1F
100
AcDbEntity
  8
0
  6
Continuous
 62
     7
370
    15
100
AcDbCircle
 10
8.8128443537
 20
5.9928887792
 30
0.0
 40
0.04
  0
CIRCLE
  5
77
330
1F
100
AcDbEntity
  8
0
  6
Continuous
 62
     7
370
    15
100
AcDbCircle
 10
7.1395367326
 20
4.7045720942
 30
0.0
 40
0.0625
  0
LINE
  5
78
330
1F
100
AcDbEntity
  8
0
  6
Continuous
 62
     7
370
    15
100
AcDbLine
 10
5.3508524354
 20
6.3981133724
 30
0.0
 11
5.8055157748
 21
6.1356134314
 31
0.0
  0
ARC
  5
79
330
1F
100
AcDbEntity
  8
0
  6
Continuous
 62
     7
370
    15
100
AcDbCircle
 10
5.3008524312
 20
6.311510835
 30
0.0
 40
0.0999999999999995
100
AcDbArc
 50
60.0
 51
150.0
  0
CIRCLE
  5
7A
330
1F
100
AcDbEntity
  8
0
  6
Continuous
 62
     7
370
    15
100
AcDbCircle
 10
3.4618443537
 20
7.4278887792
 30
0.0
 40
0.0624999999999991
  0
CIRCLE
  5
7B
330
1F
100
AcDbEntity
  8
0
  6
Continuous
 62
     7
370
    15
100
AcDbCircle
 10
6.631783187
 20
8.4540270329
 30
0.0
 40
0.0400000000000009
  0
CIRCLE
  5
7C
330
1F
100
AcDbEntity
  8
0
  6
Continuous
 62
     7
370
    15
100
AcDbCircle
 10
4.6659055204
 20
6.9367505254
 30
0.0
 40
0.0399999999999991
  0
CIRCLE
  5
7D
330
1F
100
AcDbEntity
  8
0
  6
Continuous
 62
     7
370
    15
100
AcDbCircle
 10
6.8895367326
 20
5.1375847961
 30
0.0
 40
0.0625
  0
CIRCLE
  5
7E
330
1F
100
AcDbEntity
  8
0
  6
Continuous
 62
     7
370
    15
100
AcDbCircle
 10
5.706783187
 20
10.0561740299
 30
0.0
 40
0.0400000000000009
  0
CIRCLE
  5
7F
330
1F
100
AcDbEntity
  8
0
  6
Continuous
 62
     7
370
    15
100
AcDbCircle
 10
3.7409055204
 20
5.3346035284
 30
0.0
 40
0.04
  0
CIRCLE
  5
80
330
1F
100
AcDbEntity
  8
0
  6
Continuous
 62
     7
370
    15
100
AcDbCircle
 10
7.4091519749
 20
8.8181927622
 30
0.0
 40
0.0625
  0
LINE
  5
81
330
1F
100
AcDbEntity
  8
0
  6
Continuous
 62
     7
370
    15
100
AcDbLine
 10
5.8055157748
 20
6.1356134314
 30
0.0
 11
6.896180107
 21
4.2465273743
 31
0.0
  0
CIRCLE
  5
82
330
1F
100
AcDbEntity
  8
0
  6
Continuous
 62
     7
370
    15
100
AcDbCircle
 10
3.9618443537
 20
7.4278887792
 30
0.0
 40
0.0625
  0
LINE
  5
83
330
1F
100
AcDbEntity
  8
0
  6
Continuous
 62
     7
370
    15
100
AcDbLine
 10
8.1409060745
 20
9.4060773174
 30
0.0
 11
6.0868443632
 21
10.5919903377
 31
0.0
  0
ARC
  5
84
330
1F
100
AcDbEntity
  8
0
  6
Continuous
 62
     7
370
    15
100
AcDbCircle
 10
3.1868443537
 20
7.7676641829
 30
0.0
 40
0.1000000000000005
100
AcDbArc
 50
90.0
 51
180.0
  0
CIRCLE
  5
85
330
1F
100
AcDbEntity
  8
0
  6
Continuous
 62
     7
370
    15
100
AcDbCircle
 10
7.6591519749
 20
9.2512054641
 30
0.0
 40
0.0625
  0
LINE
  5
86
330
1F
100
AcDbEntity
  8
0
  6
Continuous
 62
     7
370
    15
100
AcDbLine
 10
5.550252939
 20
6.0310137331
 30
0.0
 11
5.1752529206
 21
6.0310137331
 31
0.0
  0
LINE
  5
87
330
1F
100
AcDbEntity
  8
0
  6
Continuous
 62
     7
370
    15
100
AcDbLine
 10
5.550252939
 20
5.8432872618
 30
0.0
 11
5.550252939
 21
6.0310137331
 31
0.0
  0
LINE
  5
88
330
1F
100
AcDbEntity
  8
0
  6
Continuous
 62
     7
370
    15
100
AcDbLine
 10
5.4052529303
 20
5.9082872709
 30
0.0
 11
5.4052529303
 21
5.8432872618
 31
0.0
  0
LINE
  5
89
330
1F
100
AcDbEntity
  8
0
  6
Continuous
 62
     7
370
    15
100
AcDbLine
 10
5.2952529544
 20
5.9082872709
 30
0.0
 11
5.4052529303
 21
5.9082872709
 31
0.0
  0
LINE
  5
8A
330
1F
100
AcDbEntity
  8
0
  6
Continuous
 62
     7
370
    15
100
AcDbLine
 10
5.4052529303
 20
5.65328719
 30
0.0
 11
5.2952529544
 21
5.65328719
 31
0.0
  0
LINE
  5
8B
330
1F
100
AcDbEntity
  8
0
  6
Continuous
 62
     7
370
    15
100
AcDbLine
 10
5.4052529303
 20
5.7182871991
 30
0.0
 11
5.4052529303
 21
5.65328719
 31
0.0
  0
LINE
  5
8C
330
1F
100
AcDbEntity
  8
0
  6
Continuous
 62
     7
370
    15
100
AcDbLine
 10
5.550252939
 20
5.5310137758
 30
0.0
 11
5.550252939
 21
5.7182871991
 31
0.0
  0
LINE
  5
8D
330
1F
100
AcDbEntity
  8
0
  6
Continuous
 62
     7
370
    15
100
AcDbLine
 10
5.6752529375
 20
5.5310137758
 30
0.0
 11
5.550252939
 21
5.5310137758
 31
0.0
  0
LINE
  5
8E
330
1F
100
AcDbEntity
  8
0
  6
Continuous
 62
     7
370
    15
100
AcDbLine
 10
5.1752529206
 20
6.0310137331
 30
0.0
 11
5.1752529206
 21
5.1560138812
 31
0.0
  0
LINE
  5
8F
330
1F
100
AcDbEntity
  8
0
  6
Continuous
 62
     7
370
    15
100
AcDbLine
 10
5.1752529206
 20
5.1560138812
 30
0.0
 11
5.6752529375
 21
5.1560138812
 31
0.0
  0
LINE
  5
90
330
1F
100
AcDbEntity
  8
0
  6
Continuous
 62
     7
370
    15
100
AcDbLine
 10
5.6752529375
 20
5.1560138812
 30
0.0
 11
5.6752529375
 21
5.5310137758
 31
0.0
  0
LINE
  5
91
330
1F
100
AcDbEntity
  8
0
  6
Continuous
 62
     7
370
    15
100
AcDbLine
 10
5.550252939
 20
5.7182871991
 30
0.0
 11
5.4052529303
 21
5.7182871991
 31
0.0
  0
LINE
  5
92
330
1F
100
AcDbEntity
  8
0
  6
Continuous
 62
     7
370
    15
100
AcDbLine
 10
5.2952529544
 20
5.65328719
 30
0.0
 11
5.2952529544
 21
5.9082872709
 31
0.0
  0
CIRCLE
  5
93
330
1F
100
AcDbEntity
  8
0
  6
Continuous
 62
     7
370
    15
100
AcDbCircle
 10
5.4252529369
 20
5.3435137647
 30
0.0
 40
0.0625000000000009
  0
LINE
  5
94
330
1F
100
AcDbEntity
  8
0
  6
Continuous
 62
     7
370
    15
100
AcDbLine
 10
5.4052529303
 20
5.8432872618
 30
0.0
 11
5.550252939
 21
5.8432872618
 31
0.0
  0
CIRCLE
  5
95
330
1F
100
AcDbEntity
  8
0
  6
Continuous
 62
     7
370
    15
100
AcDbCircle
 10
6.048977881
 20
4.4707579176
 30
0.0
 40
0.0625
  0
LINE
  5
96
330
1F
100
AcDbEntity
  8
0
  6
Continuous
 62
     7
370
    15
100
AcDbLine
 10
6.1739778766
 20
5.1582578553
 30
0.0
 11
5.798977872
 21
5.1582578553
 31
0.0
  0
LINE
  5
97
330
1F
100
AcDbEntity
  8
0
  6
Continuous
 62
     7
370
    15
100
AcDbLine
 10
6.1739778766
 20
4.9705313839
 30
0.0
 11
6.1739778766
 21
5.1582578553
 31
0.0
  0
LINE
  5
98
330
1F
100
AcDbEntity
  8
0
  6
Continuous
 62
     7
370
    15
100
AcDbLine
 10
6.0289778816
 20
4.9705313839
 30
0.0
 11
6.1739778766
 21
4.9705313839
 31
0.0
  0
LINE
  5
99
330
1F
100
AcDbEntity
  8
0
  6
Continuous
 62
     7
370
    15
100
AcDbLine
 10
6.0289778816
 20
5.0355312464
 30
0.0
 11
6.0289778816
 21
4.9705313839
 31
0.0
  0
LINE
  5
9A
330
1F
100
AcDbEntity
  8
0
  6
Continuous
 62
     7
370
    15
100
AcDbLine
 10
5.9189778874
 20
5.0355312464
 30
0.0
 11
6.0289778816
 21
5.0355312464
 31
0.0
  0
LINE
  5
9B
330
1F
100
AcDbEntity
  8
0
  6
Continuous
 62
     7
370
    15
100
AcDbLine
 10
5.9189778874
 20
4.7805313121
 30
0.0
 11
5.9189778874
 21
5.0355312464
 31
0.0
  0
LINE
  5
9C
330
1F
100
AcDbEntity
  8
0
  6
Continuous
 62
     7
370
    15
100
AcDbLine
 10
6.0289778816
 20
4.7805313121
 30
0.0
 11
5.9189778874
 21
4.7805313121
 31
0.0
  0
LINE
  5
9D
330
1F
100
AcDbEntity
  8
0
  6
Continuous
 62
     7
370
    15
100
AcDbLine
 10
6.0289778816
 20
4.8455314679
 30
0.0
 11
6.0289778816
 21
4.7805313121
 31
0.0
  0
LINE
  5
9E
330
1F
100
AcDbEntity
  8
0
  6
Continuous
 62
     7
370
    15
100
AcDbLine
 10
6.1739778766
 20
4.8455314679
 30
0.0
 11
6.0289778816
 21
4.8455314679
 31
0.0
  0
LINE
  5
9F
330
1F
100
AcDbEntity
  8
0
  6
Continuous
 62
     7
370
    15
100
AcDbLine
 10
6.1739778766
 20
4.658257898
 30
0.0
 11
6.1739778766
 21
4.8455314679
 31
0.0
  0
LINE
  5
A0
330
1F
100
AcDbEntity
  8
0
  6
Continuous
 62
     7
370
    15
100
AcDbLine
 10
6.2989778659
 20
4.658257898
 30
0.0
 11
6.1739778766
 21
4.658257898
 31
0.0
  0
LINE
  5
A1
330
1F
100
AcDbEntity
  8
0
  6
Continuous
 62
     7
370
    15
100
AcDbLine
 10
6.2989778659
 20
4.2832578567
 30
0.0
 11
6.2989778659
 21
4.658257898
 31
0.0
  0
LINE
  5
A2
330
1F
100
AcDbEntity
  8
0
  6
Continuous
 62
     7
370
    15
100
AcDbLine
 10
5.798977872
 20
4.2832578567
 30
0.0
 11
6.2989778659
 21
4.2832578567
 31
0.0
  0
LINE
  5
A3
330
1F
100
AcDbEntity
  8
0
  6
Continuous
 62
     7
370
    15
100
AcDbLine
 10
5.798977872
 20
5.1582578553
 30
0.0
 11
5.798977872
 21
4.2832578567
 31
0.0
  0
CIRCLE
  5
A4
330
1F
100
AcDbEntity
  8
0
  6
Continuous
 62
     7
370
    15
100
AcDbCircle
 10
5.3392657183
 20
4.6954373695
 30
0.0
 40
0.0624999999999986
  0
LINE
  5
A5
330
1F
100
AcDbEntity
  8
0
  6
Continuous
 62
     7
370
    15
100
AcDbLine
 10
4.7011798838
 20
4.9802667114
 30
0.0
 11
4.6120463002
 21
4.6160136927
 31
0.0
  0
LINE
  5
A6
330
1F
100
AcDbEntity
  8
0
  6
Continuous
 62
     7
370
    15
100
AcDbLine
 10
4.8835263907
 20
4.9356459469
 30
0.0
 11
4.7011798838
 21
4.9802667114
 31
0.0
  0
LINE
  5
A7
330
1F
100
AcDbEntity
  8
0
  6
Continuous
 62
     7
370
    15
100
AcDbLine
 10
4.8490613688
 20
4.7948015206
 30
0.0
 11
4.8835263907
 21
4.9356459469
 31
0.0
  0
LINE
  5
A8
330
1F
100
AcDbEntity
  8
0
  6
Continuous
 62
     7
370
    15
100
AcDbLine
 10
4.7859242248
 20
4.8102515021
 30
0.0
 11
4.8490613688
 21
4.7948015206
 31
0.0
  0
LINE
  5
A9
330
1F
100
AcDbEntity
  8
0
  6
Continuous
 62
     7
370
    15
100
AcDbLine
 10
4.7597783335
 20
4.7034037231
 30
0.0
 11
4.7859242248
 21
4.8102515021
 31
0.0
  0
LINE
  5
AA
330
1F
100
AcDbEntity
  8
0
  6
Continuous
 62
     7
370
    15
100
AcDbLine
 10
5.0074703555
 20
4.6427929566
 30
0.0
 11
4.7597783335
 21
4.7034037231
 31
0.0
  0
LINE
  5
AB
330
1F
100
AcDbEntity
  8
0
  6
Continuous
 62
     7
370
    15
100
AcDbLine
 10
5.0336162101
 20
4.7496404423
 30
0.0
 11
5.0074703555
 21
4.6427929566
 31
0.0
  0
LINE
  5
AC
330
1F
100
AcDbEntity
  8
0
  6
Continuous
 62
     7
370
    15
100
AcDbLine
 10
4.9704790662
 20
4.7650904238
 30
0.0
 11
5.0336162101
 21
4.7496404423
 31
0.0
  0
LINE
  5
AD
330
1F
100
AcDbEntity
  8
0
  6
Continuous
 62
     7
370
    15
100
AcDbLine
 10
5.0049440147
 20
4.9059348501
 30
0.0
 11
4.9704790662
 21
4.7650904238
 31
0.0
  0
LINE
  5
AE
330
1F
100
AcDbEntity
  8
0
  6
Continuous
 62
     7
370
    15
100
AcDbLine
 10
5.1868504533
 20
4.8614217377
 30
0.0
 11
5.0049440147
 21
4.9059348501
 31
0.0
  0
LINE
  5
AF
330
1F
100
AcDbEntity
  8
0
  6
Continuous
 62
     7
370
    15
100
AcDbLine
 10
5.2165616601
 20
4.9828395084
 30
0.0
 11
5.1868504533
 21
4.8614217377
 31
0.0
  0
LINE
  5
B0
330
1F
100
AcDbEntity
  8
0
  6
Continuous
 62
     7
370
    15
100
AcDbLine
 10
5.5808145964
 20
4.8937059247
 30
0.0
 11
5.2165616601
 21
4.9828395084
 31
0.0
  0
LINE
  5
B1
330
1F
100
AcDbEntity
  8
0
  6
Continuous
 62
     7
370
    15
100
AcDbLine
 10
5.4619697784
 20
4.4080351352
 30
0.0
 11
5.5808145964
 21
4.8937059247
 31
0.0
  0
LINE
  5
B2
330
1F
100
AcDbEntity
  8
0
  6
Continuous
 62
     7
370
    15
100
AcDbLine
 10
4.6120463002
 20
4.6160136927
 30
0.0
 11
5.4619697784
 21
4.4080351352
 31
0.0
  0
CIRCLE
  5
B3
330
1F
100
AcDbEntity
  8
0
  6
Continuous
 62
     7
370
    15
100
AcDbCircle
 10
7.7644504783
 20
2.1592910234
 30
0.0
 40
0.0399999999999997
  0
CIRCLE
  5
B4
330
1F
100
AcDbEntity
  8
0
  6
Continuous
 62
     7
370
    15
100
AcDbCircle
 10
8.7643283587
 20
2.1436633422
 30
0.0
 40
0.0400000000000006
  0
CIRCLE
  5
B5
330
1F
100
AcDbEntity
  8
0
  6
Continuous
 62
     7
370
    15
100
AcDbCircle
 10
8.2643894185
 20
2.1514771828
 30
0.0
 40
0.1399999999999998
  0
LINE
  5
B6
330
1F
100
AcDbEntity
  8
0
  6
Continuous
 62
     7
370
    15
100
AcDbLine
 10
8.2198341227
 20
2.9001523144
 30
0.0
 11
3.242722352
 21
2.6039530162
 31
0.0
  0
LINE
  5
B7
330
1F
100
AcDbEntity
  8
0
  6
Continuous
 62
     7
370
    15
100
AcDbLine
 10
3.2310346204
 20
1.8561570148
 30
0.0
 11
8.1964586594
 21
1.404559725
 31
0.0
  0
ARC
  5
B8
330
1F
100
AcDbEntity
  8
0
  6
Continuous
 62
     7
370
    15
100
AcDbCircle
 10
3.2650000168
 20
2.2296155887
 30
0.0
 40
0.3750000000000002
100
AcDbArc
 50
93.4057856797
 51
264.8033410704
  0
CIRCLE
  5
B9
330
1F
100
AcDbEntity
  8
0
  6
Continuous
 62
     7
370
    15
100
AcDbCircle
 10
3.2650000168
 20
2.2296155887
 30
0.0
 40
0.0624999999999997
  0
CIRCLE
  5
BA
330
1F
100
AcDbEntity
  8
0
  6
Continuous
 62
     7
370
    15
100
AcDbCircle
 10
8.2722032591
 20
2.651416123
 30
0.0
 40
0.0399999999999997
  0
CIRCLE
  5
BB
330
1F
100
AcDbEntity
  8
0
  6
Continuous
 62
     7
370
    15
100
AcDbCircle
 10
8.2565755779
 20
1.6515382427
 30
0.0
 40
0.0399999999999995
  0
ARC
  5
BC
330
1F
100
AcDbEntity
  8
0
  6
Continuous
 62
     7
370
    15
100
AcDbCircle
 10
8.2643894185
 20
2.1514771828
 30
0.0
 40
0.7500000000000006
100
AcDbArc
 50
264.8033410704
 51
93.4057856797
  0
CIRCLE
  5
BD
330
1F
100
AcDbEntity
  8
0
  6
Continuous
 62
     7
370
    15
100
AcDbCircle
 10
4.1272147548
 20
3.5889820852
 30
0.0
 40
0.0399999999999997
  0
CIRCLE
  5
BE
330
1F
100
AcDbEntity
  8
0
  6
Continuous
 62
     7
370
    15
100
AcDbCircle
 10
3.1273405949
 20
3.6048460175
 30
0.0
 40
0.0399999999999998
  0
CIRCLE
  5
BF
330
1F
100
AcDbEntity
  8
0
  6
Continuous
 62
     7
370
    15
100
AcDbCircle
 10
3.6272776748
 20
3.5969140514
 30
0.0
 40
0.1400000000000002
  0
LINE
  5
C0
330
1F
100
AcDbEntity
  8
0
  6
Continuous
 62
     7
370
    15
100
AcDbLine
 10
3.6716560903
 20
2.8482282209
 30
0.0
 11
8.6488376735
 21
3.1432515595
 31
0.0
  0
ARC
  5
C1
330
1F
100
AcDbEntity
  8
0
  6
Continuous
 62
     7
370
    15
100
AcDbCircle
 10
3.6272776748
 20
3.5969140514
 30
0.0
 40
0.7500000000000002
100
AcDbArc
 50
84.789803197
 51
273.3922478063
  0
LINE
  5
C2
330
1F
100
AcDbEntity
  8
0
  6
Continuous
 62
     7
370
    15
100
AcDbLine
 10
8.6607022831
 20
3.8910449209
 30
0.0
 11
3.6953850162
 21
4.3438152371
 31
0.0
  0
ARC
  5
C3
330
1F
100
AcDbEntity
  8
0
  6
Continuous
 62
     7
370
    15
100
AcDbCircle
 10
8.6266484744
 20
3.5175943897
 30
0.0
 40
0.3750000000000002
100
AcDbArc
 50
273.3922478063
 51
84.789803197
  0
CIRCLE
  5
C4
330
1F
100
AcDbEntity
  8
0
  6
Continuous
 62
     7
370
    15
100
AcDbCircle
 10
8.6266484744
 20
3.5175943897
 30
0.0
 40
0.062499999999999
  0
CIRCLE
  5
C5
330
1F
100
AcDbEntity
  8
0
  6
Continuous
 62
     7
370
    15
100
AcDbCircle
 10
3.6193457087
 20
3.0969769714
 30
0.0
 40
0.0399999999999998
  0
CIRCLE
  5
C6
330
1F
100
AcDbEntity
  8
0
  6
Continuous
 62
     7
370
    15
100
AcDbCircle
 10
3.635209641
 20
4.0968511313
 30
0.0
 40
0.0399999999999993
  0
CIRCLE
  5
C7
330
1F
100
AcDbEntity
  8
0
  6
Continuous
 62
     7
370
    15
100
AcDbCircle
 10
4.0748819566
 20
0.9173679566
 30
0.0
 40
0.0399999999999996
  0
CIRCLE
  5
C8
330
1F
100
AcDbEntity
  8
0
  6
Continuous
 62
     7
370
    15
100
AcDbCircle
 10
3.5750224186
 20
0.9292187908
 30
0.0
 40
0.1400000000000003
  0
LINE
  5
C9
330
1F
100
AcDbEntity
  8
0
  6
Continuous
 62
     7
370
    15
100
AcDbLine
 10
3.6135304151
 20
0.1802081621
 30
0.0
 11
8.5928717867
 21
0.4362048315
 31
0.0
  0
LINE
  5
CA
330
1F
100
AcDbEntity
  8
0
  6
Continuous
 62
     7
370
    15
100
AcDbLine
 10
8.6105980085
 20
1.1838823276
 30
0.0
 11
3.6489828589
 21
1.6755631543
 31
0.0
  0
ARC
  5
CB
330
1F
100
AcDbEntity
  8
0
  6
Continuous
 62
     7
370
    15
100
AcDbCircle
 10
8.5736177986
 20
0.8107104486
 30
0.0
 40
0.3749999999999998
100
AcDbArc
 50
272.9430895554
 51
84.340644946
  0
CIRCLE
  5
CC
330
1F
100
AcDbEntity
  8
0
  6
Continuous
 62
     7
370
    15
100
AcDbCircle
 10
8.5736177986
 20
0.8107104486
 30
0.0
 40
0.0624999999999985
  0
CIRCLE
  5
CD
330
1F
100
AcDbEntity
  8
0
  6
Continuous
 62
     7
370
    15
100
AcDbCircle
 10
3.5631715843
 20
0.4293592528
 30
0.0
 40
0.0399999999999997
  0
CIRCLE
  5
CE
330
1F
100
AcDbEntity
  8
0
  6
Continuous
 62
     7
370
    15
100
AcDbCircle
 10
3.5868732528
 20
1.4290783288
 30
0.0
 40
0.0399999999999997
  0
ARC
  5
CF
330
1F
100
AcDbEntity
  8
0
  6
Continuous
 62
     7
370
    15
100
AcDbCircle
 10
3.5750224186
 20
0.9292187908
 30
0.0
 40
0.7499999999999996
100
AcDbArc
 50
84.340644946
 51
272.9430895554
  0
CIRCLE
  5
D0
330
1F
100
AcDbEntity
  8
0
  6
Continuous
 62
     7
370
    15
100
AcDbCircle
 10
3.0751628806
 20
0.941069625
 30
0.0
 40
0.0400000000000008
  0
LINE
  5
D1
330
1F
100
AcDbEntity
  8
0
  6
Continuous
 62
     7
370
    15
100
AcDbLine
 10
7.6273676202
 20
10.7722806016
 30
0.0
 11
6.4741995351
 21
11.2546740156
 31
0.0
  0
LINE
  5
D2
330
1F
100
AcDbEntity
  8
0
  6
Continuous
 62
     7
370
    15
100
AcDbLine
 10
7.4344103426
 20
10.3110132502
 30
0.0
 11
7.6273676202
 21
10.7722806016
 31
0.0
  0
LINE
  5
D3
330
1F
100
AcDbEntity
  8
0
  6
Continuous
 62
     7
370
    15
100
AcDbLine
 10
7.1461183397
 20
10.4316116037
 30
0.0
 11
7.4344103426
 21
10.3110132502
 31
0.0
  0
LINE
  5
D4
330
1F
100
AcDbEntity
  8
0
  6
Continuous
 62
     7
370
    15
100
AcDbLine
 10
7.2020758666
 20
10.5653791518
 30
0.0
 11
7.1461183397
 21
10.4316116037
 31
0.0
  0
LINE
  5
D5
330
1F
100
AcDbEntity
  8
0
  6
Continuous
 62
     7
370
    15
100
AcDbLine
 10
7.2597342672
 20
10.5412595104
 30
0.0
 11
7.2020758666
 21
10.5653791518
 31
0.0
  0
LINE
  5
D6
330
1F
100
AcDbEntity
  8
0
  6
Continuous
 62
     7
370
    15
100
AcDbLine
 10
7.3021849768
 20
10.6427381781
 30
0.0
 11
7.2597342672
 21
10.5412595104
 31
0.0
  0
LINE
  5
D7
330
1F
100
AcDbEntity
  8
0
  6
Continuous
 62
     7
370
    15
100
AcDbLine
 10
7.0715513744
 20
10.7392170369
 30
0.0
 11
7.3021849768
 21
10.6427381781
 31
0.0
  0
LINE
  5
D8
330
1F
100
AcDbEntity
  8
0
  6
Continuous
 62
     7
370
    15
100
AcDbLine
 10
7.0291006648
 20
10.6377380759
 30
0.0
 11
7.0715513744
 21
10.7392170369
 31
0.0
  0
LINE
  5
D9
330
1F
100
AcDbEntity
  8
0
  6
Continuous
 62
     7
370
    15
100
AcDbLine
 10
7.0867590654
 20
10.6136184345
 30
0.0
 11
7.0291006648
 21
10.6377380759
 31
0.0
  0
LINE
  5
DA
330
1F
100
AcDbEntity
  8
0
  6
Continuous
 62
     7
370
    15
100
AcDbLine
 10
7.0308015385
 20
10.4798508864
 30
0.0
 11
7.0867590654
 21
10.6136184345
 31
0.0
  0
LINE
  5
DB
330
1F
100
AcDbEntity
  8
0
  6
Continuous
 62
     7
370
    15
100
AcDbLine
 10
6.6848510616
 20
10.624569028
 30
0.0
 11
7.0308015385
 21
10.4798508864
 31
0.0
  0
LINE
  5
DC
330
1F
100
AcDbEntity
  8
0
  6
Continuous
 62
     7
370
    15
100
AcDbLine
 10
6.7408086618
 20
10.758336576
 30
0.0
 11
6.6848510616
 21
10.624569028
 31
0.0
  0
LINE
  5
DD
330
1F
100
AcDbEntity
  8
0
  6
Continuous
 62
     7
370
    15
100
AcDbLine
 10
6.7984670624
 20
10.7342169347
 30
0.0
 11
6.7408086618
 21
10.758336576
 31
0.0
  0
LINE
  5
DE
330
1F
100
AcDbEntity
  8
0
  6
Continuous
 62
     7
370
    15
100
AcDbLine
 10
6.8409176987
 20
10.8356956024
 30
0.0
 11
6.7984670624
 21
10.7342169347
 31
0.0
  0
LINE
  5
DF
330
1F
100
AcDbEntity
  8
0
  6
Continuous
 62
     7
370
    15
100
AcDbLine
 10
6.6102840963
 20
10.9321741678
 30
0.0
 11
6.8409176987
 21
10.8356956024
 31
0.0
  0
LINE
  5
E0
330
1F
100
AcDbEntity
  8
0
  6
Continuous
 62
     7
370
    15
100
AcDbLine
 10
6.5678334601
 20
10.8306955001
 30
0.0
 11
6.6102840963
 21
10.9321741678
 31
0.0
  0
LINE
  5
E1
330
1F
100
AcDbEntity
  8
0
  6
Continuous
 62
     7
370
    15
100
AcDbLine
 10
6.6254918607
 20
10.8065758588
 30
0.0
 11
6.5678334601
 21
10.8306955001
 31
0.0
  0
LINE
  5
E2
330
1F
100
AcDbEntity
  8
0
  6
Continuous
 62
     7
370
    15
100
AcDbLine
 10
6.5695342604
 20
10.6728083107
 30
0.0
 11
6.6254918607
 21
10.8065758588
 31
0.0
  0
LINE
  5
E3
330
1F
100
AcDbEntity
  8
0
  6
Continuous
 62
     7
370
    15
100
AcDbLine
 10
6.2812421841
 20
10.7934068109
 30
0.0
 11
6.5695342604
 21
10.6728083107
 31
0.0
  0
LINE
  5
E4
330
1F
100
AcDbEntity
  8
0
  6
Continuous
 62
     7
370
    15
100
AcDbLine
 10
6.2330028647
 20
10.6780900097
 30
0.0
 11
6.2812421841
 21
10.7934068109
 31
0.0
  0
LINE
  5
E5
330
1F
100
AcDbEntity
  8
0
  6
Continuous
 62
     7
370
    15
100
AcDbLine
 10
0.51265641
 20
11.2553756609
 30
0.0
 11
0.3872338055
 21
10.9555519778
 31
0.0
  0
LINE
  5
E6
330
1F
100
AcDbEntity
  8
0
  6
Continuous
 62
     7
370
    15
100
AcDbLine
 10
1.3203313197
 20
11.2426997006
 30
0.0
 11
0.9051908354
 21
11.4163615878
 31
0.0
  0
CIRCLE
  5
E7
330
1F
100
AcDbEntity
  8
0
  6
Continuous
 62
     7
370
    15
100
AcDbCircle
 10
0.8540114804
 20
11.2616256811
 30
0.0
 40
0.0400000000000002
  0
ARC
  5
E8
330
1F
100
AcDbEntity
  8
0
  6
Continuous
 62
     7
370
    15
100
AcDbCircle
 10
0.7894165273
 20
11.1396011261
 30
0.0
 40
0.3
100
AcDbArc
 50
67.2994618345
 51
157.2994618345
  0
LINE
  5
E9
330
1F
100
AcDbEntity
  8
0
  6
Continuous
 62
     7
370
    15
100
AcDbLine
 10
0.3872338055
 20
10.9555519778
 30
0.0
 11
0.8023742898
 21
10.7818900906
 31
0.0
  0
SPLINE
  5
EA
330
1F
100
AcDbEntity
  8
0
  6
Continuous
 62
     7
370
    15
100
AcDbSpline
210
0.0
220
0.0
230
1.0
 70
     8
 71
     3
 72
    24
 73
    20
 74
     0
 42
0.00000001
 43
0.00000001
 40
0.0
 40
0.0
 40
0.0
 40
0.0
 40
0.040948182070849
 40
0.0848926477048829
 40
0.1319803339236936
 40
0.1821039636543914
 40
0.2349880489946988
 40
0.2902467995228107
 40
0.3807589017117816
 40
0.4740064823844933
 40
0.5678675083770538
 40
0.6299943955113337
 40
0.6908022972456189
 40
0.7496908678544736
 40
0.8061100604343635
 40
0.859589506708884
 40
0.9097833615415388
 40
0.9565386251100231
 40
1.0
 40
1.0
 40
1.0
 40
1.0
 10
6.474199535068222
 20
11.25467401562464
 30
0.0
 10
6.407343750547856
 20
11.27897907556498
 30
0.0
 10
6.268740172188724
 20
11.32936765905304
 30
0.0
 10
6.042738277611874
 20
11.37093036370998
 30
0.0
 10
5.799015543527085
 20
11.39529530749907
 30
0.0
 10
5.538510170679544
 20
11.40178676814827
 30
0.0
 10
5.264014538182129
 20
11.39406007190373
 30
0.0
 10
4.920164436881595
 20
11.37044691577429
 30
0.0
 10
4.507796527786923
 20
11.32663467670338
 30
0.0
 10
4.030223996570248
 20
11.264765675083
 30
0.0
 10
3.601742199024516
 20
11.20724989738547
 30
0.0
 10
3.228484029497317
 20
11.16139406236628
 30
0.0
 10
2.91479272070967
 20
11.12848113773612
 30
0.0
 10
2.610149436953229
 20
11.10493850187243
 30
0.0
 10
2.317504784938584
 20
11.0938847325221
 30
0.0
 10
2.039588016152055
 20
11.09801963995843
 30
0.0
 10
1.779629449464991
 20
11.12153840831133
 30
0.0
 10
1.538781997419874
 20
11.16381687389216
 30
0.0
 10
1.391353970006936
 20
11.2170533282738
 30
0.0
 10
1.320331319660309
 20
11.24269970061962
 30
0.0
  0
CIRCLE
  5
EB
330
1F
100
AcDbEntity
  8
0
  6
Continuous
 62
     7
370
    15
100
AcDbCircle
 10
0.7382370682
 20
10.9848653417
 30
0.0
 40
0.0400000000000002
  0
SPLINE
  5
EC
330
1F
100
AcDbEntity
  8
0
  6
Continuous
 62
     7
370
    15
100
AcDbSpline
210
0.0
220
0.0
230
1.0
 70
     8
 71
     3
 72
    23
 73
    19
 74
     0
 42
0.00000001
 43
0.00000001
 40
0.0
 40
0.0
 40
0.0
 40
0.0
 40
0.0595878213011332
 40
0.1212429065561779
 40
0.1852137876249667
 40
0.2513980241420319
 40
0.3194414975418136
 40
0.4104569992242901
 40
0.5022706140168754
 40
0.5932142578600895
 40
0.6527613417197149
 40
0.7106188232013667
 40
0.7662923619001498
 40
0.8193332368017244
 40
0.8693688955487026
 40
0.9161487510840952
 40
0.9596137958909824
 40
1.0
 40
1.0
 40
1.0
 40
1.0
 10
0.8023742898107836
 20
10.78189009059822
 30
0.0
 10
0.9047609453043356
 20
10.74414646534018
 30
0.0
 10
1.113086328470646
 20
10.66734978557694
 30
0.0
 10
1.446668862125823
 20
10.60214675867559
 30
0.0
 10
1.795590470492046
 20
10.56444072230961
 30
0.0
 10
2.15820941711896
 20
10.5535753243854
 30
0.0
 10
2.570101846797081
 20
10.56445223845575
 30
0.0
 10
3.027744175492799
 20
10.59891965496078
 30
0.0
 10
3.525503026347988
 20
10.65288702464695
 30
0.0
 10
3.965338878253692
 20
10.70658157804061
 30
0.0
 10
4.343766522646466
 20
10.75086284121496
 30
0.0
 10
4.65861102365424
 20
10.78340639178775
 30
0.0
 10
4.9623228408148
 20
10.80744487677355
 30
0.0
 10
5.252436631617353
 20
10.8196601715637
 30
0.0
 10
5.526713239630415
 20
10.81715457607479
 30
0.0
 10
5.782410732559594
 20
10.79551888000899
 30
0.0
 10
6.018871456931326
 20
10.7551665491013
 30
0.0
 10
6.163394590161597
 20
10.70314548835766
 30
0.0
 10
6.233002864726073
 20
10.67809000970562
 30
0.0
  0
LINE
  5
ED
330
1F
100
AcDbEntity
  8
0
  6
Continuous
 62
     7
370
    15
100
AcDbLine
 10
8.0742914307
 20
12.4319050562
 30
0.0
 11
6.9211234188
 21
12.9142987635
 31
0.0
  0
LINE
  5
EE
330
1F
100
AcDbEntity
  8
0
  6
Continuous
 62
     7
370
    15
100
AcDbLine
 10
7.8813341531
 20
11.9706378514
 30
0.0
 11
8.0742914307
 21
12.4319050562
 31
0.0
  0
LINE
  5
EF
330
1F
100
AcDbEntity
  8
0
  6
Continuous
 62
     7
370
    15
100
AcDbLine
 10
7.5930421501
 20
12.0912363516
 30
0.0
 11
7.8813341531
 21
11.9706378514
 31
0.0
  0
LINE
  5
F0
330
1F
100
AcDbEntity
  8
0
  6
Continuous
 62
     7
370
    15
100
AcDbLine
 10
7.648999677
 20
12.2250036063
 30
0.0
 11
7.5930421501
 21
12.0912363516
 31
0.0
  0
LINE
  5
F1
330
1F
100
AcDbEntity
  8
0
  6
Continuous
 62
     7
370
    15
100
AcDbLine
 10
7.7066580776
 20
12.2008839649
 30
0.0
 11
7.648999677
 21
12.2250036063
 31
0.0
  0
LINE
  5
F2
330
1F
100
AcDbEntity
  8
0
  6
Continuous
 62
     7
370
    15
100
AcDbLine
 10
7.7491087872
 20
12.302362926
 30
0.0
 11
7.7066580776
 21
12.2008839649
 31
0.0
  0
LINE
  5
F3
330
1F
100
AcDbEntity
  8
0
  6
Continuous
 62
     7
370
    15
100
AcDbLine
 10
7.5184751848
 20
12.3988414914
 30
0.0
 11
7.7491087872
 21
12.302362926
 31
0.0
  0
LINE
  5
F4
330
1F
100
AcDbEntity
  8
0
  6
Continuous
 62
     7
370
    15
100
AcDbLine
 10
7.4760244752
 20
12.2973628237
 30
0.0
 11
7.5184751848
 21
12.3988414914
 31
0.0
  0
LINE
  5
F5
330
1F
100
AcDbEntity
  8
0
  6
Continuous
 62
     7
370
    15
100
AcDbLine
 10
7.5336828758
 20
12.2732431824
 30
0.0
 11
7.4760244752
 21
12.2973628237
 31
0.0
  0
LINE
  5
F6
330
1F
100
AcDbEntity
  8
0
  6
Continuous
 62
     7
370
    15
100
AcDbLine
 10
7.4777253489
 20
12.1394756343
 30
0.0
 11
7.5336828758
 21
12.2732431824
 31
0.0
  0
LINE
  5
F7
330
1F
100
AcDbEntity
  8
0
  6
Continuous
 62
     7
370
    15
100
AcDbLine
 10
7.1317747987
 20
12.2841934825
 30
0.0
 11
7.4777253489
 21
12.1394756343
 31
0.0
  0
LINE
  5
F8
330
1F
100
AcDbEntity
  8
0
  6
Continuous
 62
     7
370
    15
100
AcDbLine
 10
7.1877324723
 20
12.4179610306
 30
0.0
 11
7.1317747987
 21
12.2841934825
 31
0.0
  0
LINE
  5
F9
330
1F
100
AcDbEntity
  8
0
  6
Continuous
 62
     7
370
    15
100
AcDbLine
 10
7.2453908729
 20
12.3938413892
 30
0.0
 11
7.1877324723
 21
12.4179610306
 31
0.0
  0
LINE
  5
FA
330
1F
100
AcDbEntity
  8
0
  6
Continuous
 62
     7
370
    15
100
AcDbLine
 10
7.2878415825
 20
12.4953200569
 30
0.0
 11
7.2453908729
 21
12.3938413892
 31
0.0
  0
LINE
  5
FB
330
1F
100
AcDbEntity
  8
0
  6
Continuous
 62
     7
370
    15
100
AcDbLine
 10
7.0572079801
 20
12.5917989157
 30
0.0
 11
7.2878415825
 21
12.4953200569
 31
0.0
  0
LINE
  5
FC
330
1F
100
AcDbEntity
  8
0
  6
Continuous
 62
     7
370
    15
100
AcDbLine
 10
7.0147572705
 20
12.4903199547
 30
0.0
 11
7.0572079801
 21
12.5917989157
 31
0.0
  0
LINE
  5
FD
330
1F
100
AcDbEntity
  8
0
  6
Continuous
 62
     7
370
    15
100
AcDbLine
 10
7.0724156711
 20
12.4662003133
 30
0.0
 11
7.0147572705
 21
12.4903199547
 31
0.0
  0
LINE
  5
FE
330
1F
100
AcDbEntity
  8
0
  6
Continuous
 62
     7
370
    15
100
AcDbLine
 10
7.0164579975
 20
12.3324327653
 30
0.0
 11
7.0724156711
 21
12.4662003133
 31
0.0
  0
LINE
  5
FF
330
1F
100
AcDbEntity
  8
0
  6
Continuous
 62
     7
370
    15
100
AcDbLine
 10
6.7281660679
 20
12.4530312654
 30
0.0
 11
7.0164579975
 21
12.3324327653
 31
0.0
  0
LINE
  5
100
330
1F
100
AcDbEntity
  8
0
  6
Continuous
 62
     7
370
    15
100
AcDbLine
 10
6.6799267118
 20
12.3377144642
 30
0.0
 11
6.7281660679
 21
12.4530312654
 31
0.0
  0
SPLINE
  5
101
330
1F
100
AcDbEntity
  8
0
  6
Continuous
 62
     7
370
    15
100
AcDbSpline
210
0.0
220
0.0
230
1.0
 70
     8
 71
     3
 72
    23
 73
    19
 74
     0
 42
0.00000001
 43
0.00000001
 40
0.0
 40
0.0
 40
0.0
 40
0.0
 40
0.0595878388035397
 40
0.121242872064317
 40
0.1852137534876387
 40
0.2513979885616135
 40
0.3194414623384988
 40
0.4104570140474975
 40
0.5022706027614972
 40
0.5932142534158577
 40
0.6527613447564588
 40
0.7106188132600684
 40
0.766292363023487
 40
0.8193332327795052
 40
0.8693688918037858
 40
0.9161487442693135
 40
0.9596137893170882
 40
1.0
 40
1.0
 40
1.0
 40
1.0
 10
1.249298246907094
 20
12.44151483847152
 30
0.0
 10
1.35168489512451
 20
12.40377109427396
 30
0.0
 10
1.560010143030309
 20
12.32697421691012
 30
0.0
 10
1.893592623785093
 20
12.26177122287468
 30
0.0
 10
2.242514126690941
 20
12.22406508019677
 30
0.0
 10
2.605133089224497
 20
12.21320016415903
 30
0.0
 10
3.017025594524981
 20
12.2240770252175
 30
0.0
 10
3.474667998400853
 20
12.25854402704559
 30
0.0
 10
3.972426912942959
 20
12.31251135781094
 30
0.0
 10
4.41226266389652
 20
12.36620654395904
 30
0.0
 10
4.7906903799183
 20
12.41048721569065
 30
0.0
 10
5.105534884077933
 20
12.44303073844483
 30
0.0
 10
5.409246647109174
 20
12.46706982856987
 30
0.0
 10
5.699360475941663
 20
12.47928450337605
 30
0.0
 10
5.973637060901615
 20
12.47677906089683
 30
0.0
 10
6.229334549662885
 20
12.45514332713281
 30
0.0
 10
6.465795277604315
 20
12.41479099964587
 30
0.0
 10
6.610318424840189
 20
12.36276994297939
 30
0.0
 10
6.679926711823654
 20
12.33771446424896
 30
0.0
  0
LINE
  5
102
330
1F
100
AcDbEntity
  8
0
  6
Continuous
 62
     7
370
    15
100
AcDbLine
 10
0.8341577626
 20
12.6151764323
 30
0.0
 11
1.2492982469
 21
12.4415148385
 31
0.0
  0
LINE
  5
103
330
1F
100
AcDbEntity
  8
0
  6
Continuous
 62
     7
370
    15
100
AcDbLine
 10
0.9595800738
 20
12.9149998221
 30
0.0
 11
0.8341577626
 21
12.6151764323
 31
0.0
  0
LINE
  5
104
330
1F
100
AcDbEntity
  8
0
  6
Continuous
 62
     7
370
    15
100
AcDbLine
 10
1.7672552768
 20
12.9023244485
 30
0.0
 11
1.3521147925
 21
13.075985749
 31
0.0
  0
SPLINE
  5
105
330
1F
100
AcDbEntity
  8
0
  6
Continuous
 62
     7
370
    15
100
AcDbSpline
210
0.0
220
0.0
230
1.0
 70
     8
 71
     3
 72
    24
 73
    20
 74
     0
 42
0.00000001
 43
0.00000001
 40
0.0
 40
0.0
 40
0.0
 40
0.0
 40
0.0409481785523249
 40
0.0848926452013486
 40
0.1319803325077485
 40
0.1821039597565468
 40
0.2349880512857543
 40
0.2902467978172756
 40
0.3807589091063265
 40
0.4740064990001293
 40
0.5678675271606075
 40
0.6299943741715512
 40
0.690802305345753
 40
0.749690849209557
 40
0.806110045074366
 40
0.8595895489421516
 40
0.9097833488067164
 40
0.9565386241061913
 40
1.0
 40
1.0
 40
1.0
 40
1.0
 10
6.921123418832046
 20
12.91429876349794
 30
0.0
 10
6.854267601525016
 20
12.93860369854896
 30
0.0
 10
6.71566394737128
 20
12.98899202596363
 30
0.0
 10
6.489662096766253
 20
13.030554872644
 30
0.0
 10
6.245939355531788
 20
13.05491963001754
 30
0.0
 10
5.985433995244679
 20
13.0614117322789
 30
0.0
 10
5.710938376864331
 20
13.05368438610172
 30
0.0
 10
5.36708826362996
 20
13.03007142277179
 30
0.0
 10
4.954720328167395
 20
12.98625918872726
 30
0.0
 10
4.477147820812046
 20
12.92438983500968
 30
0.0
 10
4.048666117398448
 20
12.86687376342794
 30
0.0
 10
3.675407844480871
 20
12.82101898497902
 30
0.0
 10
3.361716634046516
 20
12.78810582410846
 30
0.0
 10
3.057073337340274
 20
12.76456336740433
 30
0.0
 10
2.764428650109875
 20
12.75350907938268
 30
0.0
 10
2.486511878980077
 20
12.75764412878202
 30
0.0
 10
2.226553271575439
 20
12.7811627721914
 30
0.0
 10
1.985705988785846
 20
12.82344170370658
 30
0.0
 10
1.838277932586113
 20
12.87667810483121
 30
0.0
 10
1.767255276756619
 20
12.90232444849291
 30
0.0
  0
CIRCLE
  5
106
330
1F
100
AcDbEntity
  8
0
  6
Continuous
 62
     7
370
    15
100
AcDbCircle
 10
1.3009353038
 20
12.9212502519
 30
0.0
 40
0.0400000000000002
  0
ARC
  5
107
330
1F
100
AcDbEntity
  8
0
  6
Continuous
 62
     7
370
    15
100
AcDbCircle
 10
1.2363403507
 20
12.7992256969
 30
0.0
 40
0.2999999999999994
100
AcDbArc
 50
67.2994618345
 51
157.2994618345
  0
CIRCLE
  5
108
330
1F
100
AcDbEntity
  8
0
  6
Continuous
 62
     7
370
    15
100
AcDbCircle
 10
1.1851608916
 20
12.6444899125
 30
0.0
 40
0.0400000000000002
  0
CIRCLE
  5
109
330
1F
100
AcDbEntity
  8
0
  6
Continuous
 62
     7
370
    15
100
AcDbCircle
 10
0.8746322617
 20
11.8224737433
 30
0.0
 40
0.0400000000000001
  0
LINE
  5
10A
330
1F
100
AcDbEntity
  8
0
  6
Continuous
 62
     7
370
    15
100
AcDbLine
 10
7.7637628179
 20
11.6098889522
 30
0.0
 11
6.6105947328
 21
12.0922823662
 31
0.0
  0
LINE
  5
10B
330
1F
100
AcDbEntity
  8
0
  6
Continuous
 62
     7
370
    15
100
AcDbLine
 10
7.5708055403
 20
11.1486217474
 30
0.0
 11
7.7637628179
 21
11.6098889522
 31
0.0
  0
LINE
  5
10C
330
1F
100
AcDbEntity
  8
0
  6
Continuous
 62
     7
370
    15
100
AcDbLine
 10
7.2825135374
 20
11.2692199543
 30
0.0
 11
7.5708055403
 21
11.1486217474
 31
0.0
  0
LINE
  5
10D
330
1F
100
AcDbEntity
  8
0
  6
Continuous
 62
     7
370
    15
100
AcDbLine
 10
7.3384710643
 20
11.4029875023
 30
0.0
 11
7.2825135374
 21
11.2692199543
 31
0.0
  0
LINE
  5
10E
330
1F
100
AcDbEntity
  8
0
  6
Continuous
 62
     7
370
    15
100
AcDbLine
 10
7.3961294649
 20
11.3788678609
 30
0.0
 11
7.3384710643
 21
11.4029875023
 31
0.0
  0
LINE
  5
10F
330
1F
100
AcDbEntity
  8
0
  6
Continuous
 62
     7
370
    15
100
AcDbLine
 10
7.4385801745
 20
11.4803465286
 30
0.0
 11
7.3961294649
 21
11.3788678609
 31
0.0
  0
LINE
  5
110
330
1F
100
AcDbEntity
  8
0
  6
Continuous
 62
     7
370
    15
100
AcDbLine
 10
7.2079465721
 20
11.5768253874
 30
0.0
 11
7.4385801745
 21
11.4803465286
 31
0.0
  0
LINE
  5
111
330
1F
100
AcDbEntity
  8
0
  6
Continuous
 62
     7
370
    15
100
AcDbLine
 10
7.1654958625
 20
11.4753464264
 30
0.0
 11
7.2079465721
 21
11.5768253874
 31
0.0
  0
LINE
  5
112
330
1F
100
AcDbEntity
  8
0
  6
Continuous
 62
     7
370
    15
100
AcDbLine
 10
7.2231542631
 20
11.451226785
 30
0.0
 11
7.1654958625
 21
11.4753464264
 31
0.0
  0
LINE
  5
113
330
1F
100
AcDbEntity
  8
0
  6
Continuous
 62
     7
370
    15
100
AcDbLine
 10
7.1671967362
 20
11.3174595303
 30
0.0
 11
7.2231542631
 21
11.451226785
 31
0.0
  0
LINE
  5
114
330
1F
100
AcDbEntity
  8
0
  6
Continuous
 62
     7
370
    15
100
AcDbLine
 10
6.8212462593
 20
11.4621773785
 30
0.0
 11
7.1671967362
 21
11.3174595303
 31
0.0
  0
LINE
  5
115
330
1F
100
AcDbEntity
  8
0
  6
Continuous
 62
     7
370
    15
100
AcDbLine
 10
6.8772038595
 20
11.5959449266
 30
0.0
 11
6.8212462593
 21
11.4621773785
 31
0.0
  0
LINE
  5
116
330
1F
100
AcDbEntity
  8
0
  6
Continuous
 62
     7
370
    15
100
AcDbLine
 10
6.9348622601
 20
11.5718252852
 30
0.0
 11
6.8772038595
 21
11.5959449266
 31
0.0
  0
LINE
  5
117
330
1F
100
AcDbEntity
  8
0
  6
Continuous
 62
     7
370
    15
100
AcDbLine
 10
6.9773128231
 20
11.6733039529
 30
0.0
 11
6.9348622601
 21
11.5718252852
 31
0.0
  0
LINE
  5
118
330
1F
100
AcDbEntity
  8
0
  6
Continuous
 62
     7
370
    15
100
AcDbLine
 10
6.746679294
 20
11.7697828117
 30
0.0
 11
6.9773128231
 21
11.6733039529
 31
0.0
  0
LINE
  5
119
330
1F
100
AcDbEntity
  8
0
  6
Continuous
 62
     7
370
    15
100
AcDbLine
 10
6.7042286578
 20
11.6683038507
 30
0.0
 11
6.746679294
 21
11.7697828117
 31
0.0
  0
LINE
  5
11A
330
1F
100
AcDbEntity
  8
0
  6
Continuous
 62
     7
370
    15
100
AcDbLine
 10
6.7618870583
 20
11.6441842093
 30
0.0
 11
6.7042286578
 21
11.6683038507
 31
0.0
  0
LINE
  5
11B
330
1F
100
AcDbEntity
  8
0
  6
Continuous
 62
     7
370
    15
100
AcDbLine
 10
6.7059294581
 20
11.5104166613
 30
0.0
 11
6.7618870583
 21
11.6441842093
 31
0.0
  0
LINE
  5
11C
330
1F
100
AcDbEntity
  8
0
  6
Continuous
 62
     7
370
    15
100
AcDbLine
 10
6.4176373818
 20
11.6310151614
 30
0.0
 11
6.7059294581
 21
11.5104166613
 31
0.0
  0
LINE
  5
11D
330
1F
100
AcDbEntity
  8
0
  6
Continuous
 62
     7
370
    15
100
AcDbLine
 10
6.3693980991
 20
11.5156983602
 30
0.0
 11
6.4176373818
 21
11.6310151614
 31
0.0
  0
SPLINE
  5
11E
330
1F
100
AcDbEntity
  8
0
  6
Continuous
 62
     7
370
    15
100
AcDbSpline
210
0.0
220
0.0
230
1.0
 70
     8
 71
     3
 72
    23
 73
    19
 74
     0
 42
0.00000001
 43
0.00000001
 40
0.0
 40
0.0
 40
0.0
 40
0.0
 40
0.0595878372902097
 40
0.1212429213211219
 40
0.1852138011197991
 40
0.2513980345129176
 40
0.3194415065617284
 40
0.410457029293207
 40
0.5022706156754515
 40
0.5932142640201502
 40
0.6527613538484561
 40
0.7106188208826814
 40
0.7662923692321797
 40
0.8193332343019694
 40
0.8693688920555132
 40
0.9161487433329903
 40
0.9596137839926918
 40
1.0
 40
1.0
 40
1.0
 40
1.0
 10
0.9387694874951542
 20
11.61949873447169
 30
0.0
 10
1.041156134739436
 20
11.58175498523706
 30
0.0
 10
1.249481470591345
 20
11.50495806447398
 30
0.0
 10
1.583064067666712
 20
11.43975515442174
 30
0.0
 10
1.931985659163339
 20
11.40204896888863
 30
0.0
 10
2.294604623494779
 20
11.39118406289991
 30
0.0
 10
2.706497079760406
 20
11.40206091582482
 30
0.0
 10
3.164139433944447
 20
11.43652793198064
 30
0.0
 10
3.661898300247759
 20
11.49049525281585
 30
0.0
 10
4.101734051141216
 20
11.54419044013387
 30
0.0
 10
4.480161767172443
 20
11.58847111163466
 30
0.0
 10
4.795006271333123
 20
11.62101463452971
 30
0.0
 10
5.098718028264781
 20
11.6450537238199
 30
0.0
 10
5.388831851015495
 20
11.65726839988601
 30
0.0
 10
5.663108429636539
 20
11.65476295603598
 30
0.0
 10
5.918805913228981
 20
11.63312722628205
 30
0.0
 10
6.155266644029905
 20
11.59277488716446
 30
0.0
 10
6.299789799653624
 20
11.54075383826305
 30
0.0
 10
6.369398099076687
 20
11.51569836024914
 30
0.0
  0
LINE
  5
11F
330
1F
100
AcDbEntity
  8
0
  6
Continuous
 62
     7
370
    15
100
AcDbLine
 10
0.5236292966
 20
11.7931603283
 30
0.0
 11
0.9387694875
 21
11.6194987345
 31
0.0
  0
LINE
  5
120
330
1F
100
AcDbEntity
  8
0
  6
Continuous
 62
     7
370
    15
100
AcDbLine
 10
0.6490513143
 20
12.0929840114
 30
0.0
 11
0.5236292966
 21
11.7931603283
 31
0.0
  0
ARC
  5
121
330
1F
100
AcDbEntity
  8
0
  6
Continuous
 62
     7
370
    15
100
AcDbCircle
 10
0.9258117209
 20
11.9772095277
 30
0.0
 40
0.3
100
AcDbArc
 50
67.2994618345
 51
157.2994618345
  0
LINE
  5
122
330
1F
100
AcDbEntity
  8
0
  6
Continuous
 62
     7
370
    15
100
AcDbLine
 10
1.4567265173
 20
12.0803083445
 30
0.0
 11
1.0415860331
 21
12.2539699383
 31
0.0
  0
SPLINE
  5
123
330
1F
100
AcDbEntity
  8
0
  6
Continuous
 62
     7
370
    15
100
AcDbSpline
210
0.0
220
0.0
230
1.0
 70
     8
 71
     3
 72
    24
 73
    20
 74
     0
 42
0.00000001
 43
0.00000001
 40
0.0
 40
0.0
 40
0.0
 40
0.0
 40
0.0409481812217821
 40
0.0848926459446207
 40
0.131980331187061
 40
0.1821039632819011
 40
0.2349880472102679
 40
0.2902467895620379
 40
0.3807588968837388
 40
0.4740064756229475
 40
0.567867499669285
 40
0.6299943855153544
 40
0.6908022859887784
 40
0.7496908553765693
 40
0.8061100467865986
 40
0.8595894919522146
 40
0.9097833457440921
 40
0.9565386083430989
 40
1.0
 40
1.0
 40
1.0
 40
1.0
 10
6.610594732752593
 20
12.09228236616817
 30
0.0
 10
6.543738948192189
 20
12.11658742393102
 30
0.0
 10
6.405135369750052
 20
12.16697600290476
 30
0.0
 10
6.179133475846755
 20
12.20853874419375
 30
0.0
 10
5.935410733049475
 20
12.23290353433077
 30
0.0
 10
5.674905366418098
 20
12.2393956265672
 30
0.0
 10
5.400409749353036
 20
12.23166828002863
 30
0.0
 10
5.056559646241615
 20
12.20805532977028
 30
0.0
 10
4.644191737659715
 20
12.16424300816517
 30
0.0
 10
4.166619194216738
 20
12.10237403133974
 30
0.0
 10
3.738137396721083
 20
12.04485824697534
 30
0.0
 10
3.364879227166148
 20
11.99900241307615
 30
0.0
 10
3.051187918446213
 20
11.96608948838253
 30
0.0
 10
2.746544634453846
 20
11.94254685187463
 30
0.0
 10
2.453899983262927
 20
11.93149308499561
 30
0.0
 10
2.175983211641101
 20
11.9356279838705
 30
0.0
 10
1.916024654577958
 20
11.95914678129718
 30
0.0
 10
1.675177139883557
 20
12.00142515448677
 30
0.0
 10
1.527749159836391
 20
12.05466185039153
 30
0.0
 10
1.45672651734468
 20
12.08030834449309
 30
0.0
  0
CIRCLE
  5
124
330
1F
100
AcDbEntity
  8
0
  6
Continuous
 62
     7
370
    15
100
AcDbCircle
 10
0.9904066739
 20
12.0992340827
 30
0.0
 40
0.0400000000000001
  0
CIRCLE
  5
125
330
1F
100
AcDbEntity
  8
0
  6
Continuous
 62
     7
370
    15
100
AcDbCircle
 10
0.5942272606
 20
9.910496186
 30
0.0
 40
0.0624999999999997
  0
LINE
  5
126
330
1F
100
AcDbEntity
  8
0
  6
Continuous
 62
     7
370
    15
100
AcDbLine
 10
0.281727131
 20
10.0729962398
 30
0.0
 11
0.281727131
 21
0.372996335
 31
0.0
  0
ARC
  5
127
330
1F
100
AcDbEntity
  8
0
  6
Continuous
 62
     7
370
    15
100
AcDbCircle
 10
0.5817272606
 20
10.072996186
 30
0.0
 40
0.3000000000000006
100
AcDbArc
 50
90.0
 51
180.0
  0
LINE
  5
128
330
1F
100
AcDbEntity
  8
0
  6
Continuous
 62
     7
370
    15
100
AcDbLine
 10
0.7817273817
 20
0.372996335
 30
0.0
 11
1.0317272136
 21
10.3729960675
 31
0.0
  0
CIRCLE
  5
129
330
1F
100
AcDbEntity
  8
0
  6
Continuous
 62
     7
370
    15
100
AcDbCircle
 10
0.5942272606
 20
10.210496186
 30
0.0
 40
0.0624999999999997
  0
LINE
  5
12A
330
1F
100
AcDbEntity
  8
0
  6
Continuous
 62
     7
370
    15
100
AcDbLine
 10
0.281727131
 20
0.372996335
 30
0.0
 11
0.7817273817
 21
0.372996335
 31
0.0
  0
LINE
  5
12B
330
1F
100
AcDbEntity
  8
0
  6
Continuous
 62
     7
370
    15
100
AcDbLine
 10
1.0317272136
 20
10.3729960675
 30
0.0
 11
0.5817273987
 21
10.3729960675
 31
0.0
  0
CIRCLE
  5
12C
330
1F
100
AcDbEntity
  8
0
  6
Continuous
 62
     7
370
    15
100
AcDbCircle
 10
1.5741074497
 20
9.910496186
 30
0.0
 40
0.0625000000000002
  0
LINE
  5
12D
330
1F
100
AcDbEntity
  8
0
  6
Continuous
 62
     7
370
    15
100
AcDbLine
 10
1.2616075447
 20
0.372996335
 30
0.0
 11
1.761607502
 21
0.372996335
 31
0.0
  0
LINE
  5
12E
330
1F
100
AcDbEntity
  8
0
  6
Continuous
 62
     7
370
    15
100
AcDbLine
 10
1.2616075447
 20
10.0729962398
 30
0.0
 11
1.2616075447
 21
0.372996335
 31
0.0
  0
LINE
  5
12F
330
1F
100
AcDbEntity
  8
0
  6
Continuous
 62
     7
370
    15
100
AcDbLine
 10
2.011607334
 20
10.3729960675
 30
0.0
 11
1.5616075191
 21
10.3729960675
 31
0.0
  0
LINE
  5
130
330
1F
100
AcDbEntity
  8
0
  6
Continuous
 62
     7
370
    15
100
AcDbLine
 10
1.761607502
 20
0.372996335
 30
0.0
 11
2.011607334
 21
10.3729960675
 31
0.0
  0
ARC
  5
131
330
1F
100
AcDbEntity
  8
0
  6
Continuous
 62
     7
370
    15
100
AcDbCircle
 10
1.5616074497
 20
10.072996186
 30
0.0
 40
0.3
100
AcDbArc
 50
90.0
 51
180.0
  0
CIRCLE
  5
132
330
1F
100
AcDbEntity
  8
0
  6
Continuous
 62
     7
370
    15
100
AcDbCircle
 10
1.5741074497
 20
10.210496186
 30
0.0
 40
0.0625000000000002
  0
CIRCLE
  5
133
330
1F
100
AcDbEntity
  8
0
  6
Continuous
 62
     7
370
    15
100
AcDbCircle
 10
2.4912087102
 20
9.910496186
 30
0.0
 40
0.0625000000000004
  0
LINE
  5
134
330
1F
100
AcDbEntity
  8
0
  6
Continuous
 62
     7
370
    15
100
AcDbLine
 10
2.1787086036
 20
0.372996335
 30
0.0
 11
2.6787088542
 21
0.372996335
 31
0.0
  0
LINE
  5
135
330
1F
100
AcDbEntity
  8
0
  6
Continuous
 62
     7
370
    15
100
AcDbLine
 10
2.1787086036
 20
10.0729962398
 30
0.0
 11
2.1787086036
 21
0.372996335
 31
0.0
  0
ARC
  5
136
330
1F
100
AcDbEntity
  8
0
  6
Continuous
 62
     7
370
    15
100
AcDbCircle
 10
2.4787087102
 20
10.072996186
 30
0.0
 40
0.3000000000000003
100
AcDbArc
 50
90.0
 51
180.0
  0
LINE
  5
137
330
1F
100
AcDbEntity
  8
0
  6
Continuous
 62
     7
370
    15
100
AcDbLine
 10
2.9287086862
 20
10.3729960675
 30
0.0
 11
2.478708578
 21
10.3729960675
 31
0.0
  0
LINE
  5
138
330
1F
100
AcDbEntity
  8
0
  6
Continuous
 62
     7
370
    15
100
AcDbLine
 10
2.6787088542
 20
0.372996335
 30
0.0
 11
2.9287086862
 21
10.3729960675
 31
0.0
  0
CIRCLE
  5
139
330
1F
100
AcDbEntity
  8
0
  6
Continuous
 62
     7
370
    15
100
AcDbCircle
 10
2.4912087102
 20
10.210496186
 30
0.0
 40
0.0625000000000004
  0
CIRCLE
  5
13A
330
1F
100
AcDbEntity
  8
0
  6
Continuous
 62
     7
370
    15
100
AcDbCircle
 10
4.7348819152
 20
9.3106158679
 30
0.0
 40
0.0625
  0
CIRCLE
  5
13B
330
1F
100
AcDbEntity
  8
0
  6
Continuous
 62
     7
370
    15
100
AcDbCircle
 10
4.1710480109
 20
8.9865661002
 30
0.0
 40
0.1718749999999999
  0
LINE
  5
13C
330
1F
100
AcDbEntity
  8
0
  6
Continuous
 62
     7
370
    15
100
AcDbLine
 10
3.4192751525
 20
8.0877252772
 30
0.0
 11
4.9192722377
 21
8.084769153
 31
0.0
  0
LINE
  5
13D
330
1F
100
AcDbEntity
  8
0
  6
Continuous
 62
     7
370
    15
100
AcDbLine
 10
3.015956745
 20
8.7894834004
 30
0.0
 11
3.4192751525
 21
8.0877252772
 31
0.0
  0
LINE
  5
13E
330
1F
100
AcDbEntity
  8
0
  6
Continuous
 62
     7
370
    15
100
AcDbLine
 10
3.768515398
 20
10.0870408776
 30
0.0
 11
3.015956745
 21
8.7894834004
 31
0.0
  0
LINE
  5
13F
330
1F
100
AcDbEntity
  8
0
  6
Continuous
 62
     7
370
    15
100
AcDbLine
 10
5.3253534283
 20
8.784932093
 30
0.0
 11
4.5779149411
 21
10.0854457493
 31
0.0
  0
LINE
  5
140
330
1F
100
AcDbEntity
  8
0
  6
Continuous
 62
     7
370
    15
100
AcDbLine
 10
4.9192722377
 20
8.084769153
 30
0.0
 11
5.3253534283
 21
8.784932093
 31
0.0
  0
CIRCLE
  5
141
330
1F
100
AcDbEntity
  8
0
  6
Continuous
 62
     7
370
    15
100
AcDbCircle
 10
4.1697663896
 20
8.3362467316
 30
0.0
 40
0.0625
  0
CIRCLE
  5
142
330
1F
100
AcDbEntity
  8
0
  6
Continuous
 62
     7
370
    15
100
AcDbCircle
 10
3.6084957277
 20
9.312835701
 30
0.0
 40
0.0625
  0
LINE
  5
143
330
1F
100
AcDbEntity
  8
0
  6
Continuous
 62
     7
370
    15
100
AcDbLine
 10
4.5779149411
 20
10.0854457493
 30
0.0
 11
3.768515398
 21
10.0870408776
 31
0.0
  0
ENDSEC
  0
SECTION
  2
OBJECTS
  0
DICTIONARY
  5
C
330
0
100
AcDbDictionary
281
     1
  3
ACAD_GROUP
350
D
  3
ACAD_LAYOUT
350
1A
  3
ACAD_MLINESTYLE
350
17
  3
ACAD_PLOTSETTINGS
350
19
  3
ACAD_PLOTSTYLENAME
350
E
  0
DICTIONARY
  5
D
102
{ACAD_REACTORS
330
C
102
}
330
C
100
AcDbDictionary
281
     1
  0
DICTIONARY
  5
1A
102
{ACAD_REACTORS
330
C
102
}
330
C
100
AcDbDictionary
281
     1
  3
Layout1
350
1E
  3
Layout2
350
26
  3
Model
350
22
  0
DICTIONARY
  5
17
102
{ACAD_REACTORS
330
C
102
}
330
C
100
AcDbDictionary
281
     1
  3
Standard
350
18
  0
DICTIONARY
  5
19
102
{ACAD_REACTORS
330
C
102
}
330
C
100
AcDbDictionary
281
     1
  0
ACDBDICTIONARYWDFLT
  5
E
102
{ACAD_REACTORS
330
C
102
}
330
C
100
AcDbDictionary
281
     1
  3
Normal
350
F
100
AcDbDictionaryWithDefault
340
F
  0
LAYOUT
  5
1E
102
{ACAD_REACTORS
330
1A
102
}
330
1A
100
AcDbPlotSettings
  1

  2
none_device
  4

  6

 40
0.0
 41
0.0
 42
0.0
 43
0.0
 44
0.0
 45
0.0
 46
0.0
 47
0.0
 48
0.0
 49
0.0
140
0.0
141
0.0
142
1.0
143
1.0
 70
   688
 72
     0
 73
     0
 74
     5
  7

 75
    16
147
1.0
148
0.0
149
0.0
100
AcDbLayout
  1
Layout1
 70
     1
 71
     1
 10
0.0
 20
0.0
 11
12.0
 21
9.0
 12
0.0
 22
0.0
 32
0.0
 14
1.0000000000E+20
 24
1.0000000000E+20
 34
1.0000000000E+20
 15
-1.0000000000E+20
 25
-1.0000000000E+20
 35
-1.0000000000E+20
146
0.0
 13
0.0
 23
0.0
 33
0.0
 16
1.0
 26
0.0
 36
0.0
 17
0.0
 27
1.0
 37
0.0
 76
     0
330
1B
  0
LAYOUT
  5
26
102
{ACAD_REACTORS
330
1A
102
}
330
1A
100
AcDbPlotSettings
  1

  2
none_device
  4

  6

 40
0.0
 41
0.0
 42
0.0
 43
0.0
 44
0.0
 45
0.0
 46
0.0
 47
0.0
 48
0.0
 49
0.0
140
0.0
141
0.0
142
1.0
143
1.0
 70
   688
 72
     0
 73
     0
 74
     5
  7

 75
    16
147
1.0
148
0.0
149
0.0
100
AcDbLayout
  1
Layout2
 70
     1
 71
     2
 10
0.0
 20
0.0
 11
0.0
 21
0.0
 12
0.0
 22
0.0
 32
0.0
 14
0.0
 24
0.0
 34
0.0
 15
0.0
 25
0.0
 35
0.0
146
0.0
 13
0.0
 23
0.0
 33
0.0
 16
1.0
 26
0.0
 36
0.0
 17
0.0
 27
1.0
 37
0.0
 76
     0
330
23
  0
LAYOUT
  5
22
102
{ACAD_REACTORS
330
1A
102
}
330
1A
100
AcDbPlotSettings
  1

  2
none_device
  4

  6

 40
0.0
 41
0.0
 42
0.0
 43
0.0
 44
0.0
 45
0.0
 46
0.0
 47
0.0
 48
0.0
 49
0.0
140
0.0
141
0.0
142
1.0
143
1.0
 70
  1712
 72
     0
 73
     0
 74
     0
  7

 75
     0
147
1.0
148
0.0
149
0.0
100
AcDbLayout
  1
Model
 70
     1
 71
     0
 10
0.0
 20
0.0
 11
11.0
 21
14.0
 12
0.0
 22
0.0
 32
0.0
 14
0.0
 24
0.0
 34
0.0
 15
11.0
 25
14.0
 35
0.0
146
0.0
 13
0.0
 23
0.0
 33
0.0
 16
1.0
 26
0.0
 36
0.0
 17
0.0
 27
1.0
 37
0.0
 76
     0
330
1F
331
29
  0
MLINESTYLE
  5
18
102
{ACAD_REACTORS
330
17
102
}
330
17
100
AcDbMlineStyle
  2
Standard
 70
     0
  3

 62
   256
 51
90.0
 52
90.0
 71
     2
 49
0.5
 62
   256
  6
BYLAYER
 49
-0.5
 62
   256
  6
BYLAYER
  0
ACDBPLACEHOLDER
  5
F
102
{ACAD_REACTORS
330
E
102
}
330
E
  0
ENDSEC
  0
EOF
